<svg width="834" height="554" viewBox="0 0 834 554" fill="none" xmlns="http://www.w3.org/2000/svg">
<g clip-path="url(#clip0_1484_12750)">
<path d="M512.401 184.87C532.283 184.87 548.401 168.752 548.401 148.87C548.401 128.988 532.283 112.87 512.401 112.87C492.519 112.87 476.401 128.988 476.401 148.87C476.401 168.752 492.519 184.87 512.401 184.87Z" fill="#F2F2F2"/>
<path d="M298.401 112.87C314.969 112.87 328.401 99.4387 328.401 82.8701C328.401 66.3016 314.969 52.8701 298.401 52.8701C281.832 52.8701 268.401 66.3016 268.401 82.8701C268.401 99.4387 281.832 112.87 298.401 112.87Z" fill="#F2F2F2"/>
<path d="M200.401 396.87C216.969 396.87 230.401 383.439 230.401 366.87C230.401 350.302 216.969 336.87 200.401 336.87C183.832 336.87 170.401 350.302 170.401 366.87C170.401 383.439 183.832 396.87 200.401 396.87Z" fill="#F2F2F2"/>
<path d="M169.909 412.87C178.599 423.17 187.999 497.426 198.029 506.406L668.609 507.406C678.639 498.426 688.039 424.17 696.729 413.87L169.909 412.87Z" fill="#E6E6E6"/>
<path d="M316.599 325.646V428.206H388.449V325.646C388.452 324.131 387.466 322.793 386.019 322.346C385.687 322.236 385.339 322.182 384.989 322.186H320.069C318.156 322.182 316.603 323.73 316.599 325.642L316.599 325.646ZM344.639 360.886C344.678 356.65 348.144 353.247 352.38 353.287C356.561 353.325 359.941 356.705 359.979 360.886V372.786C359.959 377.022 356.509 380.439 352.273 380.419C348.065 380.399 344.659 376.993 344.639 372.786V360.886Z" fill="#3F3D56"/>
<path d="M203.569 171.126V358.386C203.573 363.355 207.6 367.382 212.569 367.386H490.069C495.038 367.382 499.065 363.355 499.069 358.386V171.126C499.057 166.162 495.033 162.142 490.069 162.136H212.569C207.605 162.142 203.581 166.162 203.569 171.126Z" fill="#3F3D56"/>
<path d="M210.079 173.456V356.076C210.084 358.73 212.235 360.881 214.889 360.886H487.759C490.414 360.881 492.565 358.73 492.569 356.076V173.456C492.569 170.798 490.417 168.642 487.759 168.636H214.889C212.231 168.642 210.079 170.798 210.079 173.456Z" fill="#2E44FF"/>
<path d="M265.719 439.086C266.282 439.791 267.137 440.2 268.039 440.196H430.379C432.029 440.194 433.365 438.855 433.363 437.205C433.362 437 433.341 436.796 433.299 436.596L430.779 424.626C430.567 423.634 429.867 422.817 428.919 422.456C428.581 422.323 428.222 422.255 427.859 422.256H270.549C270.186 422.255 269.827 422.323 269.489 422.456C268.541 422.817 267.841 423.634 267.629 424.626L265.109 436.596C264.927 437.475 265.152 438.39 265.719 439.086Z" fill="#3F3D56"/>
<path d="M223.662 193.792H478.985C479.546 193.78 479.991 193.316 479.979 192.755C479.967 192.211 479.529 191.774 478.985 191.762H223.662C223.101 191.774 222.657 192.238 222.669 192.799C222.681 193.343 223.118 193.781 223.662 193.792Z" fill="#3F3D56"/>
<path d="M795.943 392.196C795.923 392.146 795.913 392.106 795.893 392.066C795.507 391.026 795.056 390.011 794.543 389.026C791.633 383.556 794.713 375.156 791.433 365.876C786.133 350.836 779.673 341.966 770.203 334.016C769.923 333.776 769.643 333.546 769.353 333.306L769.343 333.296C763.023 328.106 755.403 323.256 745.943 317.216C743.973 315.956 737.163 319.596 737.323 313.356C737.503 306.426 737.693 299.246 734.293 294.766L734.073 294.476L733.723 294.386C722.066 292.081 710.176 291.164 698.303 291.656H698.293C693.252 291.844 688.246 292.578 683.363 293.846C683.003 293.946 682.643 294.046 682.293 294.166C682.023 294.236 681.753 294.326 681.483 294.416L681.263 294.496L681.093 294.656C677.803 297.946 677.043 303.846 676.683 309.996V310.006C676.613 311.126 676.553 312.246 676.503 313.366C676.223 319.346 661.793 324.176 656.293 326.886C645.963 331.986 647.521 343.87 647.401 343.87C647.401 343.87 630.033 379.526 629.823 415.636C629.813 417.646 629.8 419.666 629.783 421.696C629.663 438.516 629.343 455.626 628.083 471.216C627.533 477.916 626.823 484.326 625.873 490.316C621.253 519.486 600.323 495.266 590.313 514.676C590.642 516.585 591.196 518.448 591.963 520.226C593.113 520.906 594.293 521.566 595.463 522.226C600.653 525.116 605.94 527.813 611.323 530.316C611.623 530.456 611.923 530.596 612.223 530.726C622.097 535.295 632.275 539.178 642.683 542.346C644.713 542.966 646.743 543.556 648.793 544.116C666.927 549.122 685.599 551.919 704.403 552.446C704.479 552.438 704.556 552.434 704.633 552.436C726.872 551.821 748.965 548.637 770.473 542.946C770.773 542.866 771.073 542.786 771.373 542.706C772.783 542.326 774.183 541.946 775.583 541.546C787.961 538.024 800.088 533.675 811.883 528.526C811.895 528.966 811.939 529.403 812.013 529.836C812.023 529.978 812.043 530.118 812.073 530.256C812.093 530.096 812.113 529.936 812.123 529.776C812.183 529.306 812.233 528.826 812.283 528.346C818.403 468.666 805.693 417.996 795.943 392.196Z" fill="#CCCCCC"/>
<path d="M707.419 286.474C739.49 286.474 765.49 260.474 765.49 228.403C765.49 196.331 739.49 170.332 707.419 170.332C675.347 170.332 649.348 196.331 649.348 228.403C649.348 260.474 675.347 286.474 707.419 286.474Z" fill="#FFB6B6"/>
<path d="M711.718 287.52C720.571 285.938 729.274 283.603 737.73 280.54C746.032 277.098 762.611 259.158 766.341 249.579C769.112 242.462 769.746 232.069 769.79 224.603C769.977 204.61 761.678 185.476 746.953 171.95C744.104 169.115 740.54 167.102 736.64 166.126C736.299 166.064 735.952 166.017 735.604 165.988C730.13 165.632 724.886 163.648 720.547 160.29C719.699 159.606 718.803 158.983 717.866 158.427C713.193 155.822 707.971 154.36 702.625 154.16C693.943 153.559 682.427 158.078 668.4 167.598C661.353 172.38 652.714 172.829 645.973 172.686C645.207 172.687 644.499 173.095 644.114 173.757C641.865 176.876 638.52 179.029 634.749 179.782C632.457 180.334 630.655 184.007 628.537 188.752C628.056 189.829 627.495 191.086 627.067 191.868L626.74 190.59L625.713 192.286C620.43 201.012 623.221 212.368 631.947 217.65C634.292 219.07 636.923 219.95 639.651 220.226C642.097 220.392 644.553 220.307 646.982 219.974C648.463 219.822 649.994 219.664 651.485 219.633C661.279 219.727 670.303 224.959 675.25 233.412C677.307 236.869 681.775 238.004 685.232 235.948C685.774 235.625 686.273 235.233 686.714 234.781C689.302 231.812 693.179 230.297 697.094 230.725C698.836 231.293 700.329 232.442 701.324 233.981C702.501 235.681 704.157 236.993 706.082 237.748C712.529 239.628 715.539 252.93 715.608 264.494C715.675 275.641 713.181 284.2 709.543 285.308C706.743 286.16 706.456 286.427 706.348 286.973L706.251 287.461L706.654 287.822C708.344 288.087 710.071 287.984 711.718 287.52Z" fill="#2F2E41"/>
<path d="M506.191 467.056C517.31 467.056 526.323 464.18 526.323 460.631C526.323 457.083 517.31 454.206 506.191 454.206C495.072 454.206 486.059 457.083 486.059 460.631C486.059 464.18 495.072 467.056 506.191 467.056Z" fill="#3F3D56"/>
<path d="M506.191 462.772C517.31 462.772 526.323 459.896 526.323 456.347C526.323 452.799 517.31 449.922 506.191 449.922C495.072 449.922 486.059 452.799 486.059 456.347C486.059 459.896 495.072 462.772 506.191 462.772Z" fill="#3F3D56"/>
<path d="M502.651 460.653L505.651 460.608L504.824 404.589C504.579 385.988 514.241 368.66 530.193 359.089L587.452 324.863L585.913 322.288L528.654 356.515C511.783 366.636 501.565 384.962 501.824 404.634L502.651 460.653Z" fill="#3F3D56"/>
<path d="M585.965 350.117C581.944 350.117 578.684 346.857 578.684 342.835V297.43C578.684 293.409 581.944 290.148 585.966 290.148C589.987 290.148 593.247 293.409 593.247 297.43V342.835C593.247 346.857 589.987 350.117 585.965 350.117Z" fill="#2E44FF"/>
<path d="M490.737 384.553C493.26 393.782 502.787 399.219 512.016 396.695C513 396.426 513.959 396.071 514.88 395.633L558.063 439.513L564.745 408.226L522.713 371.354C518.021 362.957 507.409 359.953 499.012 364.646C491.985 368.572 488.564 376.802 490.737 384.553Z" fill="#FFB6B6"/>
<path d="M716.301 338.735L716.027 338.582L684.541 327.754C676.454 324.973 667.563 325.799 660.127 330.022C658.42 330.987 656.815 332.122 655.336 333.409L655.326 333.411C650.392 337.673 646.992 343.436 645.648 349.816L629.109 428.333L595.858 410.413L582.308 407.177L569.974 394.799L539.173 382.258L537.463 384.299L521.965 402.823L520.748 404.279L554.873 453.649L570.169 455.314L574.454 462.937L574.756 463.075L587.296 468.727L640.778 492.823L666.677 473.002L670.73 469.891C704.236 438.848 719.898 413.877 726.438 394.857C729.898 384.811 730.81 376.439 730.467 369.69C729.402 348.833 716.833 339.135 716.301 338.735Z" fill="#CCCCCC"/>
<path d="M745.901 357.87H730.901C687.547 357.87 652.401 393.016 652.401 436.37C638.409 453.674 639.265 475.403 652.401 500.79L609.406 482.865C603.283 480.328 596.263 483.235 593.726 489.358C591.197 495.462 594.078 502.462 600.171 505.017L652.401 526.792V530.846C652.401 543.562 662.709 553.87 675.425 553.87H801.378C814.093 553.87 824.401 543.562 824.401 530.846C833.739 496.589 839.584 463.366 824.401 436.37C824.401 393.016 789.256 357.87 745.901 357.87Z" fill="#3F3D56"/>
<path d="M302.449 245.905L332.306 246.35C333.135 246.322 333.783 245.627 333.754 244.798C333.727 244.01 333.094 243.378 332.306 243.35L302.449 242.905C301.621 242.934 300.972 243.629 301.001 244.457C301.028 245.245 301.661 245.878 302.449 245.905Z" fill="white"/>
<path d="M338.421 277.301C341.954 280.028 347.633 277.642 348.619 273.43C349.768 268.521 345.481 263.901 340.616 264.008C335.204 264.126 331.38 268.678 330.794 273.8C330.335 278.523 332.261 283.164 335.929 286.175C339.831 289.589 345.176 290.837 350.187 289.505C352.035 288.96 351.248 286.064 349.389 286.612C342.804 288.31 336.048 284.526 334.055 278.023C333.114 274.485 334.003 270.066 337.301 268.042C340.265 266.222 344.462 266.883 345.592 270.528C346.263 272.448 345.25 274.549 343.33 275.22C342.183 275.62 340.913 275.43 339.935 274.711C339.219 274.298 338.304 274.538 337.883 275.249C337.485 275.967 337.722 276.871 338.421 277.301Z" fill="white"/>
<path d="M369.029 263.763C366.018 267.135 363.32 270.775 360.972 274.638L357.466 265.372C356.789 263.583 353.888 264.359 354.573 266.17C356.063 270.108 357.553 274.047 359.043 277.985C357.327 281.16 355.844 284.455 354.604 287.845C353.941 289.661 356.839 290.444 357.497 288.642C358.362 286.291 359.352 283.987 360.464 281.742C361.829 285.35 363.194 288.958 364.559 292.566C365.236 294.355 368.137 293.579 367.452 291.769C365.744 287.254 364.036 282.739 362.328 278.224C364.817 273.806 367.775 269.669 371.15 265.884C372.434 264.449 370.32 262.32 369.029 263.763Z" fill="white"/>
<path d="M315.756 244.44L317.854 289.407C317.944 291.329 320.944 291.34 320.854 289.407L318.756 244.44C318.667 242.518 315.666 242.507 315.756 244.44Z" fill="white"/>
<path d="M389.756 267.87H382.199C382.18 266.351 382.16 264.833 382.13 263.318C382.091 261.39 379.091 261.383 379.13 263.318C379.16 264.835 379.191 266.352 379.221 267.87H372.748C371.919 267.898 371.271 268.593 371.3 269.422C371.327 270.21 371.96 270.842 372.748 270.87H379.282C379.295 271.507 379.308 272.145 379.32 272.783C379.278 275.734 379.405 278.686 379.7 281.623C380.34 286.338 383.536 291.697 388.997 291.234C390.906 291.072 390.923 288.071 388.997 288.234C384.069 288.652 382.654 282.861 382.469 279.07C382.335 276.341 382.278 273.606 382.238 270.87H389.756C390.584 270.841 391.232 270.146 391.203 269.317C391.176 268.529 390.543 267.897 389.756 267.87Z" fill="#F2F2F2"/>
<path d="M78.6716 407.59C77.6995 407.594 76.7299 407.686 75.7743 407.864L59.8727 307.198L75.8032 210.287C77.99 196.986 68.9797 184.43 55.6781 182.243C43.6742 180.269 32.0495 187.436 28.4211 199.048C22.4492 218.157 19.494 238.082 19.6621 258.102L20.2177 324.193L62.6099 425.695C63.6721 434.568 71.7263 440.9 80.5994 439.838C89.4726 438.775 95.8047 430.721 94.7425 421.848C93.7685 413.712 86.866 407.588 78.6716 407.59Z" fill="#FFB8B8"/>
<path d="M49.5486 175.81C28.3609 175.845 11.1938 193.012 11.1587 214.2L18.9587 293L19.6587 300.06L20.0187 300.08L47.4087 301.44H47.4187L60.7087 302.1L62.9887 302.21L65.5987 293L87.9387 214.2C87.916 193.007 70.7416 175.833 49.5486 175.81Z" fill="#E6E6E6"/>
<path d="M50.7288 554L38.1288 515.34C38.1288 515.34 15.0288 491.85 44.6588 429.49C45.3088 428.11 45.9888 426.72 46.6988 425.3C47.9388 422.81 49.2655 420.256 50.6788 417.64C52.8188 413.84 54.9888 409.91 57.4388 405.85L59.6788 406.25L61.7988 406.62L69.0488 407.9H69.0588L174.049 426.4C174.049 426.4 172.119 435.02 171.079 444.27C170.249 451.86 169.979 459.54 171.939 462.79C176.179 470.05 170.449 489.67 170.449 489.67C170.449 489.67 170.769 491.57 171.309 494.93V494.94C171.839 498.21 172.579 502.85 173.419 508.47C173.459 508.85 173.509 509.23 173.569 509.61C174.899 518.71 176.489 530.2 177.909 542.55C178.349 546.3 178.769 550.13 179.169 554L50.7288 554Z" fill="#2F2E41"/>
<path d="M20.8034 196.192C23.4399 188.921 29.5995 183.495 37.1449 181.795C42.6484 180.231 48.3763 179.605 54.0879 179.944C70.808 180.602 66.5921 143.144 83.1483 145.569C83.1483 145.569 98.7313 140.008 110.924 150.199C122 159.456 129.636 184.635 132.479 183.202C133.083 182.904 134.534 182.935 136.564 183.205C160.287 186.353 177.359 207.635 175.949 231.525L174.744 251.947C174.744 251.947 183.262 264.77 170.901 287.407L155.329 357C155.329 357 194.29 434.168 176.329 450C158.368 465.832 87.945 441.145 87.945 441.145C87.945 441.145 48.4534 428.937 40.1245 423.646C22.5313 412.469 45.017 386.985 58.9194 388.186C59.6672 385.222 58.6826 382.089 56.3734 380.085C52.531 377.631 56.8362 372.076 57.1603 371.567C56.7898 371.937 53.8734 374.993 51.6514 368.558C49.4295 362.123 56.2807 354.022 56.2807 354.022L36.9304 312.358L21.7002 279.444L19.8483 275.648L23.0252 255.169L22.7279 254.554C15.9585 240.441 14.4603 224.372 18.5041 209.25C19.9711 203.689 21.0269 198.622 20.8034 196.192Z" fill="#E6E6E6"/>
<path d="M179.169 554H172.489C174.339 550.03 176.169 546.18 177.909 542.55C178.349 546.3 178.769 550.13 179.169 554Z" fill="#2F2E41"/>
<path d="M310.29 321.054C309.699 321.825 309.177 322.647 308.733 323.512L219.403 274.454L152.531 202.527C143.352 192.654 127.908 192.092 118.035 201.271C109.126 209.554 107.676 223.132 114.635 233.11C126.089 249.531 140.033 264.066 155.966 276.19L208.562 316.213L314.772 344.837C322.438 349.43 332.375 346.938 336.968 339.272C341.561 331.606 339.069 321.668 331.403 317.076C324.373 312.864 315.305 314.573 310.29 321.054Z" fill="#FFB8B8"/>
<path d="M189.374 301.609L215.892 270.676L217.369 268.947L163.052 195.336C160.704 193.508 158.147 191.966 155.434 190.744L155.427 190.737C136.128 181.965 113.373 190.499 104.602 209.798C97.238 225.998 101.976 245.136 116.047 256.03L131.899 265.971L189.137 301.881L189.374 301.609Z" fill="#E6E6E6"/>
<path d="M141.779 111.91C128.24 136.668 97.1933 145.762 72.4351 132.223C47.6768 118.683 38.5823 87.6367 52.1218 62.8784C65.6614 38.1202 96.7079 29.0257 121.466 42.5652C131.866 48.2526 139.965 57.3788 144.376 68.3809C144.609 68.9656 144.82 69.5504 145.03 70.1585C149.971 83.8996 148.787 99.0988 141.779 111.91Z" fill="#FFB6B6"/>
<path d="M149.124 70.158C146.925 64.0065 147.884 67.2109 145.662 61.0827C147.112 66.5092 144.82 69.5499 145.031 70.158H84.1934V34.7925C102.017 27.7287 119.442 21.7175 129.967 34.7925C149.499 34.7934 165.332 50.6266 165.333 70.1581L149.124 70.158Z" fill="#2F2E41"/>
<path d="M127.559 168.467C127.512 167.812 127.442 167.133 127.348 166.479C126.531 161.674 125.206 156.969 123.395 152.445C121.641 147.509 119.863 142.55 118.086 137.615C120.375 146.574 119.677 156.035 116.097 164.56C105.829 156.561 112.308 138.27 98.8824 138.27C66.6044 138.27 33.3906 112.097 33.3906 79.7954C33.3906 47.5172 47.2374 23.3789 79.5155 23.3789C111.817 23.3789 138.014 38.1612 138.645 70.4394C98.8825 79.7955 135.067 165.192 127.559 168.467Z" fill="#2F2E41"/>
<path d="M37.4239 74.8478C58.0925 74.8478 74.8478 58.0925 74.8478 37.4239C74.8478 16.7552 58.0925 0 37.4239 0C16.7552 0 0 16.7552 0 37.4239C0 58.0925 16.7552 74.8478 37.4239 74.8478Z" fill="#2F2E41"/>
<path d="M234.723 184.923C237.218 184.923 239.241 182.855 239.241 180.304C239.241 177.753 237.218 175.686 234.723 175.686C232.227 175.686 230.205 177.753 230.205 180.304C230.205 182.855 232.227 184.923 234.723 184.923Z" fill="#3F3D56"/>
<path d="M250.331 184.923C252.826 184.923 254.849 182.855 254.849 180.304C254.849 177.753 252.826 175.686 250.331 175.686C247.835 175.686 245.812 177.753 245.812 180.304C245.812 182.855 247.835 184.923 250.331 184.923Z" fill="#3F3D56"/>
<path d="M265.938 184.923C268.434 184.923 270.457 182.855 270.457 180.304C270.457 177.753 268.434 175.686 265.938 175.686C263.443 175.686 261.42 177.753 261.42 180.304C261.42 182.855 263.443 184.923 265.938 184.923Z" fill="#3F3D56"/>
<path d="M283.736 183.954C283.597 183.954 283.458 183.9 283.354 183.793L280.305 180.677C280.102 180.469 280.102 180.138 280.305 179.93L283.354 176.814C283.561 176.603 283.899 176.6 284.109 176.805C284.32 177.012 284.324 177.35 284.118 177.561L281.435 180.303L284.118 183.046C284.324 183.257 284.32 183.595 284.109 183.802C284.005 183.903 283.871 183.954 283.736 183.954Z" fill="#3F3D56"/>
<path d="M288.859 183.954C288.724 183.954 288.589 183.904 288.485 183.802C288.274 183.596 288.27 183.258 288.477 183.047L291.159 180.304L288.477 177.561C288.27 177.35 288.274 177.012 288.485 176.806C288.695 176.599 289.034 176.603 289.24 176.814L292.289 179.93C292.492 180.138 292.492 180.47 292.289 180.677L289.24 183.794C289.136 183.901 288.997 183.954 288.859 183.954Z" fill="#3F3D56"/>
<path d="M458.311 176.22H452.642C451.996 176.22 451.472 176.743 451.472 177.39V183.064C451.472 183.71 451.996 184.234 452.642 184.234H458.311C458.957 184.234 459.486 183.71 459.486 183.064V177.39C459.486 176.743 458.957 176.22 458.311 176.22Z" fill="#3F3D56"/>
<path d="M444.42 176.22H438.752C438.105 176.22 437.582 176.743 437.582 177.39V183.064C437.582 183.71 438.105 184.234 438.752 184.234H444.42C445.067 184.234 445.596 183.71 445.596 183.064V177.39C445.596 176.743 445.067 176.22 444.42 176.22Z" fill="#3F3D56"/>
<path d="M471.401 176.487H465.732C465.086 176.487 464.562 177.011 464.562 177.657V183.331C464.562 183.978 465.086 184.501 465.732 184.501H471.401C472.047 184.501 472.576 183.978 472.576 183.331V177.657C472.576 177.011 472.047 176.487 471.401 176.487Z" fill="#3F3D56"/>
<path d="M377.222 178.646H327.295C326.504 178.646 325.869 179.287 325.869 180.072C325.869 180.857 326.504 181.499 327.295 181.499H377.222C378.007 181.499 378.648 180.857 378.648 180.072C378.648 179.287 378.007 178.646 377.222 178.646Z" fill="#3F3D56"/>
</g>
<defs>
<clipPath id="clip0_1484_12750">
<rect width="833.723" height="554" fill="white"/>
</clipPath>
</defs>
</svg>
