<svg width="786" height="508" viewBox="0 0 786 508" fill="none" xmlns="http://www.w3.org/2000/svg">
<g clip-path="url(#clip0_1484_12978)">
<path d="M548.496 342.431C467.722 342.435 397.443 282.179 387.061 199.994L389.045 199.743C399.299 280.914 468.722 340.426 548.498 340.431C555.276 340.431 562.047 340.004 568.771 339.152C656.757 328.037 719.295 247.413 708.18 159.427L710.165 159.176C721.418 248.255 658.102 329.883 569.022 341.136C562.214 341.998 555.358 342.43 548.496 342.431Z" fill="#3F3D56"/>
<path d="M612.907 80.6378C607.644 66.725 608.124 51.2914 614.24 37.7321C620.357 24.1729 631.609 13.5987 645.522 8.33579C659.434 3.0729 674.868 3.55241 688.427 9.66881C701.987 15.7852 712.561 27.0375 717.824 40.9503L715.952 41.6583C710.877 28.2418 700.68 17.3908 687.605 11.4925C674.529 5.59423 659.646 5.13177 646.23 10.2069C632.813 15.282 621.962 25.479 616.064 38.5545C610.166 51.6301 609.703 66.5133 614.778 79.9298L612.907 80.6378Z" fill="#3F3D56"/>
<path d="M775.379 178.53H673.714C670.99 178.527 668.377 177.443 666.451 175.517C664.524 173.59 663.441 170.978 663.438 168.253V33.6371C663.441 30.9125 664.524 28.3004 666.451 26.3738C668.377 24.4472 670.99 23.3634 673.714 23.3604H775.379C778.104 23.3634 780.716 24.4472 782.643 26.3738C784.569 28.3004 785.653 30.9125 785.656 33.6371V168.253C785.653 170.978 784.569 173.59 782.643 175.517C780.716 177.443 778.104 178.527 775.379 178.53Z" fill="#E6E6E6"/>
<path d="M734.986 170.465H680.861C678.309 170.462 675.863 169.447 674.058 167.643C672.254 165.838 671.239 163.392 671.236 160.84V41.0503C671.239 38.4985 672.254 36.0521 674.058 34.2478C675.863 32.4435 678.309 31.4286 680.861 31.4258H768.233C770.785 31.4286 773.231 32.4435 775.036 34.2479C776.84 36.0522 777.855 38.4986 777.858 41.0503V127.594C777.845 138.96 773.324 149.857 765.287 157.894C757.25 165.931 746.353 170.452 734.986 170.465Z" fill="white"/>
<path d="M759.517 91.4976H689.577C688.972 91.4976 688.392 91.2572 687.964 90.8295C687.536 90.4017 687.296 89.8215 687.296 89.2166C687.296 88.6116 687.536 88.0314 687.964 87.6036C688.392 87.1759 688.972 86.9355 689.577 86.9355H759.517C760.122 86.9355 760.703 87.1759 761.13 87.6036C761.558 88.0314 761.798 88.6116 761.798 89.2166C761.798 89.8215 761.558 90.4017 761.13 90.8295C760.703 91.2572 760.122 91.4976 759.517 91.4976Z" fill="#E4E4E4"/>
<path d="M759.517 100.511H689.577C688.973 100.51 688.393 100.269 687.967 99.8416C687.54 99.414 687.3 98.8345 687.3 98.2303C687.3 97.6262 687.54 97.0467 687.967 96.619C688.393 96.1914 688.973 95.9505 689.577 95.9492H759.517C760.122 95.9492 760.702 96.1895 761.13 96.6173C761.558 97.0451 761.798 97.6254 761.798 98.2303C761.798 98.8353 761.558 99.4155 761.13 99.8433C760.702 100.271 760.122 100.511 759.517 100.511Z" fill="#E4E4E4"/>
<path d="M719.894 109.525H689.577C688.972 109.525 688.391 109.285 687.964 108.857C687.536 108.429 687.295 107.849 687.295 107.244C687.295 106.639 687.536 106.059 687.964 105.631C688.391 105.203 688.972 104.963 689.577 104.963H719.894C720.499 104.963 721.079 105.203 721.507 105.631C721.935 106.059 722.175 106.639 722.175 107.244C722.175 107.849 721.935 108.429 721.507 108.857C721.079 109.285 720.499 109.525 719.894 109.525Z" fill="#E4E4E4"/>
<path d="M759.517 54.6899H689.577C688.972 54.6899 688.392 54.4496 687.964 54.0218C687.536 53.5941 687.296 53.0139 687.296 52.4089C687.296 51.804 687.536 51.2238 687.964 50.796C688.392 50.3683 688.972 50.1279 689.577 50.1279H759.517C760.122 50.1279 760.703 50.3683 761.13 50.796C761.558 51.2238 761.798 51.804 761.798 52.4089C761.798 53.0139 761.558 53.5941 761.13 54.0218C760.703 54.4496 760.122 54.6899 759.517 54.6899Z" fill="#E4E4E4"/>
<path d="M759.517 63.7038H689.577C688.972 63.7038 688.391 63.4635 687.964 63.0357C687.536 62.6079 687.295 62.0277 687.295 61.4227C687.295 60.8177 687.536 60.2375 687.964 59.8097C688.391 59.3819 688.972 59.1416 689.577 59.1416H759.517C760.122 59.1416 760.702 59.3819 761.13 59.8097C761.558 60.2375 761.798 60.8177 761.798 61.4227C761.798 62.0277 761.558 62.6079 761.13 63.0357C760.702 63.4635 760.122 63.7038 759.517 63.7038Z" fill="#E4E4E4"/>
<path d="M719.894 72.7165H689.577C688.973 72.7153 688.393 72.4744 687.967 72.0467C687.54 71.6191 687.3 71.0396 687.3 70.4354C687.3 69.8313 687.54 69.2518 687.967 68.8241C688.393 68.3965 688.973 68.1556 689.577 68.1543H719.894C720.498 68.1556 721.077 68.3965 721.504 68.8241C721.931 69.2518 722.171 69.8313 722.171 70.4354C722.171 71.0396 721.931 71.6191 721.504 72.0467C721.077 72.4744 720.498 72.7153 719.894 72.7165Z" fill="#E4E4E4"/>
<path d="M759.517 129.594H689.577C688.972 129.594 688.392 129.354 687.964 128.926C687.536 128.498 687.296 127.918 687.296 127.313C687.296 126.708 687.536 126.128 687.964 125.7C688.392 125.273 688.972 125.032 689.577 125.032H759.517C760.122 125.032 760.703 125.273 761.13 125.7C761.558 126.128 761.798 126.708 761.798 127.313C761.798 127.918 761.558 128.498 761.13 128.926C760.703 129.354 760.122 129.594 759.517 129.594Z" fill="#2E44FF"/>
<path d="M700.517 138.607H689.577C688.973 138.606 688.393 138.365 687.967 137.937C687.54 137.51 687.3 136.93 687.3 136.326C687.3 135.722 687.54 135.142 687.967 134.715C688.393 134.287 688.973 134.046 689.577 134.045H700.517C701.122 134.045 701.702 134.285 702.13 134.713C702.558 135.141 702.798 135.721 702.798 136.326C702.798 136.931 702.558 137.511 702.13 137.939C701.702 138.367 701.122 138.607 700.517 138.607Z" fill="#2E44FF"/>
<path d="M719.894 147.621H689.577C688.972 147.621 688.391 147.38 687.964 146.953C687.536 146.525 687.295 145.945 687.295 145.34C687.295 144.735 687.536 144.155 687.964 143.727C688.391 143.299 688.972 143.059 689.577 143.059H719.894C720.499 143.059 721.079 143.299 721.507 143.727C721.935 144.155 722.175 144.735 722.175 145.34C722.175 145.945 721.935 146.525 721.507 146.953C721.079 147.38 720.499 147.621 719.894 147.621Z" fill="#2E44FF"/>
<path d="M388.577 174.017C379.767 150.695 380.58 124.829 390.837 102.105C401.094 79.3818 419.955 61.6617 443.273 52.8409C466.591 44.0202 492.458 44.8208 515.186 55.0668C537.914 65.3127 555.643 84.1653 564.475 107.479L562.604 108.187C558.331 96.8794 551.872 86.5238 543.597 77.7124C535.321 68.901 525.39 61.8063 514.372 56.8336C503.353 51.861 491.463 49.1077 479.381 48.7312C467.298 48.3547 455.26 50.3622 443.953 54.6392C432.647 58.9162 422.294 65.3787 413.485 73.6578C404.677 81.9368 397.586 91.8701 392.617 102.89C387.648 113.91 384.9 125.801 384.527 137.884C384.155 149.967 386.167 162.004 390.448 173.309L388.577 174.017Z" fill="#3F3D56"/>
<path d="M563.397 20.6868C568.669 20.6868 572.943 16.4129 572.943 11.1407C572.943 5.86863 568.669 1.59473 563.397 1.59473C558.125 1.59473 553.851 5.86863 553.851 11.1407C553.851 16.4129 558.125 20.6868 563.397 20.6868Z" fill="#E6E6E6"/>
<path d="M576.397 295.687C581.669 295.687 585.943 291.413 585.943 286.141C585.943 280.869 581.669 276.595 576.397 276.595C571.125 276.595 566.851 280.869 566.851 286.141C566.851 291.413 571.125 295.687 576.397 295.687Z" fill="#E6E6E6"/>
<path d="M331.397 68.6868C336.669 68.6868 340.943 64.4129 340.943 59.1407C340.943 53.8686 336.669 49.5947 331.397 49.5947C326.125 49.5947 321.851 53.8686 321.851 59.1407C321.851 64.4129 326.125 68.6868 331.397 68.6868Z" fill="#E6E6E6"/>
<path d="M463.191 451.388H244.658C238.801 451.381 233.186 449.052 229.045 444.91C224.903 440.769 222.574 435.154 222.567 429.298V139.935C222.574 134.078 224.903 128.463 229.045 124.322C233.186 120.181 238.801 117.851 244.658 117.845H463.191C469.047 117.851 474.662 120.181 478.803 124.322C482.945 128.463 485.274 134.078 485.281 139.935V429.298C485.274 435.154 482.945 440.769 478.803 444.911C474.662 449.052 469.047 451.381 463.191 451.388Z" fill="#E6E6E6"/>
<path d="M379.783 433.477H260.019C254.686 433.471 249.573 431.35 245.803 427.579C242.032 423.808 239.911 418.696 239.905 413.363V155.87C239.911 150.537 242.032 145.424 245.803 141.654C249.573 137.883 254.686 135.762 260.019 135.756H447.829C453.162 135.762 458.274 137.883 462.045 141.654C465.816 145.424 467.937 150.537 467.943 155.87V345.317C467.916 368.69 458.62 391.099 442.092 407.626C425.565 424.154 403.156 433.451 379.783 433.477Z" fill="white"/>
<path d="M429.094 185.19H278.754C278.109 185.191 277.471 185.065 276.875 184.819C276.28 184.573 275.738 184.212 275.282 183.756C274.826 183.301 274.464 182.76 274.218 182.165C273.971 181.569 273.844 180.931 273.844 180.287C273.844 179.642 273.971 179.004 274.218 178.409C274.464 177.814 274.826 177.273 275.282 176.817C275.738 176.362 276.28 176.001 276.875 175.755C277.471 175.509 278.109 175.383 278.754 175.384H429.094C429.738 175.383 430.376 175.509 430.972 175.755C431.568 176.001 432.109 176.362 432.565 176.817C433.021 177.273 433.383 177.814 433.63 178.409C433.877 179.004 434.004 179.642 434.004 180.287C434.004 180.931 433.877 181.569 433.63 182.165C433.383 182.76 433.021 183.301 432.565 183.756C432.109 184.212 431.568 184.573 430.972 184.819C430.376 185.065 429.738 185.191 429.094 185.19Z" fill="#2E44FF"/>
<path d="M429.094 204.564H278.754C277.453 204.564 276.206 204.048 275.287 203.128C274.367 202.209 273.851 200.962 273.851 199.661C273.851 198.361 274.367 197.114 275.287 196.194C276.206 195.274 277.453 194.758 278.754 194.758H429.094C430.394 194.758 431.641 195.274 432.561 196.194C433.48 197.114 433.997 198.361 433.997 199.661C433.997 200.962 433.48 202.209 432.561 203.128C431.641 204.048 430.394 204.564 429.094 204.564Z" fill="#2E44FF"/>
<path d="M343.923 223.938H278.754C277.453 223.938 276.206 223.422 275.287 222.502C274.367 221.583 273.851 220.336 273.851 219.035C273.851 217.735 274.367 216.488 275.287 215.568C276.206 214.648 277.453 214.132 278.754 214.132H343.923C345.223 214.132 346.47 214.648 347.39 215.568C348.309 216.488 348.826 217.735 348.826 219.035C348.826 220.336 348.309 221.583 347.39 222.502C346.47 223.422 345.223 223.938 343.923 223.938Z" fill="#2E44FF"/>
<path d="M429.094 264.516H278.754C278.109 264.517 277.471 264.391 276.875 264.145C276.28 263.899 275.738 263.538 275.282 263.082C274.826 262.627 274.464 262.086 274.218 261.491C273.971 260.896 273.844 260.258 273.844 259.613C273.844 258.969 273.971 258.33 274.218 257.735C274.464 257.14 274.826 256.599 275.282 256.144C275.738 255.688 276.28 255.327 276.875 255.081C277.471 254.835 278.109 254.709 278.754 254.71H429.094C429.738 254.709 430.376 254.835 430.972 255.081C431.568 255.327 432.109 255.688 432.565 256.144C433.021 256.599 433.383 257.14 433.63 257.735C433.877 258.33 434.004 258.969 434.004 259.613C434.004 260.258 433.877 260.896 433.63 261.491C433.383 262.086 433.021 262.627 432.565 263.082C432.109 263.538 431.568 263.899 430.972 264.145C430.376 264.391 429.738 264.517 429.094 264.516Z" fill="#E4E4E4"/>
<path d="M429.094 283.891H278.754C277.453 283.891 276.206 283.374 275.287 282.454C274.367 281.535 273.851 280.288 273.851 278.987C273.851 277.687 274.367 276.44 275.287 275.52C276.206 274.601 277.453 274.084 278.754 274.084H429.094C430.394 274.084 431.641 274.601 432.561 275.52C433.48 276.44 433.997 277.687 433.997 278.987C433.997 280.288 433.48 281.535 432.561 282.454C431.641 283.374 430.394 283.891 429.094 283.891Z" fill="#E4E4E4"/>
<path d="M343.923 303.266H278.754C277.453 303.266 276.206 302.749 275.287 301.829C274.367 300.91 273.851 299.663 273.851 298.362C273.851 297.062 274.367 295.815 275.287 294.895C276.206 293.976 277.453 293.459 278.754 293.459H343.923C345.223 293.459 346.47 293.976 347.39 294.895C348.309 295.815 348.826 297.062 348.826 298.362C348.826 299.663 348.309 300.91 347.39 301.829C346.47 302.749 345.223 303.266 343.923 303.266Z" fill="#E4E4E4"/>
<path d="M429.094 343.843H278.754C278.109 343.844 277.471 343.718 276.875 343.472C276.28 343.226 275.738 342.865 275.282 342.41C274.826 341.954 274.464 341.414 274.218 340.818C273.971 340.223 273.844 339.585 273.844 338.94C273.844 338.296 273.971 337.658 274.218 337.062C274.464 336.467 274.826 335.926 275.282 335.471C275.738 335.015 276.28 334.654 276.875 334.408C277.471 334.162 278.109 334.036 278.754 334.037H429.094C429.738 334.036 430.376 334.162 430.972 334.408C431.568 334.654 432.109 335.015 432.565 335.471C433.021 335.926 433.383 336.467 433.63 337.062C433.877 337.658 434.004 338.296 434.004 338.94C434.004 339.585 433.877 340.223 433.63 340.818C433.383 341.414 433.021 341.954 432.565 342.41C432.109 342.865 431.568 343.226 430.972 343.472C430.376 343.718 429.738 343.844 429.094 343.843Z" fill="#E4E4E4"/>
<path d="M429.094 363.217H278.754C277.453 363.217 276.206 362.7 275.287 361.781C274.367 360.861 273.851 359.614 273.851 358.313C273.851 357.013 274.367 355.766 275.287 354.846C276.206 353.927 277.453 353.41 278.754 353.41H429.094C430.394 353.41 431.641 353.927 432.561 354.846C433.48 355.766 433.997 357.013 433.997 358.313C433.997 359.614 433.48 360.861 432.561 361.781C431.641 362.7 430.394 363.217 429.094 363.217Z" fill="#E4E4E4"/>
<path d="M343.922 382.592H278.754C277.455 382.59 276.209 382.073 275.291 381.153C274.373 380.234 273.857 378.988 273.857 377.688C273.857 376.389 274.373 375.143 275.291 374.224C276.209 373.304 277.455 372.787 278.754 372.785H343.922C345.222 372.787 346.467 373.304 347.385 374.224C348.303 375.143 348.819 376.389 348.819 377.688C348.819 378.988 348.303 380.234 347.385 381.153C346.467 382.073 345.222 382.59 343.922 382.592Z" fill="#E4E4E4"/>
<path d="M631.566 236.53H520.896C517.93 236.526 515.087 235.347 512.989 233.249C510.892 231.152 509.712 228.309 509.709 225.343V78.8032C509.712 75.8373 510.892 72.9938 512.989 70.8965C515.087 68.7993 517.93 67.6196 520.896 67.6162H631.566C634.532 67.6196 637.375 68.7993 639.472 70.8965C641.57 72.9938 642.749 75.8373 642.753 78.8032V225.343C642.749 228.309 641.57 231.152 639.472 233.249C637.375 235.347 634.532 236.526 631.566 236.53Z" fill="#E6E6E6"/>
<path d="M590.54 227.706H528.675C525.909 227.703 523.258 226.603 521.302 224.647C519.346 222.691 518.246 220.039 518.243 217.273V86.8735C518.246 84.1075 519.346 81.4557 521.302 79.4998C523.258 77.5439 525.909 76.4436 528.675 76.4404H623.787C626.553 76.4435 629.205 77.5437 631.161 79.4996C633.116 81.4556 634.217 84.1075 634.22 86.8735V184.027C634.207 195.607 629.6 206.71 621.412 214.898C613.223 223.087 602.121 227.693 590.54 227.706Z" fill="white"/>
<path d="M614.299 101.722H538.163C537.505 101.722 536.873 101.46 536.407 100.995C535.942 100.529 535.68 99.8974 535.68 99.2389C535.68 98.5803 535.942 97.9488 536.407 97.4831C536.873 97.0175 537.505 96.7559 538.163 96.7559H614.299C614.957 96.7559 615.589 97.0175 616.054 97.4831C616.52 97.9488 616.781 98.5803 616.781 99.2389C616.781 99.8974 616.52 100.529 616.054 100.995C615.589 101.46 614.957 101.722 614.299 101.722Z" fill="#E4E4E4"/>
<path d="M614.299 111.533H538.163C537.506 111.531 536.875 111.269 536.411 110.804C535.946 110.338 535.685 109.707 535.685 109.05C535.685 108.392 535.946 107.761 536.411 107.295C536.875 106.83 537.506 106.568 538.163 106.566H614.299C614.956 106.568 615.587 106.83 616.051 107.295C616.516 107.761 616.777 108.392 616.777 109.05C616.777 109.707 616.516 110.338 616.051 110.804C615.587 111.269 614.956 111.531 614.299 111.533Z" fill="#E4E4E4"/>
<path d="M571.166 121.345H538.163C537.506 121.344 536.875 121.082 536.411 120.616C535.946 120.151 535.685 119.52 535.685 118.862C535.685 118.204 535.946 117.574 536.411 117.108C536.875 116.642 537.506 116.38 538.163 116.379H571.166C571.824 116.38 572.454 116.642 572.919 117.108C573.383 117.574 573.644 118.204 573.644 118.862C573.644 119.52 573.383 120.151 572.919 120.616C572.454 121.082 571.824 121.344 571.166 121.345Z" fill="#E4E4E4"/>
<path d="M614.299 141.894H538.163C537.505 141.894 536.873 141.632 536.407 141.166C535.942 140.701 535.68 140.069 535.68 139.411C535.68 138.752 535.942 138.121 536.407 137.655C536.873 137.189 537.505 136.928 538.163 136.928H614.299C614.957 136.928 615.589 137.189 616.054 137.655C616.52 138.121 616.781 138.752 616.781 139.411C616.781 140.069 616.52 140.701 616.054 141.166C615.589 141.632 614.957 141.894 614.299 141.894Z" fill="#2E44FF"/>
<path d="M594.299 151.706H538.163C537.505 151.706 536.873 151.444 536.407 150.978C535.942 150.513 535.68 149.881 535.68 149.222C535.68 148.564 535.942 147.932 536.407 147.467C536.873 147.001 537.505 146.739 538.163 146.739H594.299C594.957 146.739 595.589 147.001 596.054 147.467C596.52 147.932 596.782 148.564 596.782 149.222C596.782 149.881 596.52 150.513 596.054 150.978C595.589 151.444 594.957 151.706 594.299 151.706Z" fill="#2E44FF"/>
<path d="M571.166 161.517H538.163C537.506 161.516 536.875 161.254 536.411 160.788C535.946 160.322 535.685 159.692 535.685 159.034C535.685 158.376 535.946 157.745 536.411 157.28C536.875 156.814 537.506 156.552 538.163 156.551H571.166C571.824 156.552 572.454 156.814 572.919 157.28C573.383 157.745 573.644 158.376 573.644 159.034C573.644 159.692 573.383 160.322 572.919 160.788C572.454 161.254 571.824 161.516 571.166 161.517Z" fill="#2E44FF"/>
<path d="M614.299 182.067H538.163C537.505 182.067 536.873 181.805 536.407 181.339C535.942 180.874 535.68 180.242 535.68 179.584C535.68 178.925 535.942 178.294 536.407 177.828C536.873 177.362 537.505 177.101 538.163 177.101H614.299C614.957 177.101 615.589 177.362 616.054 177.828C616.52 178.294 616.781 178.925 616.781 179.584C616.781 180.242 616.52 180.874 616.054 181.339C615.589 181.805 614.957 182.067 614.299 182.067Z" fill="#E4E4E4"/>
<path d="M614.299 191.878H538.163C537.505 191.878 536.873 191.617 536.407 191.151C535.942 190.685 535.68 190.054 535.68 189.395C535.68 188.737 535.942 188.105 536.407 187.639C536.873 187.174 537.505 186.912 538.163 186.912H614.299C614.957 186.912 615.589 187.174 616.054 187.639C616.52 188.105 616.782 188.737 616.782 189.395C616.782 190.054 616.52 190.685 616.054 191.151C615.589 191.617 614.957 191.878 614.299 191.878Z" fill="#E4E4E4"/>
<path d="M571.166 201.69H538.163C537.506 201.689 536.875 201.426 536.411 200.961C535.946 200.495 535.685 199.864 535.685 199.207C535.685 198.549 535.946 197.918 536.411 197.453C536.875 196.987 537.506 196.725 538.163 196.724H571.166C571.824 196.725 572.454 196.987 572.919 197.453C573.383 197.918 573.644 198.549 573.644 199.207C573.644 199.864 573.383 200.495 572.919 200.961C572.454 201.426 571.824 201.689 571.166 201.69Z" fill="#E4E4E4"/>
<path d="M129.886 286.875C130.733 285.953 131.368 284.857 131.746 283.663C132.123 282.469 132.235 281.206 132.072 279.965C131.909 278.723 131.476 277.532 130.803 276.476C130.13 275.42 129.234 274.524 128.177 273.851L135.198 244.23L120.339 249.659L115.951 276.955C114.939 278.805 114.641 280.962 115.113 283.017C115.585 285.072 116.794 286.882 118.512 288.105C120.23 289.327 122.336 289.878 124.432 289.651C126.529 289.424 128.469 288.437 129.886 286.875Z" fill="#FFB8B8"/>
<path d="M165.617 162.748L159.654 178.082C159.654 178.082 162.209 193.416 157.95 196.823C153.691 200.231 155.394 200.231 155.394 202.786C155.248 204.619 154.717 206.401 153.836 208.015C152.956 209.63 151.745 211.041 150.283 212.157C146.876 214.712 131.542 266.677 131.542 266.677H116.208C116.704 262.717 116.704 258.71 116.208 254.75C115.356 248.787 118.764 233.454 120.468 230.898C122.171 228.342 120.468 224.935 120.468 219.824C120.468 214.712 123.875 212.157 123.875 203.638C123.875 195.119 134.098 128.673 133.246 121.006C132.394 113.339 141.764 106.524 141.764 106.524H150.283L165.617 162.748Z" fill="#2E44FF"/>
<path d="M201.696 195.271L215.869 258.521L125.046 252.871L149.743 190.754L201.696 195.271Z" fill="#FFB8B8"/>
<path d="M3.72494 432.994C6.42859 442.769 10.65 452.059 16.2349 460.524C28.7149 479.394 46.5749 493.824 66.2049 505.374C67.5649 506.184 68.9449 506.974 70.3249 507.754H84.0949L84.5749 506.654V506.644L85.1349 505.374L85.2049 505.224L85.2349 505.374L85.7849 507.754H92.5448C93.1048 506.964 93.6548 506.174 94.1948 505.374C94.9848 504.204 95.7448 503.024 96.4648 501.824C97.7358 499.725 98.8714 497.548 99.8647 495.304C99.9848 495.054 100.085 494.804 100.185 494.554L99.7348 494.064L101.605 485.884L97.8448 485.264L101.965 472.554C101.815 472.084 101.645 471.614 101.465 471.144C99.1547 465.294 94.8148 460.924 89.6648 457.254C84.3648 453.464 78.1948 450.424 72.5249 447.264C69.8647 445.774 67.2449 444.204 64.6948 442.544V442.534C61.4348 440.424 58.2715 438.167 55.2048 435.764C55.1525 435.731 55.1024 435.694 55.0548 435.654C55.0124 435.624 54.9723 435.59 54.9348 435.554C41.1866 424.813 29.5527 411.613 20.6248 396.624L20.6209 396.623L20.6176 396.621L20.6155 396.618L20.6148 396.614C20.3148 396.134 20.0349 395.654 19.7549 395.164V395.154C16.0988 388.866 12.952 382.295 10.3449 375.504V375.494C10.1448 374.994 9.9649 374.494 9.7749 373.994C9.5149 374.434 9.2649 374.874 9.0249 375.314L9.02104 375.315L9.01776 375.317L9.01561 375.32L9.01489 375.324C-0.685101 392.674 -1.60514 413.574 3.72494 432.994Z" fill="#F0F0F0"/>
<path d="M9.01498 375.324C8.91784 384.583 9.88072 393.824 11.8848 402.864C12.7855 407.001 13.9071 411.087 15.245 415.104C17.842 422.963 21.2363 430.536 25.3748 437.704C25.6048 438.094 25.8249 438.474 26.0649 438.854V438.864C27.8336 441.846 29.7528 444.737 31.8149 447.524C34.9356 451.964 38.7909 455.84 43.2149 458.984C46.8285 461.372 50.9149 462.951 55.1949 463.614C55.9949 463.764 56.8149 463.874 57.6449 463.974C60.955 464.364 64.3749 464.514 67.6549 465.214C69.3162 465.542 70.9338 466.062 72.475 466.764C77.755 469.214 80.725 474.344 82.025 479.824C82.255 480.784 82.4349 481.754 82.5749 482.724C83.6649 490.174 82.4649 497.914 83.0849 505.374C83.1548 506.164 83.2449 506.964 83.3548 507.754H84.0949L84.5749 506.654V506.644C84.525 506.224 84.4849 505.804 84.4449 505.374C84.2049 501.709 84.1749 498.033 84.3548 494.364C84.3948 492.714 84.4249 491.054 84.4048 489.394C84.3848 488.064 84.3349 486.734 84.2349 485.414V485.404C84.1648 484.584 84.0849 483.774 83.9749 482.964C83.6573 480.484 83.0464 478.05 82.1549 475.714C81.2849 473.307 79.9157 471.111 78.1371 469.27C76.3586 467.43 74.2108 465.986 71.8349 465.034C70.3835 464.49 68.888 464.071 67.3648 463.784C64.015 463.144 60.5549 462.984 57.1849 462.564C56.8249 462.524 56.4649 462.474 56.1148 462.414C55.6648 462.344 55.2249 462.264 54.785 462.184C50.3756 461.401 46.2109 459.596 42.6248 456.914C38.3633 453.54 34.6581 449.518 31.6448 444.994C30.0049 442.644 28.4448 440.244 26.9949 437.774C26.995 437.773 26.9947 437.771 26.9942 437.77C26.9937 437.769 26.993 437.768 26.9921 437.767C26.9911 437.766 26.99 437.765 26.9888 437.765C26.9876 437.764 26.9862 437.764 26.9849 437.764C26.9148 437.644 26.8449 437.534 26.7749 437.414L26.7649 437.394C20.5454 426.765 16.0051 415.239 13.3048 403.224C13.2148 402.784 13.1148 402.344 13.0149 401.904C11.1589 393.229 10.2635 384.375 10.3449 375.504V375.494C10.3449 375.074 10.3548 374.664 10.3648 374.244C10.3848 373.384 9.05488 373.194 9.03498 374.054C9.02498 374.474 9.01499 374.894 9.02499 375.314C9.02366 375.314 9.02234 375.314 9.02111 375.315C9.01988 375.315 9.01877 375.316 9.01783 375.317C9.0169 375.318 9.01616 375.319 9.01567 375.32C9.01517 375.321 9.01494 375.323 9.01498 375.324Z" fill="white"/>
<path d="M26.6359 438.583C22.8253 440.518 18.4509 441.036 14.2937 440.044C10.1366 439.052 6.46744 436.615 3.94155 433.167C3.43286 432.468 4.49572 431.644 5.00509 432.345C7.35126 435.559 10.7693 437.829 14.6423 438.745C18.5154 439.661 22.5882 439.163 26.1258 437.339C26.895 436.944 27.4007 438.19 26.6359 438.583Z" fill="white"/>
<path d="M54.6568 462.582C57.4413 454.301 57.0023 445.275 53.4273 437.303C53.0724 436.514 54.3164 436.005 54.6708 436.793C58.3755 445.096 58.8133 454.49 55.8967 463.101C55.6182 463.922 54.3798 463.399 54.6568 462.582Z" fill="white"/>
<path d="M12.6284 402.027C14.2588 401.586 15.754 400.746 16.9797 399.584C18.2054 398.421 19.1232 396.973 19.6507 395.368C19.9187 394.544 21.157 395.068 20.8907 395.887C20.2997 397.657 19.2841 399.255 17.9327 400.543C16.5813 401.83 14.9353 402.766 13.1384 403.271C12.973 403.332 12.7904 403.329 12.6275 403.261C12.4646 403.193 12.3338 403.065 12.2616 402.904C12.1949 402.739 12.196 402.554 12.2647 402.39C12.3334 402.226 12.4641 402.096 12.6284 402.027Z" fill="white"/>
<path d="M64.6949 442.534V442.544C65.005 449.685 65.898 456.789 67.3648 463.784V463.794C67.4449 464.274 67.5549 464.744 67.6548 465.214C70.0684 476.033 73.4522 486.613 77.7649 496.824C78.9549 499.704 80.2016 502.554 81.505 505.374C81.8648 506.174 82.235 506.964 82.6148 507.754H84.0949L84.5749 506.654V506.644L85.1348 505.374L85.2049 505.224L85.2349 505.374L85.7849 507.754H100.085L102.865 505.374L106.915 501.904L101.255 495.724L100.325 494.704L100.185 494.554L99.7349 494.064L101.605 485.884L97.8448 485.264L101.965 472.554L103.915 466.544L104.405 465.034L107.255 456.244L115.855 457.854L117.255 452.954C114.677 446.979 112.532 440.827 110.835 434.544C110.825 434.494 110.805 434.454 110.795 434.404C106.251 417.482 104.888 399.864 106.775 382.444V382.434C106.835 381.874 106.905 381.304 106.985 380.754V380.734C107.842 373.515 109.287 366.378 111.305 359.394C111.445 358.864 111.605 358.344 111.755 357.824C111.295 358.024 110.845 358.214 110.385 358.414L110.375 358.424H110.355C109.625 358.744 108.895 359.084 108.185 359.444C91.125 367.734 78.5751 383.294 71.4451 401.234C71.4251 401.284 71.4051 401.324 71.385 401.374C67.6647 410.779 65.4476 420.71 64.8151 430.804C64.5753 434.71 64.5352 438.625 64.6949 442.534Z" fill="#F0F0F0"/>
<path d="M90.645 507.754H92.2251C92.7251 506.944 93.2651 506.154 93.8051 505.374C94.6651 504.164 95.5518 502.981 96.4651 501.824C97.2551 500.824 98.0451 499.834 98.8351 498.844C99.6551 497.814 100.465 496.784 101.255 495.724L100.325 494.704C100.175 494.904 100.025 495.104 99.865 495.304C97.3051 498.674 94.5352 501.914 92.165 505.374C91.635 506.154 91.125 506.944 90.645 507.754Z" fill="white"/>
<path d="M112.087 358.383C111.827 358.713 111.557 359.053 111.307 359.393C109.357 361.923 107.513 364.533 105.777 367.223C102.684 371.97 99.9367 376.933 97.5567 382.073C97.3667 382.473 97.1767 382.883 96.9967 383.293C91.9039 394.527 88.5844 406.482 87.1567 418.733C87.1367 418.853 87.1267 418.963 87.1167 419.083C86.7868 421.943 86.5734 424.813 86.4767 427.693C86.1578 433.117 86.6944 438.557 88.0667 443.813C88.2667 444.503 88.4867 445.183 88.7267 445.843C89.3283 447.461 90.0817 449.018 90.9767 450.493C91.6198 451.57 92.3348 452.603 93.1167 453.583C93.5867 454.183 94.0767 454.773 94.5967 455.343C94.8967 455.673 95.2067 456.003 95.5167 456.333C95.7767 456.583 96.0267 456.843 96.2867 457.093C98.9867 459.713 101.967 462.143 104.407 465.033L103.917 466.543C101.567 463.563 98.5368 461.093 95.8067 458.493C94.0929 456.882 92.5328 455.114 91.1467 453.213C90.9667 452.953 90.7767 452.693 90.6067 452.423C89.6802 451.07 88.8802 449.634 88.2167 448.133C87.8767 447.383 87.5667 446.613 87.2867 445.813C85.653 440.643 84.9091 435.233 85.0868 429.813C85.1189 426.342 85.3258 422.874 85.7068 419.423C85.7468 418.973 85.7968 418.533 85.8568 418.083C86.8708 409.87 88.7203 401.781 91.3767 393.943C94.7388 384 99.3632 374.529 105.137 365.763C106.787 363.253 108.537 360.803 110.387 358.413C110.627 358.083 110.877 357.763 111.137 357.433C111.667 356.753 112.617 357.703 112.087 358.383Z" fill="white"/>
<path d="M86.3328 419.549C82.1251 418.8 78.3205 416.58 75.5985 413.285C72.8766 409.99 71.4145 405.835 71.4734 401.561C71.4774 401.387 71.5489 401.221 71.6728 401.099C71.7967 400.976 71.9634 400.906 72.1377 400.904C72.312 400.902 72.4803 400.968 72.6071 401.087C72.734 401.207 72.8095 401.371 72.8177 401.545C72.7555 405.524 74.1178 409.395 76.6588 412.458C79.1997 415.521 82.7519 417.575 86.6743 418.249C87.5265 418.397 87.1801 419.696 86.3328 419.549Z" fill="white"/>
<path d="M94.2564 455.582C101.465 450.647 106.549 443.176 108.495 434.658C108.687 433.814 109.986 434.157 109.795 435C107.754 443.859 102.447 451.624 94.9341 456.743C94.2177 457.231 93.5438 456.067 94.2564 455.582Z" fill="white"/>
<path d="M97.158 381.928C98.7257 382.557 100.425 382.786 102.104 382.596C103.782 382.406 105.387 381.802 106.774 380.838C107.484 380.342 108.157 381.506 107.452 381.999C105.914 383.057 104.141 383.722 102.287 383.936C100.433 384.15 98.5549 383.907 96.8166 383.228C96.6474 383.177 96.5036 383.064 96.4146 382.912C96.3256 382.759 96.298 382.579 96.3373 382.407C96.3834 382.235 96.4954 382.088 96.6491 381.998C96.8028 381.909 96.9857 381.883 97.158 381.928Z" fill="white"/>
<path d="M186.572 487.193L196.774 487.192L201.628 447.841H186.57L186.572 487.193Z" fill="#FFB8B8"/>
<path d="M183.118 482.16L199.245 481.197V488.107L214.578 498.697C215.335 499.219 215.906 499.971 216.206 500.841C216.506 501.711 216.52 502.654 216.246 503.533C215.972 504.411 215.425 505.179 214.683 505.725C213.942 506.27 213.046 506.564 212.126 506.564H192.925L189.616 499.73L188.323 506.564H181.084L183.118 482.16Z" fill="#2F2E41"/>
<path d="M90.1475 482.117L100.118 484.279L113.203 446.851L98.4885 443.66L90.1475 482.117Z" fill="#FFB8B8"/>
<path d="M87.8379 476.466L103.803 478.944L102.338 485.697L115.077 499.296C115.707 499.968 116.105 500.823 116.214 501.737C116.322 502.651 116.136 503.576 115.682 504.376C115.228 505.177 114.531 505.811 113.69 506.187C112.85 506.563 111.912 506.66 111.013 506.465L92.2487 502.395L90.4634 495.014L87.7516 501.419L80.6768 499.884L87.8379 476.466Z" fill="#2F2E41"/>
<path d="M18.2949 506.564C18.2945 506.72 18.3249 506.875 18.3846 507.02C18.4442 507.165 18.5318 507.296 18.6424 507.407C18.753 507.517 18.8844 507.605 19.029 507.664C19.1736 507.724 19.3286 507.755 19.485 507.754H299.775C300.091 507.754 300.393 507.629 300.616 507.406C300.84 507.182 300.965 506.88 300.965 506.564C300.965 506.248 300.84 505.946 300.616 505.723C300.393 505.499 300.091 505.374 299.775 505.374H19.485C19.3286 505.374 19.1736 505.404 19.029 505.464C18.8844 505.523 18.7531 505.611 18.6425 505.722C18.5319 505.832 18.4442 505.964 18.3846 506.108C18.3249 506.253 18.2945 506.408 18.2949 506.564Z" fill="#CCCCCC"/>
<path d="M218.188 311.411C211.028 350.761 209.238 367.751 209.238 367.751C209.238 367.751 214.608 374.011 211.028 377.591C207.448 381.171 211.028 388.321 211.028 388.321L201.656 463.16L199.656 474.16L180.888 471.511L183.656 461.16L178.838 389.221C178.838 389.221 175.258 382.061 177.048 380.271C178.838 378.481 175.258 367.751 175.258 367.751L170.788 282.791L143.058 375.801C143.058 375.801 145.748 379.381 143.058 382.061C140.378 384.741 135.018 398.161 135.018 398.161L114.656 452.16L110.656 460.16L108.528 459.151L99.1678 457.391L97.4478 457.071L94.3878 456.491L92.4178 456.121L91.7478 456.001L88.5078 455.391L89.4878 451.041L96.656 440.16L103.948 386.791L104.268 385.361L104.608 383.851C104.608 383.851 102.818 379.381 105.498 376.691C106.282 375.872 106.854 374.873 107.166 373.783C107.478 372.692 107.52 371.542 107.288 370.431C107.2 370.338 107.12 370.237 107.048 370.131C106.731 369.697 106.513 369.199 106.408 368.671C106.168 367.551 106.378 365.981 108.188 364.171C108.697 363.63 109.125 363.017 109.458 362.351C112.178 357.201 113.548 346.291 113.548 346.291C113.548 346.291 115.968 259.881 123.888 246.681C124.308 245.991 132.716 232.745 133.156 232.475C142.096 227.115 211.869 233.518 211.869 233.518C211.869 233.518 216.088 244.851 216.278 246.031C217.308 252.661 224.258 278.031 218.188 311.411Z" fill="#2F2E41"/>
<path d="M290.593 119.299C290.436 120.541 290.008 121.734 289.34 122.793C288.672 123.853 287.78 124.753 286.727 125.43C285.673 126.107 284.484 126.545 283.243 126.713C282.002 126.881 280.74 126.775 279.544 126.403L261.456 150.888L256.009 136.036L274.02 115.062C274.78 113.095 276.234 111.475 278.108 110.508C279.982 109.542 282.146 109.297 284.188 109.819C286.231 110.341 288.011 111.595 289.192 113.342C290.372 115.089 290.871 117.209 290.593 119.299Z" fill="#FFB8B8"/>
<path d="M125.551 223.014C123.892 223.014 122.95 222.689 122.586 221.992C122.051 220.968 122.979 219.631 124.054 218.082C124.852 217.071 125.481 215.938 125.918 214.726C126.561 212.154 130.901 147.179 128.305 134.197C127.704 131.193 128.221 127.342 129.841 122.752C134.265 110.217 140.304 106.365 152.335 98.6909C153.312 98.0678 154.329 97.4171 155.386 96.7387C156.754 95.8598 156.677 92.9457 156.597 89.8598C156.508 86.4302 156.415 82.8833 158.095 80.6665L158.204 80.5219L158.381 80.4809C162.445 79.5415 176.113 77.7973 184.208 80.4936L184.32 80.5317L184.403 80.6147C186.326 82.5376 186.501 86.2622 186.671 89.8637C186.809 92.8207 186.941 95.6127 188.029 96.8256C196.345 106.096 205.778 105.915 205.874 105.914L206.341 105.9L206.387 106.365C210.005 143.163 215.837 198.703 217.076 200.888C217.141 200.988 217.177 201.104 217.181 201.223C217.185 201.342 217.156 201.46 217.097 201.564C215.278 204.963 131.801 223.014 125.551 223.014Z" fill="#2E44FF"/>
<path d="M179.874 70.0652C193.497 70.0652 204.541 59.0213 204.541 45.3978C204.541 31.7744 193.497 20.7305 179.874 20.7305C166.251 20.7305 155.207 31.7744 155.207 45.3978C155.207 59.0213 166.251 70.0652 179.874 70.0652Z" fill="#FFB8B8"/>
<path d="M196.355 90.4882C195.186 88.8185 189.255 68.4208 186.656 62.1598C186.39 63.5053 183.41 68.7222 183.341 70.1105L183.315 70.6248L182.804 70.691C182.036 70.789 163.894 72.9911 154.452 62.285C148.858 55.9433 147.589 46.4312 150.676 34.0071C150.115 33.8969 149.577 33.6897 149.086 33.3948C148.27 32.8297 147.587 32.0933 147.084 31.237C146.581 30.3807 146.272 29.425 146.176 28.4366L145.654 28.5768C142.991 29.295 139.989 30.2453 138.049 32.439C135.889 34.8787 135.505 38.1936 135.097 41.7028C134.938 43.3781 134.674 45.0417 134.306 46.6838C132.991 51.9908 129.287 56.9616 123.299 61.4585C117.27 65.986 111.123 68.576 105.029 69.1553C97.8305 69.8422 90.8886 67.4771 86.4652 62.8341C81.5322 57.6576 80.242 49.6931 83.3963 43.897L83.904 42.9635L84.4616 43.8681C87.2694 48.4251 93.4047 50.8865 99.383 49.8519C104.509 48.9653 109.591 45.7105 113.692 40.6874C117.435 36.1021 120.018 30.6868 122.515 25.4495C125.055 20.1244 127.681 14.6177 131.464 9.9452C135.731 4.67484 141.056 1.23303 146.459 0.25259C150.393 -0.45841 153.904 0.347602 156.093 2.46853C157.639 4.06226 158.555 6.16261 158.67 8.38009C160.016 8.07938 161.419 8.16 162.721 8.61288C163.977 9.12393 165.072 9.96532 165.889 11.0479C166.705 12.1305 167.214 13.4139 167.361 14.762C175.288 10.5924 185.779 11.2709 191.205 14.3993C193.477 15.7094 194.782 17.3593 195.013 19.1999C201.422 19.5578 208.316 25.8008 208.316 34.6459V35.2619H207.7C202.627 35.2619 197.996 38.1791 195.312 43.0652C193.736 45.9126 192.956 49.1321 193.054 52.3852C193.152 55.6383 194.124 58.8049 195.869 61.5523C197.768 64.4665 199.064 67.7311 199.682 71.1541C200.3 74.577 200.226 78.089 199.466 81.4831L197.151 91.625L196.355 90.4882Z" fill="#2F2E41"/>
<path d="M224.671 182.742L208.411 173.596C180.057 153.942 173.072 138.335 172.199 128.698C171.268 118.416 176.746 112.792 176.98 112.559L177.106 112.466L191.764 104.976C193.626 104.025 195.668 103.481 197.757 103.379C199.845 103.277 201.931 103.62 203.877 104.386C205.822 105.151 207.583 106.322 209.042 107.819C210.501 109.317 211.625 111.107 212.339 113.072L225.898 150.36L240.929 139.273L247.34 136.747L252.513 129.83L266.72 121.544L277.274 131.043L264.001 157.588L256.627 159.466L255.063 163.494L254.924 163.583L224.671 182.742Z" fill="#2E44FF"/>
</g>
<defs>
<clipPath id="clip0_1484_12978">
<rect width="785.166" height="507.754" fill="white" transform="translate(0.490234)"/>
</clipPath>
</defs>
</svg>
