<svg width="318" height="487" viewBox="0 0 318 487" fill="none" xmlns="http://www.w3.org/2000/svg">
<path d="M86.1671 458.204C85.592 458.23 85.0228 458.079 84.5364 457.771C84.0501 457.464 83.6701 457.014 83.4481 456.483C83.226 455.951 83.1725 455.365 83.295 454.802C83.4174 454.24 83.7097 453.729 84.1324 453.338L84.3248 452.573C84.2994 452.512 84.274 452.451 84.2484 452.39C83.6691 451.021 82.6984 449.855 81.4582 449.036C80.218 448.218 78.7637 447.784 77.2778 447.79C75.7919 447.795 74.3408 448.24 73.1068 449.067C71.8727 449.895 70.9107 451.069 70.3416 452.441C68.0671 457.919 65.1712 463.407 64.4582 469.199C64.1442 471.759 64.2766 474.355 64.8497 476.87C59.5075 465.216 56.7335 452.55 56.7156 439.731C56.7145 436.514 56.8932 433.3 57.2509 430.103C57.5466 427.482 57.9568 424.88 58.4815 422.296C61.3448 408.278 67.4925 395.139 76.4196 383.959C80.7403 381.601 84.2346 377.976 86.4314 373.571C87.2273 371.988 87.7898 370.298 88.1014 368.554C87.614 368.617 86.2636 361.194 86.6313 360.739C85.952 359.708 84.7362 359.196 83.9944 358.19C80.305 353.188 75.2219 354.061 72.5683 360.859C66.8996 363.72 66.8447 368.465 70.323 373.028C72.5359 375.931 72.84 379.86 74.7816 382.968C74.5818 383.224 74.3741 383.471 74.1744 383.727C70.5228 388.423 67.3401 393.465 64.6721 398.781C65.3209 392.825 64.5466 386.8 62.4127 381.202C60.25 375.985 56.1964 371.591 52.6267 367.081C48.3389 361.663 39.5463 364.027 38.7909 370.895C38.7836 370.962 38.7764 371.028 38.7695 371.094C39.2997 371.394 39.8187 371.711 40.3266 372.047C40.9645 372.473 41.4589 373.082 41.7448 373.794C42.0308 374.506 42.095 375.288 41.929 376.037C41.7631 376.786 41.3747 377.468 40.8148 377.992C40.2549 378.517 39.5496 378.86 38.7913 378.977L38.7136 378.989C38.9025 380.9 39.2364 382.794 39.7124 384.654C35.1329 402.364 45.0197 408.814 59.1367 409.104C59.4483 409.264 59.752 409.424 60.0637 409.576C57.3831 417.172 55.7017 425.085 55.0617 433.115C54.6994 437.852 54.7208 442.612 55.1257 447.346L55.1017 447.178C54.0788 441.914 51.2706 437.164 47.1513 433.73C41.0331 428.704 32.3892 426.854 25.7887 422.814C25.0873 422.363 24.2716 422.123 23.438 422.121C22.6044 422.119 21.7876 422.355 21.084 422.802C20.3803 423.249 19.8191 423.888 19.4666 424.643C19.1141 425.399 18.985 426.239 19.0945 427.066C19.1034 427.125 19.1123 427.183 19.1215 427.242C20.1054 427.643 21.0635 428.105 21.99 428.624C22.5202 428.924 23.0392 429.241 23.5471 429.577C24.185 430.003 24.6793 430.612 24.9653 431.324C25.2512 432.036 25.3154 432.818 25.1494 433.567C24.9835 434.316 24.5951 434.997 24.0352 435.522C23.4753 436.047 22.77 436.39 22.0117 436.507L21.934 436.519C21.8781 436.527 21.8301 436.535 21.7743 436.543C23.4554 440.557 25.8151 444.252 28.7497 447.465C31.6132 462.926 43.9117 464.392 57.0673 459.89H57.0753C58.5187 466.163 60.6101 472.268 63.3157 478.108H85.6085C85.6885 477.86 85.7603 477.605 85.8323 477.357C83.7688 477.487 81.6972 477.363 79.6637 476.99C81.3177 474.96 82.9717 472.914 84.6257 470.885C84.6626 470.847 84.6973 470.807 84.7296 470.765C85.5686 469.726 86.4155 468.696 87.2545 467.657L87.255 467.656C87.2997 464.472 86.9335 461.295 86.1671 458.204Z" fill="#F2F2F2"/>
<path d="M1.18472 479.71L316.542 480.018C316.857 480.016 317.158 479.89 317.38 479.667C317.602 479.444 317.727 479.142 317.727 478.827C317.727 478.512 317.602 478.21 317.38 477.987C317.158 477.764 316.857 477.638 316.542 477.636L1.18472 477.329C0.869972 477.331 0.568655 477.457 0.346649 477.68C0.124643 477.903 0 478.205 0 478.52C0 478.835 0.124643 479.136 0.346649 479.36C0.568655 479.583 0.869972 479.709 1.18472 479.71Z" fill="#CACACA"/>
<path d="M111.275 144.856C113.033 146.942 115.264 148.578 117.784 149.625L124.999 157.75L145.436 182.428L159.243 190.78L165.654 179.743L135.39 150.263L126.956 141.682C126.28 139.038 124.981 136.595 123.166 134.557C118.698 129.395 112.413 127.517 109.13 130.361C105.845 133.205 106.806 139.693 111.275 144.856Z" fill="#FFAFAF"/>
<path d="M234.801 169.376L221.511 147.258L164.967 171.553L134.061 146.302C134.061 146.302 121.799 156.864 121.361 157.241C120.923 157.619 152.527 201.392 154.772 201.341C157.016 201.289 234.801 169.376 234.801 169.376Z" fill="#DEDEDE"/>
<path d="M107.18 0C66.9272 0 34.1797 30.7285 34.1797 68.5C34.1797 79.0537 36.8091 89.5508 41.7983 98.9688H41.7383L43.0596 101.266C54.272 120.581 60.498 142.578 61.063 164.877C61.2344 171.675 66.6963 177 73.4966 177H130.383C137.713 177 143.869 171.746 145.021 164.507C147.822 146.895 153.426 129.924 161.674 114.064C173.608 101.505 180.18 85.3281 180.18 68.5C180.18 30.7285 147.432 0 107.18 0ZM44.8286 100.329L44.3555 99.4775C39.0068 89.9834 36.1797 79.2715 36.1797 68.5C36.1797 31.832 68.0303 2 107.18 2C146.329 2 178.18 31.832 178.18 68.5C178.18 84.8584 171.77 100.586 160.129 112.787L159.966 113.016C151.582 129.102 145.889 146.32 143.046 164.192C142.05 170.455 136.724 175 130.383 175H73.4966C67.7896 175 63.2065 170.531 63.062 164.826C62.4897 142.22 56.1851 119.919 44.8286 100.329Z" fill="#3F3D56"/>
<path d="M65.6266 172H140.733C143.121 172 144.993 174.051 144.777 176.429L144.074 184.164C143.485 190.638 141.443 196.895 138.098 202.469C137.539 203.401 136.483 203.911 135.404 203.781C113.149 201.099 91.373 201.011 70.1191 203.742C68.9564 203.892 67.8283 203.297 67.3041 202.249L66.8227 201.286C64.4152 196.471 62.9295 191.248 62.4421 185.887L61.5822 176.429C61.366 174.051 63.2386 172 65.6266 172Z" fill="#3F3D56"/>
<path d="M133.18 198.5H71.6797V238.528C71.6797 245.687 77.4923 251.5 84.6518 251.5H120.208C127.367 251.5 133.18 245.687 133.18 238.528V198.5Z" fill="#3F3D56"/>
<path d="M94.5157 262H107.844C109.31 262 110.685 261.292 111.538 260.099L120.18 248H82.1797L90.8219 260.099C91.674 261.292 93.0498 262 94.5157 262Z" fill="#3F3D56"/>
<path d="M84.4319 35.3264C94.217 37.3525 104.002 39.3787 113.787 41.4048C118.187 42.3159 123.115 42.7888 127.113 44.9755C130.989 47.0956 133.703 51.5439 132.317 55.997C130.993 60.2496 127.084 62.9172 122.892 63.8655C118.241 64.9177 113.259 64.9102 108.518 65.2762C103.573 65.6579 98.6281 66.0396 93.6832 66.4213C91.3298 66.603 88.9641 66.7284 86.6163 66.9702C85.8653 67.0475 85.0465 67.1396 84.4298 67.6161C84.4391 67.6089 84.2215 67.7452 84.3421 67.7662C84.3657 67.7703 84.3676 67.6119 84.3642 67.6013C84.2689 67.3045 84.3081 67.5853 84.385 67.586C84.412 67.5863 85.1202 68.0541 85.5154 68.128C86.5814 68.3273 87.7576 68.1823 88.8378 68.1639C91.1848 68.1239 93.5332 68.1683 95.8771 68.2961C100.595 68.5532 105.306 69.14 109.945 70.0289C114.509 70.9032 119.052 72.0674 123.435 73.618C127.685 75.1215 132.136 77.9767 132.252 83.0142C132.36 87.7456 128.256 91.0704 124.076 92.259C121.926 92.8703 119.66 93.0919 117.455 93.4199C114.995 93.7859 112.534 94.1519 110.074 94.5179C105.235 95.2377 100.397 95.9575 95.5579 96.6773C93.0976 97.0433 90.6372 97.4093 88.1769 97.7753C87.0296 97.946 85.8758 98.0931 84.7324 98.2877C84.3108 98.3594 83.9132 98.492 83.4974 98.5773C83.7766 98.5201 83.4302 98.5205 83.4874 98.5856C83.3052 98.6972 83.3048 98.6803 83.4862 98.535L83.6097 98.3534C83.8921 97.5609 83.8823 97.4565 83.3672 96.5192C83.2688 96.3403 83.0689 96.5249 83.3237 96.4968C83.5955 96.4668 83.1607 96.4628 83.4503 96.5824C83.595 96.6421 83.7524 96.6828 83.9032 96.7245C85.0424 97.0397 86.236 97.2044 87.3956 97.4321C89.8061 97.9054 92.2166 98.3787 94.6272 98.8521C99.3679 99.7829 104.109 100.714 108.849 101.645C117.2 103.285 126.07 105.503 131.074 113.039C132.163 114.678 132.953 116.567 133.348 118.493C133.673 120.079 132.888 121.734 131.252 122.184C129.769 122.591 127.889 121.683 127.562 120.088C125.977 112.348 117.507 109.569 110.542 108.092C105.925 107.113 101.279 106.257 96.6479 105.348C91.9803 104.431 87.2385 103.685 82.6108 102.586C80.6653 102.124 78.5545 100.928 78.0107 98.8539C77.4153 96.5828 78.5363 94.3903 80.595 93.3322C82.5694 92.3174 84.9165 92.2374 87.0739 91.9164C89.4522 91.5626 91.8306 91.2088 94.2089 90.855C99.0475 90.1352 103.886 89.4154 108.725 88.6956C111.103 88.3418 113.482 87.988 115.86 87.6342C118.065 87.3062 120.33 87.0847 122.481 86.4733C123.935 86.0597 125.424 85.3499 126.066 83.9648C126.274 83.5182 126.327 83.1932 126.185 82.6909C125.991 82.0015 125.451 81.3594 124.85 80.8842C123.465 79.7889 121.59 79.3002 119.943 78.7719C117.783 78.0787 115.598 77.4602 113.395 76.9178C109.02 75.8409 104.574 75.0528 100.09 74.616C97.7535 74.3884 95.4093 74.2437 93.0626 74.1828C90.8423 74.1252 88.618 74.2628 86.4005 74.1941C84.0368 74.1209 81.604 73.489 79.9813 71.6566C78.3113 69.771 77.9053 67.1961 79.0672 64.9356C81.3663 60.4623 87.4584 60.9018 91.7053 60.574C96.5677 60.1987 101.43 59.8233 106.293 59.448C110.84 59.097 115.514 59.0231 120.022 58.3233C121.691 58.0642 123.615 57.5871 124.873 56.5925C126.028 55.6806 126.777 54.485 126.685 53.287C126.6 52.1726 125.462 50.9417 124.27 50.2577C122.599 49.2979 120.627 48.9398 118.76 48.5506C109.153 46.5478 99.5407 44.5708 89.931 42.581C87.5663 42.0914 85.2016 41.6017 82.8368 41.1121C81.2496 40.7834 80.3321 38.9114 80.7415 37.4217C81.1944 35.7738 82.84 34.9968 84.4319 35.3264Z" fill="#FD6584"/>
<path d="M210.532 131H230.184V169.147H210.532V131Z" fill="#FFAFAF"/>
<path d="M178.088 237.298L225.484 233.83C225.484 233.83 245.135 278.913 230.108 307.813L219.704 367.924L223.818 466.862H202.291L168.841 307.813L178.088 237.298Z" fill="#2F2E41"/>
<path d="M187.336 287.792L168.84 303.891L178.088 461.559H198.896L187.336 287.792Z" fill="#2F2E41"/>
<path d="M220.624 138.501C207.055 138.501 196.055 127.501 196.055 113.932C196.055 100.363 207.055 89.3633 220.624 89.3633C234.193 89.3633 245.192 100.363 245.192 113.932C245.192 127.501 234.193 138.501 220.624 138.501Z" fill="#FFAFAF"/>
<path d="M223.566 443.382L198.187 447.391L193.417 465.597C193.417 465.597 172.81 473.352 182.739 481.779C192.668 490.206 229.35 485.849 232.25 479.804C235.15 473.759 223.566 443.382 223.566 443.382Z" fill="#2F2E41"/>
<path d="M202.758 443.382L177.379 447.391L172.609 465.597C172.609 465.597 152.002 473.352 161.931 481.779C171.861 490.206 208.542 485.849 211.442 479.804C214.342 473.759 202.758 443.382 202.758 443.382Z" fill="#2F2E41"/>
<path d="M132.645 233.388C135.373 233.419 138.068 232.795 140.506 231.57L151.371 231.406L183.407 232.028L198.746 227.018L194.568 214.957L152.48 218.647L140.475 219.436C138.03 218.223 135.33 217.613 132.602 217.658C125.775 217.674 120.251 221.21 120.262 225.554C120.274 229.899 125.816 233.406 132.645 233.388Z" fill="#FFAFAF"/>
<path d="M208.721 145.398H233.043L241.089 169.674L225.483 233.831L178.088 237.299L180.978 211.289C175.382 202.197 175.829 190.626 182.109 181.991L208.721 145.398Z" fill="#DEDEDE"/>
<path d="M231.841 155.802L206.409 151.437L187.914 210.133L148.61 217.069V233.831C148.61 234.409 202.402 239.033 203.828 237.299C205.253 235.565 231.841 155.802 231.841 155.802Z" fill="#DEDEDE"/>
<path d="M208.355 99.6871C205.337 104.583 208.12 111.033 211.838 115.421C215.556 119.81 220.35 123.662 222.01 129.169C223.499 134.107 222.145 139.432 220.395 144.283C218.644 149.134 216.468 153.97 216.287 159.124C216.107 164.278 218.546 169.97 223.401 171.71C228.383 173.495 234.272 170.689 239.07 172.921C245.32 175.828 246.737 185.893 253.55 186.937C257.743 187.579 261.629 183.943 262.801 179.866C263.973 175.789 263.132 171.438 262.284 167.281C259.963 155.892 257.642 144.504 255.321 133.115C253.39 123.639 251.459 114.163 249.527 104.687C248.374 99.0294 247.006 92.9776 242.754 89.0713C237.558 84.2981 229.727 84.1846 222.677 84.4707C216.2 84.7335 209.462 85.1767 203.823 88.3745C198.184 91.5724 194.043 98.3698 195.994 104.551C197.816 100.201 203.261 97.76 207.722 99.2943" fill="#2F2E41"/>
</svg>
