<svg width="672" height="518" viewBox="0 0 672 518" fill="none" xmlns="http://www.w3.org/2000/svg">
<g clip-path="url(#clip0_1484_13511)">
<path d="M334.087 128.498C312.705 123.176 294.347 112.714 279.996 95.4434C278.902 94.7731 278.118 93.6963 277.817 92.449C277.516 91.2018 277.722 89.8861 278.39 88.7906L303.353 47.9399C304.024 46.8458 305.101 46.0623 306.348 45.7613C307.595 45.4602 308.911 45.6662 310.006 46.334L364.097 79.3888C365.191 80.0591 365.975 81.1359 366.276 82.3831C366.577 83.6303 366.371 84.9461 365.703 86.0416L340.739 126.892C340.069 127.986 338.992 128.77 337.745 129.071C336.498 129.372 335.182 129.166 334.087 128.498Z" fill="#E6E6E6"/>
<path d="M319.664 115.381C308.406 114.152 296.706 105.154 284.89 94.1305C283.865 93.5028 283.131 92.4943 282.849 91.3262C282.567 90.1582 282.76 88.926 283.386 87.9L304.84 52.7922C305.468 51.7675 306.476 51.0337 307.644 50.7517C308.812 50.4697 310.045 50.6626 311.071 51.288L359.204 80.7023C360.229 81.3301 360.963 82.3386 361.245 83.5067C361.527 84.6748 361.334 85.9071 360.708 86.9331L347.418 108.682C344.622 113.246 340.129 116.514 334.926 117.77C329.723 119.026 324.235 118.167 319.664 115.381Z" fill="white"/>
<path d="M424.087 193.498C402.705 188.176 384.347 177.714 369.996 160.443C368.902 159.773 368.118 158.696 367.817 157.449C367.516 156.202 367.722 154.886 368.39 153.791L393.353 112.94C394.024 111.846 395.101 111.062 396.348 110.761C397.595 110.46 398.911 110.666 400.006 111.334L454.097 144.389C455.191 145.059 455.975 146.136 456.276 147.383C456.577 148.63 456.371 149.946 455.703 151.042L430.739 191.892C430.069 192.986 428.992 193.77 427.745 194.071C426.498 194.372 425.182 194.166 424.087 193.498Z" fill="#E6E6E6"/>
<path d="M409.664 180.381C398.406 179.152 386.706 170.154 374.89 159.131C373.865 158.503 373.131 157.494 372.849 156.326C372.567 155.158 372.76 153.926 373.386 152.9L394.84 117.792C395.468 116.768 396.476 116.034 397.644 115.752C398.812 115.47 400.045 115.663 401.071 116.288L449.204 145.702C450.229 146.33 450.963 147.339 451.245 148.507C451.527 149.675 451.334 150.907 450.708 151.933L437.418 173.682C434.622 178.246 430.129 181.514 424.926 182.77C419.723 184.026 414.235 183.167 409.664 180.381Z" fill="white"/>
<path d="M353.087 219.498C331.705 214.176 313.347 203.714 298.996 186.443C297.902 185.773 297.118 184.696 296.817 183.449C296.516 182.202 296.722 180.886 297.39 179.791L322.353 138.94C323.024 137.846 324.101 137.062 325.348 136.761C326.595 136.46 327.911 136.666 329.006 137.334L383.097 170.389C384.191 171.059 384.975 172.136 385.276 173.383C385.577 174.63 385.371 175.946 384.703 177.042L359.739 217.892C359.069 218.986 357.992 219.77 356.745 220.071C355.498 220.372 354.182 220.166 353.087 219.498Z" fill="#E6E6E6"/>
<path d="M338.664 206.381C327.406 205.152 315.706 196.154 303.89 185.131C302.865 184.503 302.131 183.494 301.849 182.326C301.567 181.158 301.76 179.926 302.386 178.9L323.84 143.792C324.468 142.768 325.476 142.034 326.644 141.752C327.812 141.47 329.045 141.663 330.071 142.288L378.204 171.702C379.229 172.33 379.963 173.339 380.245 174.507C380.527 175.675 380.334 176.907 379.708 177.933L366.418 199.682C363.622 204.246 359.129 207.514 353.926 208.77C348.723 210.026 343.235 209.167 338.664 206.381Z" fill="white"/>
<path d="M86.1666 495.796C85.5915 495.822 85.0223 495.671 84.5359 495.363C84.0496 495.055 83.6696 494.605 83.4476 494.074C83.2255 493.543 83.1721 492.957 83.2945 492.394C83.4169 491.832 83.7092 491.321 84.1319 490.93L84.3243 490.165C84.2989 490.104 84.2735 490.043 84.2479 489.981C83.6686 488.613 82.6979 487.447 81.4577 486.628C80.2175 485.81 78.7632 485.376 77.2773 485.382C75.7915 485.387 74.3404 485.832 73.1063 486.659C71.8722 487.487 70.9102 488.661 70.3411 490.033C68.0666 495.511 65.1707 500.999 64.4577 506.791C64.1437 509.351 64.2762 511.946 64.8492 514.461C59.507 502.808 56.733 490.142 56.7151 477.323C56.714 474.106 56.8927 470.891 57.2505 467.694C57.5461 465.074 57.9563 462.471 58.481 459.888C61.3443 445.87 67.492 432.731 76.4191 421.551C80.7398 419.193 84.2341 415.568 86.4309 411.163C87.2268 409.58 87.7893 407.89 88.1009 406.145C87.6135 406.209 86.2632 398.786 86.6308 398.331C85.9515 397.3 84.7358 396.788 83.994 395.782C80.3045 390.78 75.2214 391.653 72.5678 398.451C66.8991 401.312 66.8443 406.056 70.3225 410.62C72.5354 413.523 72.8395 417.452 74.7812 420.56C74.5814 420.815 74.3736 421.063 74.1739 421.319C70.5223 426.014 67.3396 431.056 64.6716 436.373C65.3205 430.417 64.5461 424.392 62.4122 418.794C60.2495 413.577 56.1959 409.183 52.6262 404.672C48.3384 399.255 39.5459 401.619 38.7904 408.487C38.7831 408.553 38.776 408.62 38.769 408.686C39.2992 408.985 39.8183 409.303 40.3261 409.639C40.9641 410.065 41.4584 410.674 41.7444 411.386C42.0303 412.098 42.0945 412.88 41.9285 413.629C41.7626 414.378 41.3742 415.059 40.8143 415.584C40.2544 416.108 39.5491 416.452 38.7908 416.569L38.7131 416.581C38.902 418.492 39.2359 420.385 39.7119 422.246C35.1324 439.956 45.0192 446.406 59.1362 446.696C59.4478 446.856 59.7515 447.016 60.0632 447.167C57.3826 454.764 55.7012 462.677 55.0612 470.707C54.6989 475.444 54.7203 480.203 55.1252 484.937L55.1012 484.77C54.0784 479.505 51.2701 474.756 47.1508 471.322C41.0326 466.296 32.3887 464.445 25.7882 460.406C25.0868 459.955 24.2711 459.715 23.4375 459.713C22.6039 459.711 21.7871 459.947 21.0835 460.394C20.3798 460.841 19.8186 461.48 19.4661 462.235C19.1136 462.991 18.9845 463.831 19.094 464.658C19.1029 464.716 19.1118 464.775 19.121 464.834C20.1049 465.235 21.063 465.696 21.9895 466.216C22.5197 466.515 23.0387 466.833 23.5466 467.169C24.1845 467.595 24.6789 468.204 24.9648 468.916C25.2507 469.628 25.3149 470.41 25.1489 471.159C24.983 471.908 24.5946 472.589 24.0347 473.114C23.4748 473.638 22.7695 473.982 22.0112 474.099L21.9335 474.111C21.8776 474.119 21.8296 474.127 21.7738 474.135C23.455 478.149 25.8146 481.844 28.7492 485.057C31.6127 500.517 43.9112 501.984 57.0668 497.482H57.0748C58.5182 503.754 60.6096 509.86 63.3152 515.7H85.608C85.688 515.452 85.7598 515.196 85.8318 514.949C83.7683 515.079 81.6967 514.955 79.6632 514.581C81.3172 512.552 82.9712 510.506 84.6252 508.477C84.6621 508.439 84.6968 508.399 84.7291 508.357C85.5681 507.318 86.4151 506.287 87.254 505.249L87.2545 505.247C87.2992 502.063 86.933 498.886 86.1666 495.796Z" fill="#F2F2F2"/>
<path d="M241.077 124.841C243.971 124.841 246.316 122.503 246.316 119.62C246.316 116.737 243.971 114.4 241.077 114.4C238.184 114.4 235.838 116.737 235.838 119.62C235.838 122.503 238.184 124.841 241.077 124.841Z" fill="#E6E6E6"/>
<path d="M67.2178 490.329L75.9998 496.038L102.202 464.885L89.2418 456.458L67.2178 490.329Z" fill="#FFB6B6"/>
<path d="M60.9526 499.289L87.9561 516.847L88.1781 516.506C89.9905 513.718 90.6215 510.325 89.9322 507.072C89.2429 503.82 87.2898 500.974 84.5024 499.161L82.0028 492.211L70.3663 489.969L68.0091 488.437L60.9526 499.289Z" fill="#2F2E41"/>
<path d="M217.708 505.29L228.183 505.289L233.165 464.888L217.706 464.889L217.708 505.29Z" fill="#FFB6B6"/>
<path d="M217.339 516.218L249.549 516.216V515.809C249.549 512.484 248.228 509.295 245.877 506.944C243.526 504.593 240.337 503.272 237.012 503.272L231.128 498.809L220.151 503.273L217.339 503.273L217.339 516.218Z" fill="#2F2E41"/>
<path d="M109.288 255.987L203.216 258.052L212.527 269.69C212.527 269.69 211.722 265.587 212.438 270.094C213.155 274.6 231.275 364.456 227.85 367.469C224.425 370.483 234.345 391.289 235.074 392.558C235.802 393.827 243.656 456.458 235.074 461.608L231.85 483.469H216.85C216.85 483.469 201.824 466.08 204.848 462.928C207.872 459.775 199.223 449.293 198.892 443.672C198.561 438.051 195.403 412.557 197.85 408.469C200.297 404.381 203.604 389.041 197.397 383.094C191.191 377.146 162.242 304.064 162.242 304.064C162.242 304.064 153.83 389.742 153.85 396.469C153.876 405.218 148.131 400.888 148.131 408.569C148.131 410.12 129.423 450.003 116.85 462.469L90.8501 482.469L78.8501 473.469V460.469C78.8501 460.469 89.9708 436.348 93.8501 432.469C97.7294 428.59 112.053 416.715 112.053 411.284C112.053 405.853 118.796 403.961 114.261 396.761C109.726 389.56 111.277 386.457 112.829 383.353C114.381 380.25 111.438 253.094 111.438 253.094L109.288 255.987Z" fill="#2F2E41"/>
<path d="M127.073 78.5958L167.827 76.6377L178.255 93.7464C178.255 93.7464 208.715 96.8036 204.359 108.26C200.004 119.716 193.28 198.27 199.438 208.094C202.688 213.277 208.188 230.626 212.66 245.857C213.525 248.811 213.678 251.928 213.105 254.953C212.533 257.977 211.251 260.823 209.366 263.256C207.48 265.689 205.045 267.64 202.259 268.949C199.473 270.259 196.417 270.889 193.34 270.788C164.353 269.832 121.303 267.566 116.211 262.474C108.453 254.715 101.47 248.508 106.125 246.181C110.78 243.853 117.438 210.094 117.438 210.094C117.438 210.094 86.5292 112.732 94.5966 109.864C102.664 106.996 125.185 93.7464 125.185 93.7464L127.073 78.5958Z" fill="#3F3D56"/>
<path d="M148.454 67.4417C164.13 67.4417 176.837 54.7342 176.837 39.0587C176.837 23.3833 164.13 10.6758 148.454 10.6758C132.779 10.6758 120.071 23.3833 120.071 39.0587C120.071 54.7342 132.779 67.4417 148.454 67.4417Z" fill="#FFB6B6"/>
<path d="M1.18423 517.302L316.542 517.61C316.856 517.608 317.158 517.482 317.38 517.259C317.602 517.036 317.726 516.734 317.726 516.419C317.726 516.104 317.602 515.802 317.38 515.579C317.158 515.356 316.856 515.23 316.542 515.228L1.18423 514.921C0.869483 514.922 0.568167 515.049 0.346161 515.272C0.124155 515.495 -0.000488281 515.797 -0.000488281 516.112C-0.000488281 516.426 0.124155 516.728 0.346161 516.951C0.568167 517.175 0.869483 517.301 1.18423 517.302Z" fill="#CACACA"/>
<path d="M125.779 266.835L117.79 242.784L103.414 245.431L112.766 270.558C112.197 272.031 112.051 273.632 112.342 275.183C112.634 276.734 113.353 278.173 114.418 279.338C115.482 280.503 116.851 281.348 118.369 281.778C119.888 282.208 121.496 282.205 123.014 281.771C124.531 281.337 125.897 280.488 126.959 279.32C128.02 278.152 128.734 276.711 129.022 275.159C129.309 273.607 129.158 272.006 128.585 270.536C128.012 269.065 127.041 267.783 125.779 266.835Z" fill="#FFB6B6"/>
<path d="M96.9171 110.072L96.5381 110.23C93.0132 111.7 89.8997 114.007 87.4672 116.951C85.0346 119.895 83.3563 123.388 82.5776 127.127C80.5399 136.88 78.5351 150.987 80.1202 164.196C82.9196 187.525 84.7859 197.79 88.5186 205.255C92.2513 212.72 93.1844 209.921 92.2512 215.52C91.3181 221.119 86.6522 216.453 91.3181 223.918C95.9839 231.383 98.7834 229.517 96.9171 233.25C95.0508 236.982 92.2513 236.982 95.9839 241.648C99.7165 246.314 99.7165 248.18 100.65 250.047C101.583 251.913 104.382 265.91 104.382 265.91C104.382 265.91 119.313 261.245 127.711 263.111C127.711 263.111 120.246 250.047 122.112 247.247C123.979 244.448 126.778 243.514 123.979 240.715C121.179 237.916 116.513 238.849 121.179 236.049C125.845 233.25 117.447 204.322 117.447 204.322L96.9171 110.072Z" fill="#3F3D56"/>
<path d="M321.383 163.22L296.815 157.001L291.305 170.54L317.513 176.191C318.448 177.462 319.718 178.448 321.183 179.038C322.647 179.627 324.246 179.796 325.801 179.526C327.356 179.257 328.805 178.558 329.985 177.51C331.165 176.462 332.029 175.105 332.48 173.593C332.931 172.081 332.952 170.473 332.539 168.949C332.126 167.426 331.297 166.048 330.144 164.97C328.991 163.892 327.56 163.158 326.013 162.848C324.465 162.539 322.862 162.668 321.383 163.22Z" fill="#FFB6B6"/>
<path d="M173.747 103.126L173.676 103.53C173.017 107.292 173.284 111.158 174.455 114.793C175.626 118.428 177.665 121.723 180.397 124.392C187.517 131.361 198.325 140.647 210.309 146.424C231.474 156.628 241.128 160.583 249.429 161.457C257.729 162.332 255.873 160.038 260.088 163.839C264.304 167.641 257.86 169.06 266.663 169.148C275.466 169.237 275.401 165.873 277.541 169.455C279.681 173.038 278.174 175.397 284.115 174.764C290.057 174.131 291.629 175.136 293.704 175.355C295.78 175.574 309.082 180.752 309.082 180.752C309.082 180.752 313.19 165.659 319.285 159.587C319.285 159.587 304.257 158.842 302.903 155.762C301.549 152.682 302.27 149.821 298.404 150.672C294.537 151.524 292.811 155.958 292.965 150.519C293.118 145.08 192.438 96.0938 192.438 96.0938L173.747 103.126Z" fill="#3F3D56"/>
<path d="M182.438 34.0931C179.378 35.0431 176.428 35.6031 174.438 33.0931C172.448 30.5831 172.968 27.7131 170.008 26.5031C167.533 25.6731 164.836 25.7979 162.448 26.8531C162.018 27.0131 161.598 27.1931 161.188 27.3731C160.958 27.1731 160.728 26.9832 160.478 26.8031C158.597 25.4652 156.274 24.8997 153.988 25.2231C155.659 26.0302 157.034 27.342 157.918 28.9731C157.098 29.3831 156.268 29.7931 155.428 30.1431C151.898 31.5872 148.08 32.189 144.277 31.9008C140.474 31.6127 136.79 30.4425 133.518 28.4831C136.798 37.1231 134.248 40.2031 129.438 48.0931L129.248 48.5531C129.728 46.4832 123.438 44.0931 123.438 47.0931C123.715 50.1667 124.387 53.1918 125.438 56.0931C119.268 46.8031 115.628 35.9331 118.018 25.5031C118.528 23.3131 118.758 20.9631 120.148 19.1831C121.538 17.4131 124.098 16.3731 126.118 17.3731C126.369 13.9817 127.533 10.7214 129.489 7.939C131.444 5.15659 134.117 2.95604 137.223 1.57126C140.329 0.186489 143.752 -0.330743 147.128 0.0745742C150.505 0.479892 153.708 1.7926 156.398 3.87314C158.898 5.80314 160.868 8.33313 163.098 10.5831C165.328 12.8331 167.968 14.8831 171.088 15.4431C173.068 15.7931 175.298 15.5831 176.878 16.8331C178.708 18.2831 178.728 20.8331 178.718 23.2831C176.928 23.2321 175.162 23.716 173.648 24.6731C175.502 24.7197 177.293 25.3495 178.768 26.4731C178.797 26.4906 178.823 26.5107 178.848 26.5331C179.388 30.6531 179.168 31.5232 182.438 34.0931Z" fill="#2F2E41"/>
<path d="M313.116 52.4119C316.01 52.4119 318.355 50.0747 318.355 47.1918C318.355 44.3088 316.01 41.9717 313.116 41.9717C310.223 41.9717 307.877 44.3088 307.877 47.1918C307.877 50.0747 310.223 52.4119 313.116 52.4119Z" fill="#E6E6E6"/>
<path d="M369.473 58.5476C372.366 58.5476 374.712 56.2105 374.712 53.3275C374.712 50.4445 372.366 48.1074 369.473 48.1074C366.579 48.1074 364.233 50.4445 364.233 53.3275C364.233 56.2105 366.579 58.5476 369.473 58.5476Z" fill="#E6E6E6"/>
<path d="M410.767 97.3933C413.66 97.3933 416.006 95.0562 416.006 92.1732C416.006 89.2902 413.66 86.9531 410.767 86.9531C407.873 86.9531 405.527 89.2902 405.527 92.1732C405.527 95.0562 407.873 97.3933 410.767 97.3933Z" fill="#E6E6E6"/>
<path d="M391.394 202.532C394.288 202.532 396.634 200.195 396.634 197.312C396.634 194.429 394.288 192.092 391.394 192.092C388.501 192.092 386.155 194.429 386.155 197.312C386.155 200.195 388.501 202.532 391.394 202.532Z" fill="#E6E6E6"/>
<path d="M340.622 226.633C343.516 226.633 345.861 224.295 345.861 221.412C345.861 218.529 343.516 216.192 340.622 216.192C337.729 216.192 335.383 218.529 335.383 221.412C335.383 224.295 337.729 226.633 340.622 226.633Z" fill="#E6E6E6"/>
<path d="M287.575 216.844C290.469 216.844 292.814 214.507 292.814 211.624C292.814 208.741 290.469 206.404 287.575 206.404C284.682 206.404 282.336 208.741 282.336 211.624C282.336 214.507 284.682 216.844 287.575 216.844Z" fill="#E6E6E6"/>
<path d="M250.935 177.999C253.829 177.999 256.175 175.662 256.175 172.779C256.175 169.896 253.829 167.559 250.935 167.559C248.042 167.559 245.696 169.896 245.696 172.779C245.696 175.662 248.042 177.999 250.935 177.999Z" fill="#E6E6E6"/>
<path d="M263.998 77.2078C266.892 77.2078 269.238 74.8706 269.238 71.9877C269.238 69.1047 266.892 66.7676 263.998 66.7676C261.105 66.7676 258.759 69.1047 258.759 71.9877C258.759 74.8706 261.105 77.2078 263.998 77.2078Z" fill="#E6E6E6"/>
<path d="M279.716 126.146C282.609 126.146 284.955 123.809 284.955 120.926C284.955 118.043 282.609 115.706 279.716 115.706C276.822 115.706 274.477 118.043 274.477 120.926C274.477 123.809 276.822 126.146 279.716 126.146Z" fill="#E6E6E6"/>
<path d="M362.889 104.613C365.782 104.613 368.128 102.276 368.128 99.3929C368.128 96.51 365.782 94.1729 362.889 94.1729C359.995 94.1729 357.649 96.51 357.649 99.3929C357.649 102.276 359.995 104.613 362.889 104.613Z" fill="#E6E6E6"/>
<path d="M375.331 152.246C378.225 152.246 380.57 149.909 380.57 147.026C380.57 144.143 378.225 141.806 375.331 141.806C372.437 141.806 370.092 144.143 370.092 147.026C370.092 149.909 372.437 152.246 375.331 152.246Z" fill="#E6E6E6"/>
<path d="M412.006 163.339C420.325 163.339 427.069 156.62 427.069 148.331C427.069 140.042 420.325 133.323 412.006 133.323C403.687 133.323 396.943 140.042 396.943 148.331C396.943 156.62 403.687 163.339 412.006 163.339Z" fill="#2E44FF"/>
<path d="M337.347 191.397C345.666 191.397 352.41 184.678 352.41 176.39C352.41 168.101 345.666 161.382 337.347 161.382C329.028 161.382 322.284 168.101 322.284 176.39C322.284 184.678 329.028 191.397 337.347 191.397Z" fill="#2E44FF"/>
<path d="M318.355 99.3925C326.674 99.3925 333.417 92.6733 333.417 84.3847C333.417 76.0962 326.674 69.377 318.355 69.377C310.036 69.377 303.292 76.0962 303.292 84.3847C303.292 92.6733 310.036 99.3925 318.355 99.3925Z" fill="#2E44FF"/>
<path d="M331.726 78.4204C356.158 70.828 382.313 79.0388 406.88 72.0307C412.53 70.485 417.871 67.9765 422.668 64.6154C426.761 61.5124 430.603 58.0929 434.16 54.3884C441.55 47.0793 449.575 39.4045 460.678 39.4891C475.298 39.6006 486.524 50.461 496.269 60.0507C497.647 61.4061 499.77 59.2863 498.391 57.9294C489.436 49.1175 479.761 39.8211 467.015 37.1907C461.297 35.9226 455.329 36.4184 449.899 38.6126C445.187 40.7532 440.884 43.696 437.18 47.3095C433.255 50.9094 429.634 54.8286 425.655 58.3715C421.502 62.1499 416.717 65.1699 411.519 67.2938C400.258 71.7782 387.904 72.3191 375.926 72.1886C360.89 72.0248 345.495 71.0008 330.928 75.5276C329.09 76.0987 329.875 78.9956 331.726 78.4204Z" fill="#3F3D56"/>
<path d="M501.628 39.8321L509.138 53.0718L512.772 59.4781C513.418 60.6166 514.082 61.7469 514.711 62.8948C515.097 63.5999 515.941 64.8718 515.135 65.54C514.427 65.8858 513.631 66.01 512.852 65.8962C511.528 65.8991 510.203 65.8694 508.88 65.856L501.431 65.7805L486.038 65.6245C485.649 65.638 485.281 65.8019 485.01 66.0818C484.74 66.3616 484.589 66.7355 484.589 67.1245C484.589 67.5136 484.74 67.8875 485.01 68.1673C485.281 68.4472 485.649 68.6111 486.038 68.6245C494.974 68.7151 503.915 68.9038 512.852 68.8962C514.411 69.0453 515.971 68.6186 517.237 67.6965C517.857 67.0795 518.268 66.2832 518.41 65.4202C518.553 64.5572 518.421 63.6712 518.033 62.8874C517.152 60.9647 516.138 59.1055 514.999 57.3233L511.729 51.5576L504.218 38.3179C504.01 37.9888 503.683 37.7532 503.305 37.661C502.927 37.5687 502.527 37.6269 502.191 37.8233C501.855 38.0197 501.609 38.339 501.504 38.7138C501.398 39.0885 501.443 39.4895 501.628 39.8321Z" fill="#3F3D56"/>
<path d="M600.897 72.2741H531.867C531.488 72.2755 531.113 72.2021 530.763 72.0582C530.412 71.9143 530.094 71.7026 529.826 71.4354C529.558 71.1682 529.345 70.8506 529.199 70.501C529.054 70.1513 528.979 69.7764 528.979 69.3978C528.979 69.0192 529.054 68.6442 529.199 68.2946C529.345 67.9449 529.558 67.6274 529.826 67.3601C530.094 67.0929 530.412 66.8813 530.763 66.7374C531.113 66.5934 531.488 66.5201 531.867 66.5215H600.897C601.276 66.5201 601.651 66.5934 602.001 66.7374C602.351 66.8813 602.67 67.0929 602.938 67.3601C603.206 67.6274 603.419 67.9449 603.564 68.2946C603.709 68.6442 603.784 69.0192 603.784 69.3978C603.784 69.7764 603.709 70.1513 603.564 70.501C603.419 70.8506 603.206 71.1682 602.938 71.4354C602.67 71.7026 602.351 71.9143 602.001 72.0582C601.651 72.2021 601.276 72.2755 600.897 72.2741Z" fill="#2E44FF"/>
<path d="M600.897 118.602H531.867C531.488 118.604 531.113 118.53 530.763 118.386C530.412 118.242 530.094 118.031 529.826 117.764C529.558 117.496 529.345 117.179 529.199 116.829C529.054 116.479 528.979 116.105 528.979 115.726C528.979 115.347 529.054 114.972 529.199 114.623C529.345 114.273 529.558 113.955 529.826 113.688C530.094 113.421 530.412 113.209 530.763 113.065C531.113 112.922 531.488 112.848 531.867 112.85H600.897C601.276 112.848 601.651 112.922 602.001 113.065C602.351 113.209 602.67 113.421 602.938 113.688C603.206 113.955 603.419 114.273 603.564 114.623C603.709 114.972 603.784 115.347 603.784 115.726C603.784 116.105 603.709 116.479 603.564 116.829C603.419 117.179 603.206 117.496 602.938 117.764C602.67 118.031 602.351 118.242 602.001 118.386C601.651 118.53 601.276 118.604 600.897 118.602Z" fill="#E6E6E6"/>
<path d="M668.662 95.4381H531.867C531.488 95.4395 531.113 95.3662 530.763 95.2223C530.412 95.0784 530.094 94.8667 529.826 94.5995C529.558 94.3323 529.345 94.0147 529.199 93.665C529.054 93.3154 528.979 92.9405 528.979 92.5618C528.979 92.1832 529.054 91.8083 529.199 91.4587C529.345 91.109 529.558 90.7914 529.826 90.5242C530.094 90.257 530.412 90.0453 530.763 89.9014C531.113 89.7575 531.488 89.6842 531.867 89.6856H668.662C669.041 89.6842 669.416 89.7575 669.766 89.9014C670.117 90.0453 670.435 90.257 670.703 90.5242C670.971 90.7914 671.184 91.109 671.33 91.4587C671.475 91.8083 671.549 92.1832 671.549 92.5618C671.549 92.9405 671.475 93.3154 671.33 93.665C671.184 94.0147 670.971 94.3323 670.703 94.5995C670.435 94.8667 670.117 95.0784 669.766 95.2223C669.416 95.3662 669.041 95.4395 668.662 95.4381Z" fill="#E6E6E6"/>
<path d="M569.462 214.521H500.431C500.052 214.523 499.677 214.449 499.327 214.305C498.977 214.161 498.658 213.95 498.39 213.683C498.122 213.415 497.909 213.098 497.764 212.748C497.619 212.398 497.544 212.023 497.544 211.645C497.544 211.266 497.619 210.891 497.764 210.542C497.909 210.192 498.122 209.874 498.39 209.607C498.658 209.34 498.977 209.128 499.327 208.984C499.677 208.841 500.052 208.767 500.431 208.769H569.462C569.84 208.767 570.215 208.841 570.566 208.984C570.916 209.128 571.234 209.34 571.502 209.607C571.771 209.874 571.984 210.192 572.129 210.542C572.274 210.891 572.349 211.266 572.349 211.645C572.349 212.023 572.274 212.398 572.129 212.748C571.984 213.098 571.771 213.415 571.502 213.683C571.234 213.95 570.916 214.161 570.566 214.305C570.215 214.449 569.84 214.523 569.462 214.521Z" fill="#2E44FF"/>
<path d="M569.462 260.85H500.431C500.052 260.852 499.677 260.778 499.327 260.634C498.977 260.49 498.658 260.279 498.39 260.012C498.122 259.744 497.909 259.427 497.764 259.077C497.619 258.727 497.544 258.353 497.544 257.974C497.544 257.595 497.619 257.22 497.764 256.871C497.909 256.521 498.122 256.204 498.39 255.936C498.658 255.669 498.977 255.457 499.327 255.314C499.677 255.17 500.052 255.096 500.431 255.098H569.462C569.84 255.096 570.215 255.17 570.566 255.314C570.916 255.457 571.234 255.669 571.502 255.936C571.771 256.204 571.984 256.521 572.129 256.871C572.274 257.22 572.349 257.595 572.349 257.974C572.349 258.353 572.274 258.727 572.129 259.077C571.984 259.427 571.771 259.744 571.502 260.012C571.234 260.279 570.916 260.49 570.566 260.634C570.215 260.778 569.84 260.852 569.462 260.85Z" fill="#E6E6E6"/>
<path d="M637.227 237.686H500.431C500.052 237.688 499.677 237.614 499.327 237.47C498.977 237.326 498.658 237.115 498.39 236.848C498.122 236.58 497.909 236.263 497.764 235.913C497.619 235.563 497.544 235.189 497.544 234.81C497.544 234.431 497.619 234.056 497.764 233.707C497.909 233.357 498.122 233.039 498.39 232.772C498.658 232.505 498.977 232.293 499.327 232.149C499.677 232.006 500.052 231.932 500.431 231.934H637.227C637.606 231.932 637.981 232.006 638.331 232.149C638.681 232.293 638.999 232.505 639.268 232.772C639.536 233.039 639.749 233.357 639.894 233.707C640.039 234.056 640.114 234.431 640.114 234.81C640.114 235.189 640.039 235.563 639.894 235.913C639.749 236.263 639.536 236.58 639.268 236.848C638.999 237.115 638.681 237.326 638.331 237.47C637.981 237.614 637.606 237.688 637.227 237.686Z" fill="#E6E6E6"/>
<path d="M262.969 264.765H193.938C193.559 264.767 193.184 264.693 192.834 264.549C192.484 264.406 192.165 264.194 191.897 263.927C191.629 263.659 191.416 263.342 191.271 262.992C191.126 262.643 191.051 262.268 191.051 261.889C191.051 261.51 191.126 261.135 191.271 260.786C191.416 260.436 191.629 260.119 191.897 259.851C192.165 259.584 192.484 259.372 192.834 259.229C193.184 259.085 193.559 259.011 193.938 259.013H262.969C263.347 259.011 263.722 259.085 264.073 259.229C264.423 259.372 264.741 259.584 265.009 259.851C265.278 260.119 265.49 260.436 265.636 260.786C265.781 261.135 265.856 261.51 265.856 261.889C265.856 262.268 265.781 262.643 265.636 262.992C265.49 263.342 265.278 263.659 265.009 263.927C264.741 264.194 264.423 264.406 264.073 264.549C263.722 264.693 263.347 264.767 262.969 264.765Z" fill="#2E44FF"/>
<path d="M262.969 311.093H193.938C193.559 311.095 193.184 311.021 192.834 310.878C192.484 310.734 192.165 310.522 191.897 310.255C191.629 309.988 191.416 309.67 191.271 309.32C191.126 308.971 191.051 308.596 191.051 308.217C191.051 307.838 191.126 307.464 191.271 307.114C191.416 306.764 191.629 306.447 191.897 306.179C192.165 305.912 192.484 305.701 192.834 305.557C193.184 305.413 193.559 305.339 193.938 305.341H262.969C263.347 305.339 263.722 305.413 264.073 305.557C264.423 305.701 264.741 305.912 265.009 306.179C265.278 306.447 265.49 306.764 265.636 307.114C265.781 307.464 265.856 307.838 265.856 308.217C265.856 308.596 265.781 308.971 265.636 309.32C265.49 309.67 265.278 309.988 265.009 310.255C264.741 310.522 264.423 310.734 264.073 310.878C263.722 311.021 263.347 311.095 262.969 311.093Z" fill="#E6E6E6"/>
<path d="M330.734 287.929H193.938C193.559 287.931 193.184 287.857 192.834 287.713C192.484 287.57 192.165 287.358 191.897 287.091C191.629 286.823 191.416 286.506 191.271 286.156C191.126 285.807 191.051 285.432 191.051 285.053C191.051 284.674 191.126 284.3 191.271 283.95C191.416 283.6 191.629 283.283 191.897 283.015C192.165 282.748 192.484 282.537 192.834 282.393C193.184 282.249 193.559 282.175 193.938 282.177H330.734C331.112 282.175 331.488 282.249 331.838 282.393C332.188 282.537 332.506 282.748 332.775 283.015C333.043 283.283 333.256 283.6 333.401 283.95C333.546 284.3 333.621 284.674 333.621 285.053C333.621 285.432 333.546 285.807 333.401 286.156C333.256 286.506 333.043 286.823 332.775 287.091C332.506 287.358 332.188 287.57 331.838 287.713C331.488 287.857 331.112 287.931 330.734 287.929Z" fill="#E6E6E6"/>
<path d="M409.378 148.617L460.993 187.558L475.683 198.641C477.225 199.804 478.721 197.2 477.198 196.051L425.582 157.11L410.892 146.027C409.35 144.864 407.854 147.468 409.378 148.617Z" fill="#3F3D56"/>
<path d="M453.298 201.017C464.555 206.418 476.793 209.473 489.268 209.994C489.498 209.991 489.724 209.936 489.93 209.833C490.135 209.729 490.314 209.581 490.454 209.398C490.593 209.215 490.689 209.002 490.734 208.777C490.779 208.551 490.772 208.318 490.714 208.096L482.721 176.012C482.254 174.14 479.36 174.933 479.828 176.809L487.821 208.893L489.268 206.994C477.321 206.5 465.599 203.586 454.812 198.426C453.08 197.596 451.556 200.182 453.298 201.017Z" fill="#3F3D56"/>
<path d="M335.4 175.699L298.311 228.742L287.857 243.692C286.749 245.278 289.348 246.779 290.448 245.206L327.537 192.164L337.99 177.213C339.099 175.628 336.499 174.127 335.4 175.699Z" fill="#3F3D56"/>
<path d="M284.588 221.5C279.61 232.908 277.021 245.214 276.98 257.661C276.983 257.891 277.038 258.118 277.141 258.323C277.245 258.529 277.394 258.708 277.577 258.847C277.76 258.987 277.972 259.083 278.198 259.128C278.423 259.173 278.656 259.166 278.879 259.108L310.738 249.879C311.109 249.763 311.421 249.507 311.607 249.165C311.794 248.823 311.84 248.423 311.736 248.048C311.633 247.672 311.388 247.352 311.053 247.154C310.718 246.956 310.319 246.896 309.941 246.986L278.081 256.215L279.98 257.661C279.995 245.742 282.444 233.952 287.179 223.014C287.941 221.261 285.357 219.732 284.588 221.5Z" fill="#3F3D56"/>
</g>
<defs>
<clipPath id="clip0_1484_13511">
<rect width="671.549" height="517.61" fill="white"/>
</clipPath>
</defs>
</svg>
