<svg width="114" height="23" viewBox="0 0 114 23" fill="none" xmlns="http://www.w3.org/2000/svg">
<path d="M36.2398 10.1334C36.6301 10.1334 37.0354 10.216 37.4558 10.3811C37.8762 10.5463 38.2815 10.7639 38.6719 11.0342H38.6493C39.0397 11.3044 39.3399 11.6722 39.5501 12.1376C39.7603 12.603 39.8654 13.136 39.8654 13.7365V16.8217C39.8654 18.0377 39.46 18.946 38.6493 19.5465C38.259 19.8318 37.8537 20.057 37.4333 20.2221C37.0279 20.3723 36.6301 20.4473 36.2398 20.4473H31.3305C30.9402 20.4473 30.5348 20.3723 30.1145 20.2221C29.7091 20.057 29.3113 19.8318 28.9209 19.5465C28.1102 18.946 27.7049 18.0377 27.7049 16.8217V15.3354C27.7049 14.6298 28.1478 14.277 29.0335 14.277C29.9343 14.277 30.3847 14.6298 30.3847 15.3354V16.6415C30.3847 17.0319 30.4973 17.3847 30.7225 17.6999C30.9477 18.0152 31.338 18.1729 31.8935 18.1729H35.6768C36.2323 18.1729 36.6226 18.0152 36.8478 17.6999C37.073 17.3847 37.1856 17.0319 37.1856 16.6415V13.9167C37.1856 13.5413 37.073 13.1961 36.8478 12.8808C36.6226 12.5505 36.2323 12.3854 35.6768 12.3854H31.3305C30.5498 12.3854 29.7466 12.1001 28.9209 11.5296C28.1102 10.8991 27.7049 9.99078 27.7049 8.80475V6.12493C27.7049 5.52442 27.81 4.99896 28.0202 4.54857C28.2303 4.08317 28.5306 3.70784 28.9209 3.4226H28.8984C29.2887 3.16738 29.6941 2.95719 30.1145 2.79205C30.5348 2.62691 30.9402 2.54434 31.3305 2.54434H36.2398C36.6301 2.54434 37.0354 2.62691 37.4558 2.79205C37.8762 2.95719 38.2815 3.16738 38.6719 3.4226H38.6493C39.0397 3.70784 39.3399 4.08317 39.5501 4.54857C39.7603 4.99896 39.8654 5.52442 39.8654 6.12493V7.45358C39.8654 8.15919 39.415 8.512 38.5142 8.512C37.6285 8.512 37.1856 8.15919 37.1856 7.45358V6.32761C37.1856 5.95229 37.073 5.60699 36.8478 5.29171C36.6226 4.97644 36.2323 4.8188 35.6768 4.8188H31.8935C31.338 4.8188 30.9477 4.97644 30.7225 5.29171C30.4973 5.60699 30.3847 5.95229 30.3847 6.32761V8.6246C30.3847 9.01493 30.4973 9.36774 30.7225 9.68301C30.9477 9.98327 31.338 10.1334 31.8935 10.1334H36.2398Z" fill="#1A1B1D"/>
<path d="M52.9327 3.51267C52.9327 2.79205 53.3756 2.43174 54.2613 2.43174C55.1471 2.43174 55.59 2.79205 55.59 3.51267V19.0511C55.59 19.5766 55.3122 19.9594 54.7568 20.1996H54.7793C54.5391 20.3047 54.2838 20.3873 54.0136 20.4473C53.7434 20.5074 53.4807 20.5374 53.2254 20.5374C53.0303 20.5374 52.8276 20.5149 52.6174 20.4698C52.4072 20.4398 52.2045 20.3873 52.0094 20.3122C51.8292 20.2221 51.6566 20.1095 51.4914 19.9744C51.3413 19.8243 51.2212 19.6441 51.1311 19.4339L46.2444 7.25091L45.6364 7.31847V19.479C45.6364 20.1996 45.186 20.5599 44.2852 20.5599C43.3994 20.5599 42.9565 20.1996 42.9565 19.479V3.96306C42.9565 3.34753 43.2268 2.93467 43.7673 2.72449C44.2627 2.52932 44.7881 2.43174 45.3436 2.43174C45.734 2.43174 46.1243 2.51431 46.5146 2.67945C46.92 2.82958 47.2277 3.12234 47.4379 3.55771L52.3021 15.7633L52.9327 15.6957V3.51267Z" fill="#1A1B1D"/>
<path d="M67.0065 2.54434C67.3968 2.54434 67.8022 2.62691 68.2225 2.79205C68.6429 2.95719 69.0482 3.16738 69.4386 3.4226H69.4161C69.8064 3.70784 70.1067 4.08317 70.3168 4.54857C70.527 4.99896 70.6321 5.52442 70.6321 6.12493V16.8217C70.6321 18.0377 70.2268 18.946 69.4161 19.5465C69.0257 19.8318 68.6204 20.057 68.2 20.2221C67.7947 20.3723 67.3968 20.4473 67.0065 20.4473H62.0972C61.7069 20.4473 61.3015 20.3723 60.8812 20.2221C60.4758 20.057 60.078 19.8318 59.6876 19.5465C59.2973 19.2463 58.997 18.8785 58.7869 18.4431C58.5767 17.9927 58.4716 17.4522 58.4716 16.8217V6.12493C58.4716 5.52442 58.5767 4.99896 58.7869 4.54857C58.997 4.08317 59.2973 3.70784 59.6876 3.4226H59.6651C60.0555 3.16738 60.4608 2.95719 60.8812 2.79205C61.3015 2.62691 61.7069 2.54434 62.0972 2.54434H67.0065ZM66.4435 18.1729C66.999 18.1729 67.3893 18.0152 67.6145 17.6999C67.8397 17.3847 67.9523 17.0319 67.9523 16.6415V6.32761C67.9523 5.95229 67.8397 5.60699 67.6145 5.29171C67.3893 4.97644 66.999 4.8188 66.4435 4.8188H62.6602C62.1047 4.8188 61.7144 4.97644 61.4892 5.29171C61.264 5.60699 61.1514 5.95229 61.1514 6.32761V16.6415C61.1514 17.0319 61.264 17.3847 61.4892 17.6999C61.7144 18.0152 62.1047 18.1729 62.6602 18.1729H66.4435Z" fill="#1A1B1D"/>
<path d="M79.9649 13.0159H78.2309C77.9756 13.0159 77.773 12.9183 77.6228 12.7231C77.4877 12.513 77.4202 12.2352 77.4202 11.8899C77.4202 11.1243 77.7354 10.7414 78.366 10.7414H81.0007C81.5562 10.7414 81.9466 10.5838 82.1718 10.2685C82.397 9.95325 82.5096 9.60795 82.5096 9.23262V6.32761C82.5096 5.95229 82.397 5.60699 82.1718 5.29171C81.9466 4.97644 81.5562 4.8188 81.0007 4.8188H76.2491V19.5015C76.2491 20.2221 75.8063 20.5824 74.9205 20.5824C74.0347 20.5824 73.5918 20.2221 73.5918 19.5015V3.89551C73.5918 3.35504 73.727 2.99473 73.9972 2.81457C74.2824 2.63441 74.6202 2.54434 75.0106 2.54434H81.5637C81.9541 2.54434 82.3594 2.62691 82.7798 2.79205C83.2001 2.95719 83.6055 3.16738 83.9958 3.4226H83.9733C84.3637 3.70784 84.6639 4.08317 84.8741 4.54857C85.0843 4.99896 85.1894 5.52442 85.1894 6.12493V9.41278C85.1894 10.6288 84.784 11.5371 83.9733 12.1376C83.8082 12.2577 83.628 12.3703 83.4329 12.4754C83.2527 12.5805 83.065 12.6856 82.8699 12.7907L86.473 18.7358C86.518 18.8109 86.5631 18.9085 86.6081 19.0286C86.6531 19.1487 86.6757 19.2463 86.6757 19.3214C86.6757 19.6817 86.4204 20.027 85.91 20.3572V20.3347C85.5647 20.5449 85.2719 20.65 85.0317 20.65C84.6864 20.65 84.4087 20.4774 84.1985 20.1321L84.221 20.1546L79.9649 13.0159Z" fill="#1A1B1D"/>
<path d="M97.8414 2.81457C98.0666 2.54434 98.3219 2.40922 98.6071 2.40922C98.9224 2.40922 99.2452 2.55184 99.5754 2.83709C99.7406 3.00223 99.8757 3.16738 99.9808 3.33252C100.101 3.49766 100.161 3.6628 100.161 3.82795C100.161 4.09818 100.063 4.33088 99.8682 4.52605L96.8506 8.03909L90.973 14.9526V19.479C90.973 20.1996 90.5226 20.5599 89.6218 20.5599C88.7361 20.5599 88.2932 20.1996 88.2932 19.479V3.51267C88.2932 2.79205 88.7361 2.43174 89.6218 2.43174C90.5226 2.43174 90.973 2.79205 90.973 3.51267V10.8765L97.8414 2.81457ZM94.6437 13.5113C94.4936 13.3011 94.4185 13.0459 94.4185 12.7457C94.4185 12.2953 94.6061 11.935 94.9815 11.6647H94.959C95.2592 11.4545 95.5595 11.3495 95.8597 11.3495C96.145 11.3495 96.3852 11.5146 96.5804 11.8449L100.927 18.1954L100.904 18.1729C101.039 18.383 101.107 18.6082 101.107 18.8484C101.107 19.2388 100.912 19.5841 100.521 19.8843H100.544C100.379 19.9894 100.221 20.072 100.071 20.1321C99.9207 20.1921 99.7856 20.2221 99.6655 20.2221C99.5454 20.2221 99.4178 20.1771 99.2827 20.087C99.1626 19.9969 99.0425 19.8843 98.9224 19.7492L94.6437 13.5113Z" fill="#1A1B1D"/>
<path d="M103.952 20.4473C103.397 20.4473 103.022 20.3047 102.827 20.0195C102.631 19.7342 102.534 19.4189 102.534 19.0736V3.51267C102.534 2.79205 102.969 2.43174 103.84 2.43174C104.741 2.43174 105.191 2.79205 105.191 3.51267V18.1729H112.713C113.253 18.1729 113.523 18.5407 113.523 19.2763C113.553 20.057 113.283 20.4473 112.713 20.4473H103.952Z" fill="#1A1B1D"/>
<path d="M0.90332 8.4248H22.9033V19.4248C22.9033 21.0817 21.5602 22.4248 19.9033 22.4248H3.90332C2.24647 22.4248 0.90332 21.0817 0.90332 19.4248V8.4248Z" fill="#2D3FFF"/>
<path d="M0.90332 3.4248C0.90332 1.76795 2.24647 0.424805 3.90332 0.424805H19.9033C21.5602 0.424805 22.9033 1.76795 22.9033 3.4248V8.4248H0.90332V3.4248Z" fill="#2DB6FF"/>
<path d="M11.1326 9.80661C10.0116 9.39949 9.07742 9.13231 8.33007 9.00509C7.61387 8.85241 6.91323 8.77608 6.22816 8.77608C5.35626 8.77608 4.43764 8.99236 3.47232 9.42493C2.507 9.8575 1.65067 10.3919 0.90332 11.028V7.44771C1.65067 6.78613 2.49143 6.28994 3.42561 5.95916C4.3598 5.60292 5.3874 5.4248 6.50842 5.4248C7.41146 5.4248 8.29893 5.50114 9.17084 5.65381C10.0739 5.80648 11.2416 6.13727 12.674 6.64618C13.795 7.0533 14.7137 7.3332 15.4299 7.48587C16.1772 7.6131 16.8778 7.67671 17.5318 7.67671C18.4348 7.67671 19.369 7.46043 20.3343 7.02786C21.2996 6.59529 22.156 6.06094 22.9033 5.4248V8.96692C22.156 9.62849 21.3152 10.1374 20.381 10.4936C19.4468 10.8499 18.4192 11.028 17.2982 11.028C16.4263 11.028 15.5233 10.9516 14.5891 10.799C13.6861 10.6209 12.5339 10.2901 11.1326 9.80661Z" fill="#2D3FFF"/>
<path d="M18.9033 11.4248C18.9033 12.5294 18.0079 13.4248 16.9033 13.4248C15.7988 13.4248 14.9033 12.5294 14.9033 11.4248C14.9033 10.3202 15.7988 9.4248 16.9033 9.4248C18.0079 9.4248 18.9033 10.3202 18.9033 11.4248Z" fill="white"/>
<path d="M13.9033 14.9248C13.9033 17.9624 11.4409 20.4248 8.40332 20.4248C5.36575 20.4248 2.90332 17.9624 2.90332 14.9248C2.90332 11.8872 5.36575 9.4248 8.40332 9.4248C11.4409 9.4248 13.9033 11.8872 13.9033 14.9248Z" fill="white"/>
</svg>
