<?xml version="1.0" encoding="UTF-8"?>
<svg id="_레이어_2" data-name="레이어 2" xmlns="http://www.w3.org/2000/svg" viewBox="0 0 185.72 35.09">
  <defs>
    <style>
      .cls-1 {
        fill: #4e5cff;
      }

      .cls-2 {
        fill: #4154e8;
      }

      .cls-3 {
        fill: #7883ff;
      }

      .cls-4 {
        fill: #01bfa6;
      }

      .cls-5 {
        fill: #5c50ff;
      }

      .cls-6 {
        fill: #2e44ff;
      }

      .cls-7 {
        fill: #fd6584;
      }
    </style>
  </defs>
  <g id="_레이어_1-2" data-name="레이어 1">
    <g>
      <path class="cls-4" d="M0,22.85c8.27-.27,17.36-2.16,18.82-9.7.8-4.11-1.11-7.7,0-9.68,2.03-3.64,9.95,5.69,20.22,12.1,7.36,4.6,13.93,6.46,18.73,7.28"/>
      <path class="cls-6" d="M.04,22.84c14.48.93,21.15-5.64,24.56-12.1,2.32-4.4,2.97-8.47,5.78-9.68,4.47-1.92,7.98,6.17,17.34,14.52,4.12,3.68,7.73,5.94,10.11,7.26"/>
      <path class="cls-7" d="M0,22.85c14.26.55,21.61-4.81,27.49-9.7,7.89-6.55,14.7-16.41,18.78-12.1,2.33,2.45,1.85,7.49,5.78,14.52,2.04,3.64,4.18,5.9,5.73,7.28"/>
      <g>
        <path class="cls-3" d="M.3,22.85s.02,0,.03,0c.4,0,.79,0,1.17,0H.3Z"/>
        <path class="cls-3" d="M5.27,22.84h-3.06c-.23,0-.47.01-.71.01h3.57c.07,0,.14,0,.2-.01Z"/>
        <path class="cls-3" d="M57.67,22.75c-2.38-1.34-5.92-3.57-9.95-7.17-4.82-4.3-8.08-8.53-10.73-11.36-2.87,2.66-6.08,6.11-9.5,8.94-3.33,2.77-7.46,5.74-12.87,7.63-2.53,1.16-10.81,1.92-14.44,2.18,8.37,1.83,23.57,3.02,35.01,2.67,8.39-.25,15.97-1.35,22.57-2.79-.03-.03-.07-.06-.1-.09Z"/>
      </g>
      <path class="cls-5" d="M57.75,22.84h.03s-.07-.06-.1-.09c-2.38-1.34-5.92-3.57-9.95-7.17-4.82-4.3-8.08-8.53-10.73-11.36-1.82,1.69-3.79,3.69-5.85,5.66,2.42,1.9,5.11,3.92,7.97,5.71,7.3,4.56,13.83,6.43,18.63,7.26Z"/>
      <g>
        <path class="cls-6" d="M5.03,22.85H1.46c-.39,0-.78,0-1.17,0-.01,0-.02,0-.03,0h1.21c.16,0,.32,0,.47,0H.42c-.07,0-.14,0-.21,0,.04,0,.08,0,.12,0h4.77c.07,0,.14,0,.2-.01h-.13s-.09,0-.14,0Z"/>
        <path class="cls-1" d="M31.1,9.87c-1.62-1.27-3.12-2.48-4.48-3.54-.57,1.36-1.18,2.86-1.99,4.41-1.94,3.69-4.96,7.42-9.88,9.76,5.25-1.88,9.44-4.63,12.7-7.34,1.25-1.03,2.46-2.15,3.65-3.28Z"/>
        <path class="cls-6" d="M5.35,22.84s-.04,0-.06,0"/>
        <path class="cls-6" d="M5.23,22.84h-3.06c-.08,0-.16,0-.23,0h3.23s.04,0,.07,0Z"/>
        <path class="cls-6" d="M14.75,20.5c-.11.04-.22.08-.33.12-2.53,1.16-5.56,1.96-9.19,2.22h.12c3.73-.27,6.83-1.12,9.4-2.34Z"/>
      </g>
      <g>
        <path class="cls-2" d="M66.79,9.57l-.17,1.52c1.29-1.29,2.79-1.94,4.48-1.94,1.03,0,1.82.19,2.37.57.55.36,1.05,1.03,1.49,2.03,1.62-1.72,3.36-2.58,5.23-2.58,3.23,0,4.85,1.48,4.85,4.45,0,.3-.03.72-.08,1.26-.05.54-.12,1.21-.22,2.01l-1.11,8.99h-3.83l1.18-9.44c.1-.88.16-1.52.16-1.94,0-1.42-.72-2.13-2.15-2.13-.57,0-1.06.08-1.47.25-.42.17-.77.43-1.06.78s-.54.81-.73,1.37-.34,1.23-.44,2l-1.11,9.11h-3.83l1.19-9.68c.1-.88.16-1.48.16-1.8,0-1.35-.73-2.03-2.2-2.03-2.12,0-3.37,1.47-3.72,4.42l-1.12,9.09h-3.83l2.01-16.31h3.95Z"/>
        <path class="cls-2" d="M103.48,9.57l-2.01,16.31h-3.83l.23-1.77c-1.64,1.43-3.34,2.15-5.09,2.15-2.16,0-3.92-.73-5.28-2.2-1.36-1.47-2.04-3.36-2.04-5.7,0-2.69.78-4.89,2.34-6.61,1.58-1.72,3.61-2.58,6.08-2.58,1.17,0,2.16.19,2.98.57.83.38,1.68,1.04,2.54,1.97l.26-2.15h3.83ZM98.83,17.25c0-1.44-.42-2.61-1.25-3.51-.83-.91-1.9-1.37-3.22-1.37-1.43,0-2.63.56-3.6,1.68-.97,1.13-1.45,2.52-1.45,4.16,0,1.43.4,2.6,1.21,3.51.81.91,1.85,1.37,3.12,1.37,1.41,0,2.63-.57,3.65-1.71,1.03-1.17,1.54-2.54,1.54-4.12Z"/>
        <path class="cls-2" d="M109.8,9.57l-.17,1.51c1.51-1.27,3.04-1.9,4.59-1.9s2.87.44,3.83,1.33c.93.89,1.4,2.1,1.4,3.64,0,.83-.07,1.82-.21,2.98l-1.09,8.76h-3.81l1.18-9.59c.05-.36.08-.68.1-.95.02-.28.03-.52.03-.74,0-1.48-.8-2.22-2.39-2.22-.98,0-1.82.3-2.53.9-.58.47-1,1.05-1.28,1.73-.15.35-.28.77-.38,1.27-.1.5-.2,1.08-.28,1.74l-.97,7.86h-3.83l2.01-16.31h3.81Z"/>
        <path class="cls-2" d="M126.32,13.11l-1.58,12.76h-3.83l1.58-12.76h-2.16l.43-3.55h2.16l.93-7.57h3.83l-.94,7.57h3.53l-.43,3.55h-3.53Z"/>
        <path class="cls-2" d="M147.59,9.57l-2.01,16.31h-3.83l.23-1.77c-1.64,1.43-3.34,2.15-5.09,2.15-2.16,0-3.92-.73-5.28-2.2-1.36-1.47-2.04-3.36-2.04-5.7,0-2.69.78-4.89,2.34-6.61,1.58-1.72,3.61-2.58,6.08-2.58,1.17,0,2.16.19,2.98.57.83.38,1.68,1.04,2.54,1.97l.26-2.15h3.83ZM142.93,17.25c0-1.44-.42-2.61-1.25-3.51-.83-.91-1.9-1.37-3.22-1.37-1.43,0-2.63.56-3.6,1.68-.97,1.13-1.45,2.52-1.45,4.16,0,1.43.4,2.6,1.21,3.51.81.91,1.85,1.37,3.12,1.37,1.41,0,2.63-.57,3.65-1.71,1.03-1.17,1.54-2.54,1.54-4.12Z"/>
        <path class="cls-2" d="M167.19,9.57l-2.01,16.43c-.13.98-.27,1.84-.42,2.56-.16.73-.33,1.34-.53,1.84-.4,1.02-1,1.89-1.8,2.61-1.55,1.38-3.55,2.08-6.02,2.08s-4.62-.67-6.2-2.01c-.81-.67-1.37-1.43-1.7-2.29-.32-.79-.48-1.89-.48-3.31h3.71c.09,1.53.48,2.65,1.18,3.35.69.7,1.77,1.05,3.22,1.05,1.57,0,2.76-.42,3.58-1.26.82-.84,1.34-2.17,1.56-3.99l.28-2.23c-1.62,1.24-3.31,1.85-5.09,1.85-2.22,0-4.05-.76-5.49-2.27-1.44-1.55-2.16-3.47-2.16-5.78,0-2.6.84-4.75,2.51-6.46,1.69-1.72,3.79-2.58,6.32-2.58,1.21,0,2.19.18,2.94.54.82.35,1.67.98,2.54,1.89l.24-2.03h3.83ZM162.79,17.3c0-1.48-.45-2.67-1.35-3.57-.9-.91-2.08-1.37-3.53-1.37s-2.77.55-3.77,1.66c-.99,1.1-1.49,2.48-1.49,4.14,0,1.45.43,2.64,1.28,3.57.87.89,2.01,1.33,3.43,1.33,1.58,0,2.88-.54,3.9-1.63,1.03-1.1,1.54-2.48,1.54-4.14Z"/>
        <path class="cls-2" d="M185.72,17.56c0,2.49-.87,4.59-2.6,6.28-1.72,1.7-3.84,2.55-6.37,2.55s-4.8-.8-6.48-2.41c-1.68-1.62-2.53-3.66-2.53-6.13s.87-4.63,2.61-6.3c1.75-1.69,3.95-2.53,6.58-2.53s4.69.8,6.32,2.39c1.64,1.57,2.46,3.62,2.46,6.15ZM181.85,17.37c0-1.57-.46-2.81-1.37-3.72-.91-.95-2.11-1.42-3.58-1.42s-2.8.53-3.81,1.58c-1,1.06-1.51,2.4-1.51,4s.47,2.91,1.42,3.9c.95,1,2.17,1.51,3.67,1.51s2.74-.55,3.71-1.64c.98-1.08,1.47-2.48,1.47-4.19Z"/>
      </g>
    </g>
  </g>
</svg>