<?xml version="1.0" encoding="UTF-8"?>
<svg id="_레이어_1" data-name="레이어_1" xmlns="http://www.w3.org/2000/svg" version="1.1" viewBox="0 0 1600 1024">
  <!-- Generator: Adobe Illustrator 29.2.0, SVG Export Plug-In . SVG Version: 2.1.0 Build 108)  -->
  <defs>
    <style>
      .st0 {
        opacity: .5;
      }

      .st0, .st1 {
        fill: #01bfa6;
      }

      .st2 {
        opacity: .7;
      }

      .st2, .st3 {
        fill: #fd6584;
      }

      .st4 {
        fill: #2f2e41;
      }

      .st5 {
        fill: #ebebeb;
      }

      .st6 {
        fill: #3f3d56;
      }

      .st7 {
        fill: #fff;
      }

      .st8 {
        opacity: .3;
      }

      .st9 {
        fill: #2e44ff;
      }

      .st10 {
        fill: #a0616a;
      }
    </style>
  </defs>
  <rect class="st7" width="1600" height="1024"/>
  <g>
    <g>
      <rect class="st5" x="1156.7" y="400.4" width="14.3" height="353.5"/>
      <rect class="st5" x="1180.7" y="330.2" width="14.3" height="494.1"/>
      <rect class="st5" x="1204.7" y="298.6" width="14.3" height="557.1"/>
      <rect class="st5" x="1084.5" y="526.6" width="14.3" height="101.2"/>
      <rect class="st5" x="1108.6" y="506.4" width="14.3" height="141.5"/>
      <rect class="st5" x="1469.2" y="526.6" width="14.3" height="101.2" transform="translate(2952.7 1154.4) rotate(-180)"/>
      <rect class="st5" x="1445.2" y="506.4" width="14.3" height="141.5" transform="translate(2904.6 1154.4) rotate(-180)"/>
      <rect class="st5" x="1132.6" y="476.3" width="14.3" height="201.7"/>
      <rect class="st5" x="1228.8" y="350.2" width="14.3" height="454"/>
      <rect class="st5" x="1252.8" y="399.8" width="14.3" height="354.8"/>
      <rect class="st5" x="1276.9" y="440.9" width="14.3" height="272.5"/>
      <rect class="st5" x="1421.1" y="436.1" width="14.3" height="282.2" transform="translate(2856.5 1154.4) rotate(-180)"/>
      <rect class="st5" x="1397.1" y="365.8" width="14.3" height="422.8" transform="translate(2808.4 1154.4) rotate(-180)"/>
      <rect class="st5" x="1373" y="334.3" width="14.3" height="485.8" transform="translate(2760.4 1154.4) rotate(-180)"/>
      <rect class="st5" x="1349" y="385.8" width="14.3" height="382.7" transform="translate(2712.3 1154.4) rotate(-180)"/>
      <rect class="st5" x="1325" y="435.4" width="14.3" height="283.5" transform="translate(2664.2 1154.4) rotate(-180)"/>
      <rect class="st5" x="1300.9" y="476.6" width="14.3" height="201.3" transform="translate(2616.1 1154.4) rotate(-180)"/>
    </g>
    <g class="st8">
      <rect class="st3" x="805.7" y="383.5" width="14.3" height="339.7"/>
      <rect class="st3" x="829.7" y="316" width="14.3" height="474.8"/>
      <rect class="st3" x="853.8" y="285.7" width="14.3" height="535.3"/>
      <rect class="st3" x="733.6" y="504.7" width="14.3" height="97.3"/>
      <rect class="st3" x="757.6" y="485.4" width="14.3" height="136"/>
      <rect class="st3" x="1118.3" y="504.7" width="14.3" height="97.3" transform="translate(2250.8 1106.8) rotate(-180)"/>
      <rect class="st3" x="1094.2" y="485.4" width="14.3" height="136" transform="translate(2202.7 1106.8) rotate(-180)"/>
      <rect class="st3" x="781.7" y="456.5" width="14.3" height="193.8"/>
      <rect class="st3" x="877.8" y="335.2" width="14.3" height="436.3"/>
      <rect class="st3" x="901.9" y="382.9" width="14.3" height="341"/>
      <rect class="st3" x="925.9" y="422.4" width="14.3" height="261.9"/>
      <rect class="st3" x="1070.2" y="417.8" width="14.3" height="271.2" transform="translate(2154.6 1106.8) rotate(-180)"/>
      <rect class="st3" x="1046.1" y="350.2" width="14.3" height="406.3" transform="translate(2106.5 1106.8) rotate(-180)"/>
      <rect class="st3" x="1022.1" y="320" width="14.3" height="466.9" transform="translate(2058.5 1106.8) rotate(-180)"/>
      <rect class="st3" x="998" y="369.5" width="14.3" height="367.8" transform="translate(2010.4 1106.8) rotate(-180)"/>
      <rect class="st3" x="974" y="417.1" width="14.3" height="272.5" transform="translate(1962.3 1106.8) rotate(-180)"/>
      <rect class="st3" x="950" y="456.7" width="14.3" height="193.4" transform="translate(1914.2 1106.8) rotate(-180)"/>
    </g>
    <g class="st8">
      <rect class="st1" x="998" y="607.9" width="14.3" height="177.4" transform="translate(2010.3 1393.2) rotate(180)"/>
      <rect class="st1" x="974" y="572.6" width="14.3" height="248" transform="translate(1962.2 1393.2) rotate(180)"/>
      <rect class="st1" x="949.9" y="556.8" width="14.3" height="279.6" transform="translate(1914.1 1393.2) rotate(180)"/>
      <rect class="st1" x="1070.1" y="671.2" width="14.3" height="50.8" transform="translate(2154.6 1393.2) rotate(180)"/>
      <rect class="st1" x="1046.1" y="661.1" width="14.3" height="71" transform="translate(2106.5 1393.2) rotate(180)"/>
      <rect class="st1" x="685.5" y="671.2" width="14.3" height="50.8"/>
      <rect class="st1" x="709.5" y="661.1" width="14.3" height="71"/>
      <rect class="st1" x="1022.1" y="646" width="14.3" height="101.2" transform="translate(2058.4 1393.2) rotate(180)"/>
      <rect class="st1" x="925.9" y="582.7" width="14.3" height="227.9" transform="translate(1866.1 1393.2) rotate(180)"/>
      <rect class="st1" x="901.8" y="607.6" width="14.3" height="178.1" transform="translate(1818 1393.2) rotate(180)"/>
      <rect class="st1" x="877.8" y="628.2" width="14.3" height="136.8" transform="translate(1769.9 1393.2) rotate(180)"/>
      <rect class="st1" x="733.5" y="625.8" width="14.3" height="141.7"/>
      <rect class="st1" x="757.6" y="590.5" width="14.3" height="212.2"/>
      <rect class="st1" x="781.6" y="574.7" width="14.3" height="243.8"/>
      <rect class="st1" x="805.7" y="600.6" width="14.3" height="192.1"/>
      <rect class="st1" x="829.7" y="625.4" width="14.3" height="142.3"/>
      <rect class="st1" x="853.8" y="646.1" width="14.3" height="101"/>
    </g>
    <g>
      <path class="st3" d="M966.1,685.1c-3.8,7.4,40.2,7.9,19.9,22.8-20.3,14.9-67.9,44.8-92.1,63.9-24.2,19.2-69.8,51.4-86.5,59.4-16.7,8-15.7,8.8.9,4.7,16.7-4.1,63.3-33.6,89.3-51.2,25.9-17.6,70.4-40.9,102.1-53.2,1.5,3.6-3.4,9,2.1,12.4,5.5,3.4,16.3-5.6,19.6-9,3.2-3.4,5-9.8,9.1-5.9,4.2,3.9,10.6,13.9,17.7,14.2,7.1.3,11-8.3,14.5-13.1,3.5-4.8,6-10.7,9.6-15,3.6-4.3,8.1-6.5,11.8-10.4-27.3-6.6-93.6-24.7-117.9-19.8Z"/>
      <path class="st2" d="M1289.3,528c26.3-24.2,40.1-52,65.6-78.3,25.5-26.3,45.3-60.9,54.6-91,9.3-30.1,5.7-20.4,16.8,8.2,11.1,28.5,13.3,91.7,1.5,120.2-11.8,28.5-8,69.7-28.9,75.7-20.9,5.9-73.7-34.7-109.6-34.7Z"/>
      <path class="st0" d="M733.2,431.5c46.8,148,184.3,214.6,284.1,230.2,99.8,15.5,177.9-60.3,206.9-55.7,29,4.5,41,28.8,60,31.2,19,2.3,37.2.3,46.9,10.3,8.9,9.2,71.7,20.3,72.5,4.5.8-15.8-32-29.5-44.3-34-12.3-4.5-77.8-34.2-37.8-39.8,40.1-5.6,76.3,32.5,98.7,46.6,22.4,14.1,61.5,23.9,63.4,7.5,2-16.4,5.4-10.4-41.3-28.8-46.6-18.4-148.6-81.1-215.4-66.3-66.7,14.8-132,70.3-181.7,79.9-21.5,4.2-12.3,4.5-56.9-7.4-43.2-11.6-146.9-75.7-179.7-114.7-31.7-37.7-88.6-105-75.5-63.4Z"/>
      <path class="st2" d="M746.8,413.4c46.8,148,184.3,214.6,284.1,230.2,99.8,15.5,177.9-60.3,206.9-55.7,29,4.5,41,28.8,60,31.2,19,2.3,37.2.3,46.9,10.3,8.9,9.2,71.7,20.3,72.5,4.5.8-15.8-32-29.5-44.3-34-12.3-4.5-77.8-34.2-37.8-39.8,40.1-5.6,76.3,32.5,98.7,46.6,22.4,14.1,61.5,23.9,63.4,7.5,2-16.4,5.4-10.4-41.3-28.8-46.6-18.4-148.6-81.1-215.4-66.3-66.7,14.8-132,70.3-181.7,79.9-21.5,4.2-12.3,4.5-56.9-7.4-43.2-11.6-146.9-75.7-179.7-114.7-31.7-37.7-88.6-105-75.5-63.4Z"/>
      <path class="st7" d="M1279.2,576.1c-5.2-1.3-7.2,5.2-7.7,8.7-.5,3.6,0,7.6,3.8,8.2,3.8.6,5.4-3.2,6.2-6.4s1.6-9.5-2.3-10.5Z"/>
      <g>
        <path class="st9" d="M960.3,686.9s31.7,17,23.8,21.5-46.8,28.3-107.2,56.2-101.2,45.7-106.1,46.8-4.9,4.9.4,4.5,47.2-14.3,106.1-37.7c58.9-23.4,116.6-44.5,116.6-44.5,0,0-3.4,10.6.4,12.8s12.8-.4,21.1-9.1c8.3-8.7,7.2-7.9,9.1-5.7s12.1,14.7,17.7,15.1c5.7.4,11.3-7.9,15.1-13.6,3.8-5.7,10.2-15.5,10.2-15.5l12.5-10.6s-112.9-23.8-119.6-20.4Z"/>
        <path class="st9" d="M1286.4,529.5s38.5-36.2,52.1-73.6c13.6-37.4,12.5-80.4,10.2-97.4-2.3-17,2.3-20.4,17,0,14.7,20.4,54.4,75.9,53.2,125.7-1.1,49.8-13.6,77-19.2,78.1s-35.1-26-113.2-32.8Z"/>
        <path class="st7" d="M1081.8,221.9s-8.7,4.2-9.1,8.3-32.8,103.4-33.6,111c-.8,7.5-2.6,31-2.6,31l75.1-10.9,6.4-51,.4-52.5-9.8-21-26.8-14.8Z"/>
        <path class="st10" d="M1105.6,225.7l1.5,10.6s-3,9.4-7.2,10.2-20-14-20-17.7,2.6-11.7,2.6-11.7c0,0,1.9-6.4,9.1-4.2s14,12.8,14,12.8Z"/>
        <path class="st10" d="M1106,231.5c13.5,0,20.1-10.7,20.1-24.3s2.6-25.1-11-25.1-33.6,11.3-33.6,24.8,11,24.5,24.5,24.5Z"/>
        <path class="st4" d="M1124.1,188.3l7.5-7.5-7.2-20.4-1.1,7.5s-3.4-7.5-8.7-7.5c0,0,1.5,3.4-1.5,3.8s-22.3,3.4-29.8.4l4.9,3.4s-6,2.6-10.2,1.5l1.3,2s-3.3,1.4-5.3,1.4c0,0-.4,2-1.6,3.9s-3.5,2.8-3.6,4.2.8,14.6,4,22.5c3.2,7.9,7,17.7,7.9,18.3l9.4-6.6s-7.9-2.8-6.4-12.6c1.5-9.8,7.7-.6,7.7-.6l5.1,5.7,2.3-9.1,5.1-2.5s-3.2-10,6.8-9.8,13.4,2.1,13.4,2.1Z"/>
        <path class="st6" d="M1072.4,226.7s4,47.3-5.5,71.5-24.2,57.4-24.2,63.9,2.5,14.1,2.5,14.1l-10.6-16.6s-3-5.5-9.6-1-10.1,12.1-9.6,13.6-9.1-.5-10.1-7c-1-6.5-13.1-35.7-13.1-35.7,0,0,.5-13.6,11.1-42.8,10.6-29.2,13.1-42.8,36.2-48.8,23.1-6,22.1-3,32.7-11.1Z"/>
        <path class="st6" d="M1014,299.7s-38.2-17.1-51.8,22.6c-13.6,39.8-13.1,54.4,4.5,51.3,17.6-3,21.1-5,21.1-5,0,0,.5,15.1,9.1,20.1,8.6,5,18.1,2.5,23.7,0s19.6-13.6,19.6-13.6v-35.7l-26.2-39.8Z"/>
        <path class="st10" d="M1152.4,498.2s-5.3,18.5-6.4,32.5c-1.1,14,10.2,5.3,12.8,4.2s10.2-9.1,10.2-9.1l3-27.2-19.6-.4Z"/>
        <polygon class="st10" points="1039.9 575.2 1038.1 610.7 1049.8 608.8 1058.8 599 1059.2 567.6 1039.9 575.2"/>
        <path class="st6" d="M1042.7,365.6l67.9-7s3.5,1,4,4-.5,6.5,8.1,10.6c8.6,4,27.2,10.1,46.8,19.1s31.2,14.6,34.2,21.6c3,7-2.5,19.1-6.5,31.7-4,12.6-14.6,56.4-17.6,58.9-3,2.5-13.6,1.5-20.6,0-7-1.5-13.1-6-13.1-6,0,0,9.6-57.4,16.1-63.4,0,0-32.2-6-70-15.6,0,0-7,23.7-10.6,43.8-3.5,20.1-4,31.7-9.1,43.8-5,12.1-8.1,70.5-8.1,70.5,0,0-18.1,6-29.7-1,0,0-1.5-36.2,1.5-52.3s5.5-28.2,5-42.8c-.5-14.6-8.1-99.6-7.5-102.7s0-14.6,9.1-13.1Z"/>
        <path class="st4" d="M1145.3,526.9s7.5,6,10.2,5.3c2.6-.8,9.4-12.8,13.2-12.8s18.5,10.9,18.5,10.9c0,0,12.1-3,18.9-2.6,6.8.4,10.9,3,11.3,7.5.4,4.5-67.2,31.7-71,30.2s-4.5-9.4-4.2-12.8c.4-3.4-5.7-21.9,3-25.7Z"/>
        <path class="st4" d="M1037.3,603.1s1.1,4.5,3.8,3.4,6.4-13.2,15.1-13.6c8.7-.4,10.6,7.5,11.7,9.8s10.2,14,16.6,13.6c6.4-.4,6.8,10.9-1.5,10.9s-49.1,0-50.6-2.6,1.9-18.1,4.9-21.5Z"/>
        <path class="st10" d="M1016,368.1s8.1-12.6,15.1-11.1l17.6,27.2-7,21.6-25.7-37.7Z"/>
        <path class="st3" d="M1095.3,249.5l-5.1,8.4c-.4.7,0,1.5.7,1.7h0c.8.2,1.1,1.1.7,1.8-1.5,2.3-5.1,6.8-10.9,6.5s-34-7.9-51-26c-17-18.1-27.9-33.6-52.1-32.1s-28.5,6.9-31.6,9.2-.6,1.4,0,1.9l15.7,11.3c.3.2.6.3.9.2,2.8-.4,18-2.7,28.2,0,11.3,3,22.3,14.3,40.4,27.6,18.1,13.2,52,31.3,68.7,5.7,0,0,0,0,0-.1l3.5-6.7c.2-.3.4-.5.8-.6l.8-.2c.8-.2,1.1-1.2.7-1.8l-5.4-7.3c-.4-.5-1-.6-1.5-.3s-1.2.4-2.2.2-1,0-1.3.5Z"/>
        <path class="st4" d="M1409.8,561.2s-162.3-200.2-224.7-194.1l-4,9.6s3.9-9.1,20.1-2c24.2,10.6,71.2,49.1,104.7,82,30.7,30.2,95.6,104.7,95.6,104.7,0,0,2,3.3,8.3-.1Z"/>
        <path class="st7" d="M749.7,419.7s55.7,204.6,216.3,272.9c158.3,67.4,275.5-7.4,275.5-7.4,0,0,40.4-28.5,66.4-47.3,3.7-2.7,15.1-7.8,17.6-7.5,30.7,2.5,76.5,7.5,89.1-.5,6.5-4.2-63.3-33.7-59.1-38,13.6-13.8,80.6,13,113,20.1l-16.7-22.4-84.9-40.8-53.2-1.1-152.9,41.9-100.8,35.1s-31.7-1.1-65.7-12.5c-34-11.3-101.9-40.8-144.9-81.5-43-40.8-99.6-111-99.6-111Z"/>
        <path class="st9" d="M749.7,419.7s118.8,203.8,276.2,226.5c157.4,22.6,176.8-62.3,210.7-56.6,34,5.7,49.8,29.4,61.1,29.4s31.7,1.1,53.2,5.7c21.5,4.5,67.2,13.9,65.7,0s-27.2-20.4-44.2-26c-17-5.7-81.5-34-38.5-38.5s98.5,34,117.8,45.3c19.2,11.3,39.6,9.1,45.3,1.1s-4.5-17-32.8-23.8c-28.3-6.8-137-72.5-221.9-53.2-84.9,19.2-168.7,86.1-168.7,86.1,0,0-22.6,10.2-67.9-6.8-45.3-17-116.6-47.6-159.7-90.6-43-43-98.5-116.6-96.2-98.5Z"/>
        <path class="st7" d="M1277.2,577.7c-4.7-1-7.3,4.8-7.8,9.1s1,7.8,4,8.1,5.3-1.8,6.3-6.5c1-4.8,1-9.8-2.5-10.6Z"/>
        <path class="st10" d="M1128.3,351.5l26.2,19.6s11.6,16.6,23.1,15.1,15.6-9.6,7.5-19.1-11.1-6.5-15.1-7-8.6-3.5-12.1-6.5c-3.5-3-18.1-20.6-18.1-20.6,0,0-10.6,1.5-13.1,7.5-2.5,6,1.5,11.1,1.5,11.1Z"/>
        <path class="st6" d="M1108.6,236.8s0,18.1,2.5,27.7c2.5,9.6,4,24.2,3,32.2-1,8.1-3.5,61.9-3.5,61.9l6.5-13.1s8.6,14.6,12.6,15.1,3-2,3-2c0,0-.5-11.6,6.5-15.1s10.6.5,10.6.5c0,0,1-6-3.5-11.6s-12.1-21.1-11.6-31.2c.5-10.1,5-21.6,5-29.7s-1-19.1-11.6-23.7-19.6-11.1-19.6-11.1Z"/>
        <path class="st4" d="M1263.6,622.8s-33.7-61.9-62.4-121.8c-24.3-50.7-37-106.1-36-121.3l-6.8-3.8s6,56.6,26.7,108.5c9,22.7,60,139.8,75,145.4,16.1,6,28.2,1.5,28.2,1.5l-24.7-8.6Z"/>
      </g>
    </g>
  </g>
</svg>