<svg width="1600" height="1024" viewBox="0 0 1600 1024" fill="none" xmlns="http://www.w3.org/2000/svg">
<rect width="1600" height="1024" fill="white"/>
<path d="M1277.78 210.209V703.218H958.996V198.283C1009.99 177.762 1064.73 168.219 1119.66 170.273C1174.59 172.328 1228.46 185.936 1277.78 210.209Z" fill="#EBEBEB"/>
<path d="M1309.05 274.248V748.204H1200.67L1202.6 721.377L1213.26 427.662H998.649L1009.31 721.377L1011.24 748.204H901.643V282.829C903.654 281.347 905.674 279.882 907.722 278.446C908.121 278.168 906.365 270.309 906.773 270.031C930.345 253.54 955.846 239.993 982.706 229.692L990.643 316.987H1027.83V223.91C1030.26 223.308 1032.69 222.743 1035.13 222.214C1035.13 247.35 1045.12 271.456 1062.89 289.229C1080.66 307.002 1104.77 316.987 1129.91 316.987H1175.56V219.759C1178 220.204 1180.44 220.676 1182.86 221.177V316.987H1221.28L1227.34 233.381C1253.48 242.443 1278.46 254.552 1301.76 269.457C1302.57 269.976 1303.38 270.486 1304.19 271.023C1305.82 272.08 1307.44 273.155 1309.05 274.248ZM1027.83 324.29H991.171L996.889 403.336H1027.83V324.29ZM1175.56 324.29H1035.13V403.336H1089.54V401.77C1089.54 401.018 1089.69 400.273 1089.97 399.578C1090.26 398.883 1090.68 398.252 1091.22 397.72C1091.75 397.188 1092.38 396.766 1093.07 396.479C1093.77 396.191 1094.51 396.043 1095.27 396.043H1117.86C1118.61 396.042 1119.36 396.189 1120.05 396.476C1120.75 396.764 1121.38 397.185 1121.91 397.717C1122.45 398.249 1122.87 398.881 1123.16 399.576C1123.45 400.272 1123.6 401.017 1123.6 401.77V403.336H1175.56V324.29ZM1215.03 403.336L1220.75 324.29H1182.86V403.336H1215.03Z" fill="#F2F2F2"/>
<path d="M1472.93 594.202C1472.92 594.23 1472.91 594.249 1472.9 594.276C1472.84 594.471 1472.77 594.647 1472.7 594.842V594.851C1469.54 603.729 1466.07 612.458 1462.28 621.039L747.583 620.261C743.746 611.504 740.225 602.586 737.019 593.507C737.008 593.487 737.002 593.465 737 593.442L1472.93 594.202Z" fill="#CCCCCC"/>
<path d="M1204.56 458.985C1205.13 461.358 1206.21 463.578 1207.73 465.488C1209.25 467.397 1211.17 468.95 1213.36 470.037C1215.54 471.124 1217.94 471.718 1220.38 471.779C1222.82 471.839 1225.25 471.363 1227.48 470.385L1267.77 513.955L1275.14 484.015L1235.76 447.23C1233.87 443.582 1230.7 440.754 1226.86 439.283C1223.03 437.812 1218.78 437.8 1214.94 439.249C1211.09 440.698 1207.91 443.507 1206 447.144C1204.08 450.782 1203.57 454.995 1204.56 458.985Z" fill="#FFB6B6"/>
<path d="M1250.39 497.606L1305.12 559.036L1305.57 558.953C1305.75 558.925 1309.9 558.184 1316.48 556.979C1340.28 552.624 1395.79 542.235 1409.56 537.426C1417.5 534.749 1424.63 530.089 1430.26 523.887C1428.83 516.112 1427.3 510.292 1425.79 507.457C1424.69 505.39 1424.9 502.694 1424.85 499.617C1421.24 497.122 1417.02 495.631 1412.64 495.298C1385.26 493.317 1357.79 497.723 1332.4 508.17L1317.96 514.138L1317.37 513.703L1268.61 477.914L1268.28 477.673L1251.5 496.364L1250.39 497.606Z" fill="#2E44FF"/>
<path d="M1136.17 852.777C1136.9 852.721 1137.62 852.657 1138.35 852.592C1147.54 851.823 1156.63 850.735 1165.63 849.33L1175.5 826.329L1180.24 815.302L1162.36 807.619L1150.74 802.634L1145.22 821.612L1142.93 829.499L1137.52 848.107L1136.17 852.777Z" fill="#FFB6B6"/>
<path d="M1336.42 745.748V778.052C1331 782.056 1325.47 785.917 1319.83 789.636V745.748H1336.42Z" fill="#CACACA"/>
<path d="M1394.69 725.287C1390.03 730.458 1385.23 735.496 1380.29 740.401C1368.67 751.979 1356.32 762.812 1343.33 772.836H1269.38C1267.42 772.836 1265.48 772.417 1263.69 771.607C1261.9 770.796 1260.31 769.613 1259.02 768.137L1259.01 768.11C1257.46 766.369 1256.39 764.264 1255.89 761.993L1255.88 761.975C1255.67 761 1255.57 760.006 1255.57 759.009V739.113C1255.57 735.449 1257.03 731.935 1259.62 729.343C1262.21 726.751 1265.72 725.292 1269.38 725.287H1394.69Z" fill="#3F3D56"/>
<path d="M1425.16 647.63L1417.15 681.973C1417.93 686.948 1418.19 691.992 1417.92 697.022C1414.12 702.119 1410.2 707.114 1406.16 712.007C1402.44 716.52 1398.61 720.946 1394.69 725.286C1390.03 730.457 1385.23 735.495 1380.29 740.401C1367.43 744.441 1352.27 746.091 1336.42 746.202C1330.95 746.248 1325.4 746.1 1319.83 745.803C1297.25 744.617 1309.62 740.994 1290.91 737.231C1285.96 736.249 1281.31 735.248 1277.03 734.275C1268.92 732.45 1262.14 730.745 1257.23 729.447C1251.69 728.002 1231.73 718.027 1231.73 718.027L1215.97 752.315L1202.07 784.749L1183.77 825.721C1181.41 825.934 1179.06 826.113 1176.7 826.259C1174.19 826.435 1171.69 826.577 1169.18 826.685C1167.2 826.787 1165.22 826.861 1163.23 826.917L1162.56 827.13L1162 826.954L1153.07 824.109L1150.05 823.154L1139.22 819.707C1139.22 819.707 1141.64 812.089 1145.87 799.385C1147.43 794.723 1158.46 760.26 1170 730.17C1173.42 721.237 1176.96 712.174 1180.6 703.157C1183.58 695.753 1186.62 688.376 1189.7 681.102C1195.05 668.489 1220.88 661.688 1251.3 658.12C1252.85 657.944 1254.41 657.768 1255.98 657.601C1271.48 655.97 1287.93 655.127 1303.31 654.737C1311.01 654.543 1283.23 654.469 1290.14 654.459C1292.38 654.459 1294.55 654.466 1296.66 654.478H1296.67C1302.37 654.506 1307.61 654.589 1312.23 654.682C1313.12 654.7 1314 654.728 1314.85 654.747H1314.86C1315.43 654.756 1316 654.774 1316.55 654.784C1326.64 655.043 1332.83 655.358 1332.83 655.358L1335.24 636.528L1335.73 632.729L1336.19 629.114V629.105L1336.25 628.651L1336.63 628.642L1343.3 628.512L1399.38 627.418L1423.27 626.406L1425.16 647.63Z" fill="#2F2E41"/>
<path d="M1242.85 717.101C1249.6 728.647 1254.87 750.536 1261.79 761.378C1275.07 782.191 1282.85 793.543 1292.06 806.35C1301.56 801.17 1310.82 795.597 1319.83 789.633C1324.64 786.463 1329.37 783.18 1334.03 779.782L1328.52 767.207L1325.39 761.044L1311.32 733.345L1295.55 702.292L1290.06 704.85L1242.85 717.101Z" fill="#2F2E41"/>
<path d="M768.784 558.432C768.518 557.633 768.427 556.786 768.516 555.948C768.605 555.111 768.872 554.302 769.3 553.576C769.728 552.85 770.307 552.225 770.996 551.741C771.686 551.258 772.472 550.928 773.3 550.774C773.607 550.708 773.918 550.67 774.231 550.658L811.995 549.683C812.842 549.674 813.681 549.843 814.459 550.179C815.237 550.515 815.936 551.01 816.511 551.632C817.04 551.519 817.58 551.463 818.12 551.464C819.296 551.434 820.467 551.635 821.565 552.057C822.663 552.479 823.667 553.114 824.52 553.924C825.373 554.734 826.058 555.705 826.535 556.78C827.013 557.855 827.274 559.014 827.303 560.19C827.333 561.366 827.13 562.536 826.707 563.634C826.284 564.732 825.649 565.735 824.838 566.587C824.027 567.439 823.056 568.123 821.98 568.6C820.905 569.077 819.746 569.336 818.57 569.365C817.217 569.392 815.875 569.116 814.642 568.558L811.168 605.706C810.834 606.928 810.114 608.008 809.115 608.786C808.116 609.564 806.892 609.997 805.626 610.022L781.076 610.654C779.819 610.676 778.588 610.3 777.559 609.579C776.529 608.858 775.755 607.829 775.346 606.64L768.784 558.432ZM818.491 566.803C820.186 566.758 821.794 566.044 822.963 564.816C824.132 563.588 824.766 561.946 824.726 560.251C824.686 558.556 823.976 556.946 822.751 555.774C821.526 554.602 819.886 553.964 818.191 553.999C818.071 553.999 817.966 554.056 817.846 554.056C818.115 555.082 818.108 556.161 817.827 557.183L815.355 566.036C816.311 566.572 817.396 566.837 818.491 566.803Z" fill="#CCCCCC"/>
<path d="M773.3 550.774C774.105 555.374 783.15 558.608 794.027 558.046C804.028 557.585 812.206 554.073 813.704 549.911C813.15 549.747 812.573 549.67 811.995 549.683L774.232 550.658C773.919 550.67 773.607 550.708 773.3 550.774Z" fill="white"/>
<path d="M1009.72 502.163V597.204H943.142V502.163C943.141 501.479 943.359 500.813 943.764 500.263C944.17 499.712 944.741 499.306 945.394 499.104C945.702 499.003 946.024 498.953 946.348 498.956H1006.51C1006.93 498.955 1007.35 499.038 1007.74 499.198C1008.13 499.359 1008.48 499.595 1008.78 499.893C1009.08 500.191 1009.32 500.544 1009.48 500.934C1009.64 501.323 1009.72 501.741 1009.72 502.163ZM983.74 534.819C983.723 532.945 982.967 531.154 981.636 529.835C980.305 528.516 978.506 527.776 976.633 527.776C974.759 527.776 972.961 528.516 971.629 529.835C970.298 531.154 969.542 532.945 969.525 534.819V545.847C969.534 547.726 970.287 549.525 971.619 550.851C972.951 552.176 974.753 552.921 976.633 552.921C978.512 552.921 980.315 552.176 981.647 550.851C982.978 549.525 983.731 547.726 983.74 545.847V534.819Z" fill="#CCCCCC"/>
<path d="M1009.93 594.166V603.331C1009.93 603.806 1009.74 604.261 1009.4 604.597C1009.07 604.934 1008.61 605.125 1008.14 605.129H944.727C944.252 605.126 943.797 604.936 943.461 604.599C943.126 604.262 942.938 603.806 942.938 603.331V594.166H1009.93Z" fill="#3F3D56"/>
<path d="M1114.47 358.971V532.503C1114.47 534.714 1113.59 536.835 1112.02 538.398C1110.46 539.962 1108.34 540.841 1106.13 540.843H848.972C846.76 540.841 844.64 539.962 843.076 538.398C841.513 536.835 840.633 534.714 840.632 532.503V358.971C840.637 356.761 841.517 354.644 843.081 353.082C844.644 351.521 846.762 350.642 848.972 350.64H1106.13C1108.34 350.642 1110.46 351.521 1112.02 353.082C1113.58 354.644 1114.46 356.761 1114.47 358.971Z" fill="#CCCCCC"/>
<path d="M1108.44 361.13V530.362C1108.43 531.544 1107.96 532.676 1107.13 533.512C1106.29 534.347 1105.16 534.817 1103.98 534.819H851.113C849.931 534.817 848.798 534.347 847.963 533.512C847.127 532.676 846.657 531.544 846.655 530.362V361.13C846.655 359.947 847.125 358.812 847.96 357.975C848.796 357.137 849.93 356.666 851.113 356.663H1103.98C1105.16 356.666 1106.3 357.137 1107.13 357.975C1107.97 358.812 1108.44 359.947 1108.44 361.13Z" fill="white"/>
<path d="M1056.1 604.507C1055.84 604.83 1055.52 605.09 1055.14 605.268C1054.77 605.447 1054.36 605.538 1053.95 605.536H903.511C903.1 605.535 902.694 605.443 902.322 605.266C901.951 605.089 901.624 604.831 901.365 604.512C901.106 604.192 900.921 603.819 900.824 603.419C900.727 603.019 900.721 602.603 900.805 602.2L903.141 591.107C903.237 590.655 903.446 590.234 903.747 589.883C904.048 589.532 904.432 589.261 904.864 589.096C905.177 588.974 905.51 588.911 905.847 588.911H1051.62C1051.96 588.911 1052.29 588.974 1052.61 589.096C1053.04 589.261 1053.42 589.532 1053.72 589.883C1054.03 590.234 1054.23 590.655 1054.33 591.107L1056.67 602.2C1056.75 602.602 1056.74 603.018 1056.64 603.417C1056.55 603.816 1056.36 604.189 1056.1 604.507Z" fill="#F2F2F2"/>
<path d="M859.319 379.976H1095.93C1096.17 379.97 1096.41 379.869 1096.58 379.693C1096.75 379.517 1096.85 379.281 1096.85 379.035C1096.85 378.789 1096.75 378.552 1096.58 378.377C1096.41 378.201 1096.17 378.099 1095.93 378.094H859.319C859.073 378.099 858.839 378.201 858.667 378.377C858.495 378.552 858.399 378.789 858.399 379.035C858.399 379.281 858.495 379.517 858.667 379.693C858.839 379.869 859.073 379.97 859.319 379.976Z" fill="#3F3D56"/>
<path d="M1079.82 373.29C1076.77 373.29 1074.31 370.766 1074.31 367.653C1074.31 364.539 1076.77 362.016 1079.82 362.016C1082.87 362.016 1085.33 364.539 1085.33 367.653C1085.33 370.766 1082.87 373.29 1079.82 373.29Z" fill="#3F3D56"/>
<path d="M1060.77 373.29C1057.72 373.29 1055.26 370.766 1055.26 367.653C1055.26 364.539 1057.72 362.016 1060.77 362.016C1063.81 362.016 1066.28 364.539 1066.28 367.653C1066.28 370.766 1063.81 373.29 1060.77 373.29Z" fill="#3F3D56"/>
<path d="M1041.72 373.29C1038.68 373.29 1036.21 370.766 1036.21 367.653C1036.21 364.539 1038.68 362.016 1041.72 362.016C1044.77 362.016 1047.23 364.539 1047.23 367.653C1047.23 370.766 1044.77 373.29 1041.72 373.29Z" fill="#3F3D56"/>
<path d="M870.789 363.409H884.319C884.586 363.415 884.841 363.526 885.028 363.717C885.215 363.909 885.32 364.166 885.32 364.433C885.32 364.701 885.215 364.958 885.028 365.149C884.841 365.341 884.586 365.451 884.319 365.457H870.789C870.52 365.454 870.263 365.344 870.074 365.152C869.885 364.961 869.779 364.702 869.779 364.433C869.779 364.164 869.885 363.906 870.074 363.714C870.263 363.522 870.52 363.413 870.789 363.409Z" fill="#3F3D56"/>
<path d="M870.79 367.256H884.32C884.588 367.262 884.842 367.373 885.029 367.564C885.216 367.755 885.321 368.012 885.321 368.28C885.321 368.547 885.216 368.804 885.029 368.996C884.842 369.187 884.588 369.298 884.32 369.304H870.79C870.521 369.3 870.264 369.191 870.075 368.999C869.886 368.807 869.78 368.549 869.78 368.28C869.78 368.011 869.886 367.752 870.075 367.561C870.264 367.369 870.521 367.26 870.79 367.256Z" fill="#3F3D56"/>
<path d="M870.789 371.101H884.319C884.586 371.107 884.841 371.217 885.028 371.409C885.215 371.6 885.32 371.857 885.32 372.125C885.32 372.392 885.215 372.649 885.028 372.841C884.841 373.032 884.586 373.143 884.319 373.149H870.789C870.52 373.145 870.263 373.035 870.074 372.844C869.885 372.652 869.779 372.394 869.779 372.125C869.779 371.855 869.885 371.597 870.074 371.405C870.263 371.214 870.52 371.104 870.789 371.101Z" fill="#3F3D56"/>
<path d="M873.58 397.158H913.519C915.469 397.158 917.05 398.739 917.05 400.689V403.678C917.05 405.628 915.469 407.209 913.519 407.209H873.58C871.63 407.209 870.049 405.628 870.049 403.678V400.689C870.049 398.739 871.63 397.158 873.58 397.158Z" fill="#E6E6E6"/>
<path d="M874.517 417.259H962.196C964.146 417.259 965.727 418.84 965.727 420.79V423.779C965.727 425.729 964.146 427.309 962.196 427.309H874.517C872.567 427.309 870.986 425.729 870.986 423.779V420.79C870.986 418.84 872.567 417.259 874.517 417.259Z" fill="#E6E6E6"/>
<path d="M874.517 437.36H962.196C964.146 437.36 965.727 438.941 965.727 440.891V443.88C965.727 445.83 964.146 447.411 962.196 447.411H874.517C872.567 447.411 870.986 445.83 870.986 443.88V440.891C870.986 438.941 872.567 437.36 874.517 437.36Z" fill="#E6E6E6"/>
<path d="M1133.03 611.458C1121.01 611.458 1111.26 608.346 1111.26 604.508C1111.26 600.669 1121.01 597.558 1133.03 597.558C1145.06 597.558 1154.81 600.669 1154.81 604.508C1154.81 608.346 1145.06 611.458 1133.03 611.458Z" fill="#3F3D56"/>
<path d="M1133.03 606.825C1121.01 606.825 1111.26 603.713 1111.26 599.875C1111.26 596.036 1121.01 592.925 1133.03 592.925C1145.06 592.925 1154.81 596.036 1154.81 599.875C1154.81 603.713 1145.06 606.825 1133.03 606.825Z" fill="#3F3D56"/>
<path d="M1131.41 604.532L1134.66 604.484L1133.76 543.888C1133.63 534.001 1136.1 524.252 1140.91 515.616C1145.73 506.98 1152.72 499.757 1161.2 494.67L1223.14 457.648L1221.48 454.862L1159.54 491.886C1150.57 497.265 1143.17 504.903 1138.08 514.037C1132.99 523.17 1130.38 533.48 1130.52 543.937L1131.41 604.532Z" fill="#3F3D56"/>
<path d="M1213.66 427.974C1213.66 423.623 1217.18 420.097 1221.53 420.097C1225.88 420.097 1229.41 423.623 1229.41 427.974V477.088C1229.41 481.438 1225.88 484.965 1221.53 484.965C1217.18 484.965 1213.66 481.438 1213.66 477.088V427.974Z" fill="#2E44FF"/>
<path d="M1227.05 498.498C1233.27 498.49 1239.24 496.032 1243.66 491.656C1248.09 487.281 1250.61 481.339 1250.69 475.117L1250.96 450.232L1247.71 450.197L1247.44 475.083C1247.4 478.888 1246.3 482.604 1244.25 485.812C1242.21 489.02 1239.3 491.591 1235.87 493.233C1232.44 494.875 1228.62 495.524 1224.84 495.104C1221.05 494.685 1217.47 493.214 1214.48 490.86L1192.39 473.463L1190.39 476.013L1212.47 493.41C1216.62 496.699 1221.75 498.492 1227.05 498.498Z" fill="#3F3D56"/>
<path d="M1246.09 470.6C1240.72 470.6 1236.36 460.02 1236.36 446.969C1236.36 433.919 1240.72 423.339 1246.09 423.339C1251.46 423.339 1255.82 433.919 1255.82 446.969C1255.82 460.02 1251.46 470.6 1246.09 470.6Z" fill="#3F3D56"/>
<path d="M1314.7 574.168C1315.55 568.867 1316.11 563.056 1316.48 556.977C1317.35 543.068 1317.27 527.731 1317.37 513.701C1317.41 507.325 1317.92 500.362 1318.58 493.898C1319.15 488.009 1321.11 482.34 1324.31 477.36C1327.5 472.38 1331.84 468.232 1336.95 465.257C1340.43 463.243 1343.57 460.686 1346.25 457.682C1347.69 456.07 1347.87 452.345 1348.05 448.406C1348.28 443.615 1348.51 438.648 1351.07 436.091L1351.19 435.979L1351.33 435.924C1362.11 432.337 1380.32 434.663 1385.73 435.915L1385.96 435.97L1386.11 436.155C1388.35 439.112 1388.23 443.838 1388.11 448.406C1388 452.512 1387.9 456.394 1389.72 457.562C1391.13 458.47 1392.48 459.332 1393.79 460.166C1409.81 470.387 1417.85 475.521 1423.75 492.211C1424.53 494.598 1424.91 497.102 1424.85 499.615C1424.9 502.692 1424.69 505.389 1425.79 507.455C1427.3 510.291 1428.83 516.11 1430.26 523.885C1437.74 564.743 1442.18 659.747 1423.9 661.972C1422.48 662.148 1425.39 665.011 1426.39 666.447C1427.82 668.514 1429.06 670.293 1428.34 671.655C1427.86 672.582 1426.6 673.018 1424.39 673.018C1416.07 673.018 1330.53 660.461 1328.1 655.939C1327.93 656.198 1327.94 655.642 1328.1 655.939C1288 650.703 1309.23 608.816 1314.7 574.168Z" fill="#2E44FF"/>
<path d="M1218.16 615.087C1219.88 613.306 1221.96 611.924 1224.27 611.036C1226.58 610.148 1229.06 609.778 1231.52 609.95C1233.99 610.123 1236.39 610.834 1238.55 612.034C1240.72 613.234 1242.59 614.894 1244.04 616.896L1301.59 599.512L1292.67 629.453L1239.39 641.371C1235.86 643.587 1231.64 644.433 1227.54 643.748C1223.43 643.063 1219.72 640.896 1217.1 637.656C1214.48 634.416 1213.15 630.329 1213.34 626.17C1213.54 622.01 1215.25 618.067 1218.16 615.087Z" fill="#FFB6B6"/>
<path d="M1287.64 632.233L1366.67 617.728C1366.99 616.902 1398.71 534.774 1402.63 516.326C1405.11 505.204 1403.72 493.568 1398.67 483.35L1398.53 483.105L1398.27 482.993C1392.97 480.733 1387.06 480.347 1381.51 481.899C1375.96 483.45 1371.11 486.846 1367.75 491.526C1351.65 514.21 1341.04 540.326 1336.76 567.812L1334.35 583.45L1296.69 594.396L1287.64 632.233Z" fill="#2E44FF"/>
<path d="M1313.53 410.304C1318.41 419.231 1326.19 426.229 1335.58 430.146C1344.97 434.063 1355.41 434.665 1365.19 431.853C1374.97 429.041 1383.5 422.983 1389.37 414.676C1395.25 406.37 1398.12 396.31 1397.51 386.153C1396.91 375.997 1392.86 366.35 1386.04 358.8C1379.22 351.251 1370.03 346.25 1359.99 344.62C1349.94 342.991 1339.65 344.83 1330.79 349.835C1321.93 354.84 1315.04 362.713 1311.25 372.157C1311.05 372.669 1310.87 373.182 1310.68 373.715C1308.54 379.668 1307.69 386.008 1308.18 392.315C1308.67 398.623 1310.49 404.754 1313.53 410.304Z" fill="#FFB6B6"/>
<path d="M1307.09 373.715C1309.02 368.324 1308.18 371.132 1310.13 365.762C1308.86 370.517 1310.86 373.182 1310.68 373.715H1364V342.722C1348.38 336.531 1333.11 331.263 1323.88 342.722C1315.66 342.722 1307.78 345.988 1301.97 351.8C1296.15 357.612 1292.89 365.495 1292.89 373.715L1307.09 373.715Z" fill="#2F2E41"/>
<path d="M1350.09 458.941C1350.13 458.367 1350.19 457.773 1350.27 457.199C1350.99 452.988 1352.15 448.866 1353.74 444.9C1355.27 440.575 1356.83 436.229 1358.39 431.904C1356.38 439.755 1356.99 448.047 1360.13 455.518C1369.13 448.508 1364.8 437.955 1375.22 432.478C1403.16 417.78 1412.84 394.027 1405.02 357.545C1402.24 344.571 1386.04 331.598 1357.76 331.598C1329.45 331.598 1316.83 345.673 1316.28 373.96C1351.12 382.159 1343.51 456.072 1350.09 458.941Z" fill="#2F2E41"/>
<path d="M1402.2 358.893C1391.99 358.893 1383.7 350.61 1383.7 340.393C1383.7 330.176 1391.99 321.894 1402.2 321.894C1412.42 321.894 1420.7 330.176 1420.7 340.393C1420.7 350.61 1412.42 358.893 1402.2 358.893Z" fill="#2F2E41"/>
<path d="M1410.86 335.017C1414.01 338.69 1418.95 340.117 1423.41 342.029C1431.27 345.479 1438.18 350.795 1443.52 357.517C1448.87 364.239 1452.49 372.163 1454.08 380.602C1455.31 387.476 1455.15 394.592 1457.1 401.293C1459.03 407.995 1463.82 414.57 1470.7 415.732C1475.35 416.527 1480.01 414.731 1484.39 412.957C1486.79 411.99 1489.2 411.019 1491.61 410.044C1489.1 403.746 1486.59 397.448 1484.09 391.149C1488.11 397.093 1492.79 402.566 1498.03 407.465C1506.66 403.988 1515.29 400.51 1523.93 397.033C1502.67 397.114 1506.3 376.48 1501.54 355.777C1498.93 344.401 1476.67 336.698 1472.31 325.874C1469.95 320.004 1465.96 314.931 1460.81 311.258C1455.66 307.585 1449.56 305.464 1443.25 305.146C1436.93 304.829 1430.65 306.328 1425.16 309.467C1419.66 312.606 1415.18 317.253 1412.25 322.857C1407.89 324.596 1407.76 331.39 1410.86 335.017Z" fill="#2F2E41"/>
<path d="M1328.02 332.297C1326.27 332.88 1324.83 334.134 1324 335.783C1323.18 337.432 1323.04 339.341 1323.63 341.089L1339.99 390.123C1340.28 390.988 1340.73 391.789 1341.33 392.478C1341.93 393.167 1342.66 393.732 1343.48 394.14C1344.29 394.548 1345.18 394.791 1346.09 394.855C1347 394.92 1347.92 394.804 1348.78 394.515C1350.53 393.932 1351.97 392.678 1352.8 391.029C1353.62 389.38 1353.76 387.471 1353.17 385.723L1336.81 336.689C1336.23 334.941 1334.97 333.496 1333.33 332.672C1331.68 331.848 1329.77 331.713 1328.02 332.297Z" fill="white"/>
<path d="M1350.25 416.02C1340.02 416.02 1331.72 407.722 1331.72 397.486C1331.72 387.25 1340.02 378.952 1350.25 378.952C1360.49 378.952 1368.79 387.25 1368.79 397.486C1368.79 407.722 1360.49 416.02 1350.25 416.02Z" fill="white"/>
<path d="M1350.25 402.119C1347.7 402.119 1345.62 400.045 1345.62 397.486C1345.62 394.927 1347.7 392.853 1350.25 392.853C1352.81 392.853 1354.89 394.927 1354.89 397.486C1354.89 400.045 1352.81 402.119 1350.25 402.119Z" fill="#2E44FF"/>
<path d="M1082.51 845.92C1081.51 848.332 1080.42 850.744 1079.37 853.167L1079.86 853.2C1080.02 853.2 1080.17 853.221 1080.33 853.232C1087.98 853.708 1095.7 853.96 1103.48 853.989C1103.84 854 1104.19 854 1104.54 854C1104.54 853.978 1104.53 853.968 1104.53 853.946C1103.73 853.982 1102.94 853.771 1102.26 853.343C1101.59 852.914 1101.06 852.289 1100.75 851.55C1100.44 850.811 1100.37 849.996 1100.54 849.213C1100.71 848.431 1101.11 847.719 1101.7 847.175C1101.81 846.774 1101.87 846.493 1101.97 846.104C1101.94 846.015 1101.9 845.929 1101.86 845.844C1101.05 843.94 1099.7 842.317 1097.98 841.178C1096.25 840.039 1094.23 839.436 1092.16 839.444C1090.09 839.453 1088.07 840.071 1086.36 841.224C1084.64 842.376 1083.3 844.009 1082.51 845.92Z" fill="#00BFA6"/>
<path d="M1011.16 810.591C1011.17 810.677 1011.18 810.753 1011.19 810.84C1012.56 811.394 1013.9 812.037 1015.18 812.765C1015.93 813.176 1016.66 813.62 1017.36 814.085C1018.25 814.678 1018.93 815.527 1019.33 816.518C1019.73 817.51 1019.82 818.599 1019.59 819.642C1019.36 820.685 1018.81 821.633 1018.03 822.364C1017.25 823.094 1016.27 823.571 1015.22 823.733L1015.11 823.755C1015.03 823.766 1014.97 823.777 1014.89 823.788C1018.98 833.65 1026.01 842.008 1035.03 847.715C1035.47 847.801 1035.89 847.877 1036.32 847.953C1038.51 848.353 1040.68 848.721 1042.86 849.056C1050.46 850.289 1058.13 851.284 1065.87 852.042C1064.32 844.197 1063.54 836.219 1063.54 828.222C1063.53 823.745 1063.78 819.27 1064.28 814.82C1064.69 811.175 1065.26 807.54 1065.99 803.949C1066.36 802.132 1066.77 800.318 1067.22 798.508C1069.65 788.887 1073.19 779.582 1077.78 770.784C1081.51 763.634 1085.92 756.867 1090.97 750.578C1096.98 747.299 1101.85 742.25 1104.9 736.115C1106.01 733.912 1106.8 731.558 1107.23 729.128C1106.56 729.225 1105.86 729.279 1105.18 729.322C1104.98 729.333 1104.75 729.344 1104.53 729.355H1104.46C1103.71 729.39 1102.97 729.208 1102.33 728.831C1101.68 728.454 1101.16 727.899 1100.82 727.232C1100.49 726.566 1100.35 725.816 1100.43 725.073C1100.51 724.331 1100.81 723.628 1101.28 723.048C1101.57 722.691 1101.86 722.324 1102.15 721.967C1102.6 721.415 1103.06 720.863 1103.51 720.312C1103.56 720.26 1103.6 720.206 1103.65 720.149C1104.15 719.511 1104.67 718.884 1105.18 718.256C1104.25 716.804 1103 715.589 1101.51 714.708C1096.39 711.701 1089.31 713.778 1085.6 718.419C1081.89 723.059 1081.19 729.571 1082.48 735.358C1083.75 740.292 1085.85 744.974 1088.69 749.204C1088.4 749.561 1088.12 749.896 1087.84 750.253C1083.13 756.306 1078.99 762.776 1075.46 769.583C1075.16 770.124 1074.88 770.665 1074.61 771.217C1075.52 762.923 1074.44 754.533 1071.47 746.738C1068.46 739.479 1062.81 733.357 1057.85 727.083C1051.88 719.544 1039.63 722.832 1038.58 732.394C1038.57 732.481 1038.56 732.578 1038.55 732.665C1039.28 733.087 1040.01 733.53 1040.71 733.995C1041.6 734.588 1042.29 735.435 1042.69 736.426C1043.09 737.417 1043.18 738.506 1042.95 739.549C1042.72 740.592 1042.18 741.541 1041.4 742.272C1040.62 743.002 1039.64 743.481 1038.58 743.644L1038.47 743.666C1039.34 752.469 1042.4 760.915 1047.36 768.235C1052.33 775.556 1059.04 781.519 1066.9 785.582C1067.34 785.809 1067.77 786.036 1068.2 786.242C1066.84 790.06 1065.67 793.945 1064.7 797.881C1064.23 799.72 1063.82 801.569 1063.44 803.43C1062.38 808.575 1061.64 813.781 1061.23 819.017C1060.73 825.611 1060.76 832.234 1061.32 838.823L1061.29 838.596C1059.86 831.268 1055.95 824.655 1050.22 819.872C1041.7 812.873 1029.67 810.299 1020.47 804.674C1019.5 804.047 1018.36 803.712 1017.2 803.709C1016.04 803.706 1014.91 804.034 1013.93 804.657C1012.95 805.279 1012.17 806.168 1011.68 807.219C1011.19 808.271 1011.01 809.441 1011.16 810.591Z" fill="#00BFA6"/>
<path d="M1045.13 450.162H1036.79C1035.77 450.162 1034.95 449.525 1034.95 448.741V412.852C1034.95 412.069 1035.77 411.432 1036.79 411.432H1045.13C1046.14 411.432 1046.97 412.069 1046.97 412.852V448.741C1046.97 449.525 1046.14 450.162 1045.13 450.162Z" fill="#2E44FF"/>
<path d="M1017.57 429.011C1016.75 429.011 1016.08 429.526 1016.08 430.159V448.7C1016.08 449.333 1016.75 449.848 1017.57 449.848H1025.9C1026.72 449.848 1027.39 449.333 1027.39 448.7V430.159C1027.39 429.526 1026.72 429.011 1025.9 429.011H1017.57Z" fill="#2E44FF"/>
<path d="M1064.35 450.162H1056.01C1055 450.162 1054.17 449.525 1054.17 448.741V389.926C1054.17 389.142 1055 388.505 1056.01 388.505H1064.35C1065.36 388.505 1066.19 389.142 1066.19 389.926V448.741C1066.19 449.525 1065.36 450.162 1064.35 450.162Z" fill="#2E44FF"/>
<path d="M897.022 488.059C898.272 487.233 898.535 485.464 897.661 484.23L893.566 478.451C892.609 477.1 890.766 476.8 889.449 477.781C889.332 477.868 889.222 477.963 889.118 478.067C882.185 481.869 878.452 487.421 882.602 493.983C882.602 495.079 882.68 496.174 882.835 497.258C882.903 497.729 883.057 498.189 883.319 498.582C884.096 499.747 885.467 500.175 886.674 499.772L893.371 497.54C894.794 497.066 895.565 495.473 895.039 494.036C894.36 492.18 894.64 489.635 897.022 488.059Z" fill="#F2F2F2"/>
<path d="M913.764 504.852C911.772 504.659 910.072 506.268 910.072 508.229V514.082C910.072 514.233 910.084 514.385 910.107 514.535C910.363 516.165 911.92 517.284 913.584 517.033C923.285 518.205 929.915 514.07 930.313 504.999C930.377 504.872 930.431 504.74 930.476 504.605C930.993 503.038 930.115 501.356 928.516 500.85L922.72 499.004C920.721 498.367 918.643 499.639 918.293 501.671C917.976 503.507 916.741 505.14 913.764 504.852Z" fill="#E6E6E6"/>
<path d="M878.047 511.081C880.014 522.833 890.257 527.291 900.939 527.996C901.149 528.028 901.36 528.045 901.571 528.045C903.875 528.046 905.744 526.167 905.745 523.847V514.02C905.745 511.271 903.508 509.13 900.777 509.102C898.138 509.076 896.417 507.818 895.71 505.509C894.903 502.872 892.025 501.482 889.418 502.334L880.507 505.249C879.353 505.627 878.419 506.491 877.948 507.617C877.48 508.731 877.516 509.996 878.047 511.081Z" fill="#3F3D56"/>
<path d="M933.581 469.743C931.921 468.13 929.256 468.157 927.629 469.804C927.485 469.95 927.351 470.107 927.229 470.273L919.234 481.186C918.212 482.582 918.797 484.525 920.394 485.207C924.137 486.803 923.744 490.385 922.525 492.578C921.928 493.652 922.421 494.997 923.597 495.376L937.07 499.717C939.287 500.426 941.664 499.22 942.379 497.022C942.451 496.801 942.505 496.574 942.539 496.344C942.77 494.814 942.886 493.269 942.886 491.723C945.165 483.295 942.012 475.35 933.581 469.743Z" fill="#2E44FF"/>
<path d="M910.219 482.578C911.67 483.452 913.5 483.029 914.479 481.587L917.083 477.751C917.588 477.007 917.764 476.063 917.563 475.169C917.369 474.291 916.825 473.548 916.075 473.137C909.948 467.211 902.697 466.847 896.549 473.107C895.776 473.524 895.213 474.284 895.01 475.185C894.809 476.073 894.983 477.011 895.485 477.75L898.528 482.233C899.573 483.772 901.597 484.175 903.037 483.059C905.129 481.437 908.169 481.342 910.219 482.578Z" fill="#E6E6E6"/>
<path d="M1043.66 518.309C1055.91 518.309 1065.84 508.381 1065.84 496.134C1065.84 483.887 1055.91 473.959 1043.66 473.959C1031.42 473.959 1021.49 483.887 1021.49 496.134C1021.49 508.381 1031.42 518.309 1043.66 518.309Z" fill="#FD6584"/>
<path d="M1040.69 507.492C1040.31 507.492 1039.94 507.4 1039.6 507.223C1039.26 507.047 1038.97 506.79 1038.74 506.474L1032.79 498.156C1032.6 497.888 1032.46 497.584 1032.38 497.261C1032.3 496.937 1032.28 496.6 1032.33 496.27C1032.37 495.939 1032.48 495.621 1032.64 495.333C1032.81 495.046 1033.02 494.795 1033.28 494.594C1033.53 494.394 1033.82 494.248 1034.13 494.165C1034.44 494.082 1034.76 494.064 1035.08 494.111C1035.39 494.159 1035.7 494.27 1035.97 494.441C1036.24 494.611 1036.48 494.836 1036.67 495.103L1040.57 500.545L1050.58 484.821C1050.93 484.261 1051.49 483.874 1052.12 483.743C1052.75 483.612 1053.4 483.748 1053.94 484.122C1054.47 484.495 1054.85 485.075 1054.97 485.735C1055.1 486.395 1054.97 487.081 1054.62 487.643L1042.71 506.359C1042.49 506.697 1042.2 506.977 1041.86 507.174C1041.52 507.371 1041.14 507.48 1040.75 507.491C1040.73 507.491 1040.71 507.492 1040.69 507.492Z" fill="white"/>
</svg>
