<svg width="728" height="633" viewBox="0 0 728 633" fill="none" xmlns="http://www.w3.org/2000/svg">
<path d="M499.932 37.172V492.942H205.229V26.1463C252.368 7.17597 302.977 -1.64692 353.755 0.25284C404.533 2.1526 454.341 14.7324 499.932 37.172Z" fill="#EBEBEB"/>
<path d="M528.845 96.3737V534.53H428.646L430.437 509.729L440.289 238.199H241.887L251.739 509.729L253.529 534.53H152.208V104.307C154.067 102.936 155.934 101.582 157.828 100.254C158.196 99.9975 156.573 92.7319 156.95 92.4749C178.742 77.2298 202.316 64.7062 227.148 55.1829L234.485 135.884H268.864V49.838C271.109 49.2811 273.353 48.7585 275.615 48.2702C275.615 71.5069 284.845 93.792 301.276 110.223C317.707 126.654 339.992 135.884 363.229 135.884H405.438V46C407.691 46.4112 409.944 46.8481 412.18 47.3107V135.884H447.699L453.302 58.5934C477.465 66.9711 500.558 78.1653 522.103 91.9445C522.848 92.4243 523.602 92.8955 524.348 93.3923C525.855 94.369 527.355 95.3628 528.845 96.3737ZM268.864 142.635H234.973L240.259 215.711H268.864V142.635ZM405.438 142.635H275.615V215.711H325.911V214.263C325.911 213.568 326.048 212.88 326.314 212.237C326.58 211.595 326.97 211.011 327.461 210.519C327.953 210.027 328.537 209.637 329.179 209.372C329.822 209.106 330.51 208.969 331.206 208.969H352.092C352.788 208.968 353.477 209.104 354.121 209.37C354.764 209.635 355.349 210.025 355.841 210.517C356.334 211.008 356.724 211.592 356.991 212.235C357.258 212.878 357.395 213.567 357.395 214.263V215.711H405.438V142.635ZM441.925 215.711L447.211 142.635H412.181V215.711H441.925Z" fill="#F2F2F2"/>
<path d="M680.345 392.16C680.336 392.186 680.328 392.203 680.319 392.229C680.259 392.409 680.199 392.572 680.131 392.752V392.76C677.209 400.967 673.999 409.037 670.501 416.97L9.78387 416.251C6.23714 408.155 2.9817 399.911 0.0175781 391.518C0.00794664 391.499 0.00212289 391.479 0.000427246 391.458L680.345 392.16Z" fill="#CCCCCC"/>
<path d="M432.242 267.157C432.768 269.351 433.77 271.403 435.176 273.168C436.582 274.934 438.358 276.369 440.378 277.374C442.399 278.379 444.615 278.929 446.871 278.984C449.127 279.04 451.368 278.6 453.436 277.696L490.675 317.975L497.496 290.297L461.087 256.29C459.338 252.917 456.412 250.303 452.864 248.943C449.317 247.583 445.393 247.572 441.838 248.911C438.282 250.251 435.342 252.848 433.573 256.211C431.804 259.573 431.331 263.468 432.242 267.157Z" fill="#FFB6B6"/>
<path d="M474.612 302.86L525.209 359.65L525.62 359.573C525.791 359.548 529.629 358.862 535.712 357.749C557.712 353.722 609.028 344.119 621.758 339.672C629.099 337.198 635.687 332.889 640.897 327.156C639.578 319.968 638.164 314.588 636.768 311.967C635.748 310.056 635.937 307.563 635.894 304.719C632.553 302.412 628.659 301.035 624.611 300.727C599.296 298.895 573.902 302.969 550.43 312.626L537.083 318.144L536.534 317.741L491.455 284.655L491.147 284.433L475.641 301.712L474.612 302.86Z" fill="#2E44FF"/>
<path d="M369.016 631.205C369.693 631.154 370.361 631.094 371.038 631.034C379.528 630.323 387.932 629.318 396.251 628.018L405.383 606.755L409.761 596.561L393.235 589.459L382.492 584.85L377.386 602.395L375.27 609.685L370.267 626.888L369.016 631.205Z" fill="#FFB6B6"/>
<path d="M554.146 532.26V562.124C549.134 565.825 544.022 569.395 538.811 572.833V532.26H554.146Z" fill="#CACACA"/>
<path d="M608.015 513.345C603.705 518.125 599.268 522.783 594.702 527.317C583.955 538.02 572.544 548.035 560.537 557.302H492.172C490.357 557.302 488.563 556.915 486.91 556.166C485.257 555.416 483.783 554.323 482.586 552.958L482.577 552.933C481.152 551.324 480.161 549.378 479.699 547.278L479.69 547.261C479.497 546.36 479.4 545.441 479.399 544.52V526.127C479.401 522.739 480.748 519.49 483.142 517.094C485.537 514.698 488.785 513.349 492.172 513.345H608.015Z" fill="#3F3D56"/>
<path d="M636.183 441.553L628.772 473.302C629.497 477.902 629.738 482.565 629.492 487.215C625.979 491.927 622.356 496.544 618.62 501.068C615.176 505.24 611.641 509.332 608.014 513.344C603.705 518.124 599.268 522.782 594.702 527.317C582.811 531.052 568.795 532.577 554.146 532.68C549.091 532.722 543.959 532.585 538.811 532.311C517.933 531.215 529.37 527.865 512.073 524.387C507.498 523.479 503.198 522.554 499.24 521.654C491.744 519.966 485.473 518.39 480.932 517.191C475.818 515.854 457.359 506.633 457.359 506.633L442.795 538.331L429.944 568.315L413.022 606.193C410.846 606.39 408.667 606.555 406.486 606.69C404.172 606.852 401.857 606.984 399.538 607.084C397.704 607.178 395.88 607.246 394.038 607.298L393.412 607.495L392.898 607.332L384.64 604.702L381.856 603.82L371.841 600.633C371.841 600.633 374.077 593.591 377.992 581.845C379.431 577.536 389.626 545.676 400.292 517.859C403.453 509.6 406.725 501.222 410.092 492.886C412.851 486.041 415.661 479.222 418.505 472.497C423.448 460.837 447.333 454.549 475.458 451.251C476.889 451.088 478.328 450.925 479.776 450.771C494.108 449.263 509.315 448.484 523.536 448.124C530.655 447.944 504.971 447.875 511.362 447.867C513.427 447.867 515.434 447.873 517.385 447.884H517.393C522.662 447.91 527.511 447.987 531.777 448.072C532.608 448.09 533.414 448.115 534.202 448.132H534.21C534.741 448.141 535.264 448.158 535.778 448.167C545.107 448.407 550.83 448.698 550.83 448.698L553.049 431.29L553.503 427.777L553.931 424.436V424.428L553.983 424.008L554.334 423.999L560.502 423.879L612.349 422.868L634.433 421.933L636.183 441.553Z" fill="#2F2E41"/>
<path d="M467.64 505.777C473.885 516.451 478.751 536.686 485.151 546.71C497.427 565.951 504.623 576.446 513.13 588.285C521.92 583.496 530.478 578.345 538.805 572.83C543.252 569.901 547.629 566.865 551.938 563.724L546.841 552.098L543.945 546.401L530.941 520.795L516.36 492.087L511.288 494.451L467.64 505.777Z" fill="#2F2E41"/>
<path d="M29.3841 359.093C29.1384 358.354 29.0539 357.571 29.1362 356.796C29.2185 356.022 29.4658 355.274 29.8613 354.603C30.2569 353.932 30.7916 353.354 31.4294 352.907C32.0672 352.46 32.7933 352.155 33.5589 352.013C33.8423 351.952 34.1305 351.916 34.4201 351.906L69.3308 351.004C70.114 350.996 70.8902 351.153 71.6094 351.463C72.3286 351.773 72.9748 352.231 73.5064 352.806C73.9953 352.701 74.4939 352.65 74.9938 352.651C76.081 352.623 77.1631 352.809 78.1782 353.199C79.1934 353.589 80.1218 354.176 80.9102 354.925C81.6986 355.674 82.3316 356.571 82.7732 357.565C83.2147 358.559 83.4559 359.63 83.4832 360.717C83.5105 361.805 83.3233 362.887 82.9322 363.901C82.5411 364.916 81.9539 365.844 81.2041 366.632C80.4542 367.419 79.5565 368.052 78.5622 368.492C77.5678 368.933 76.4964 369.173 75.4092 369.2C74.1585 369.225 72.918 368.97 71.7786 368.454L68.5669 402.796C68.258 403.925 67.592 404.924 66.6685 405.643C65.7449 406.362 64.6135 406.763 63.4432 406.786L40.7478 407.37C39.586 407.391 38.4476 407.043 37.4959 406.376C36.5442 405.709 35.8282 404.758 35.4508 403.659L29.3841 359.093ZM75.3368 366.831C76.9036 366.79 78.3902 366.129 79.4706 364.994C80.551 363.859 81.1372 362.341 81.1005 360.774C81.0638 359.207 80.4073 357.719 79.2749 356.635C78.1424 355.552 76.6266 354.961 75.0596 354.994C74.9487 354.994 74.8509 355.047 74.74 355.047C74.9886 355.995 74.9825 356.993 74.7226 357.938L72.4372 366.122C73.3213 366.617 74.3238 366.863 75.3368 366.831Z" fill="#CCCCCC"/>
<path d="M33.5591 352.013C34.3029 356.265 42.665 359.255 52.7198 358.735C61.9659 358.309 69.5261 355.063 70.9111 351.215C70.3985 351.063 69.8655 350.992 69.3311 351.004L34.4203 351.906C34.1307 351.916 33.8426 351.952 33.5591 352.013Z" fill="white"/>
<path d="M252.125 307.074V394.936H190.572V307.074C190.571 306.442 190.773 305.826 191.147 305.317C191.522 304.808 192.05 304.433 192.654 304.247C192.938 304.153 193.236 304.106 193.536 304.11H249.153C249.543 304.109 249.929 304.185 250.289 304.333C250.65 304.482 250.977 304.7 251.253 304.976C251.53 305.251 251.749 305.578 251.898 305.938C252.048 306.298 252.125 306.684 252.125 307.074ZM228.104 337.264C228.088 335.531 227.389 333.875 226.158 332.656C224.928 331.437 223.265 330.753 221.533 330.753C219.801 330.753 218.138 331.437 216.908 332.656C215.677 333.875 214.978 335.531 214.962 337.264V347.458C214.97 349.196 215.666 350.859 216.898 352.084C218.129 353.31 219.796 353.998 221.533 353.998C223.27 353.998 224.937 353.31 226.168 352.084C227.4 350.859 228.096 349.196 228.104 347.458V337.264Z" fill="#CCCCCC"/>
<path d="M252.314 392.127V400.6C252.313 401.039 252.138 401.459 251.829 401.77C251.519 402.081 251.099 402.258 250.661 402.262H192.037C191.598 402.26 191.177 402.083 190.867 401.772C190.557 401.461 190.383 401.039 190.383 400.6V392.127H252.314Z" fill="#3F3D56"/>
<path d="M348.958 174.697V335.121C348.956 337.166 348.144 339.126 346.698 340.572C345.252 342.017 343.292 342.83 341.248 342.832H103.515C101.47 342.83 99.5103 342.017 98.0647 340.572C96.6191 339.126 95.8062 337.166 95.8046 335.121V174.697C95.8095 172.654 96.6236 170.697 98.0688 169.253C99.5139 167.81 101.472 166.998 103.515 166.995H341.248C343.29 166.998 345.249 167.81 346.694 169.253C348.139 170.697 348.953 172.654 348.958 174.697Z" fill="#CCCCCC"/>
<path d="M343.381 176.694V333.143C343.379 334.236 342.944 335.283 342.172 336.055C341.4 336.827 340.352 337.262 339.26 337.264H105.494C104.402 337.262 103.354 336.827 102.582 336.055C101.81 335.283 101.375 334.236 101.373 333.143V176.694C101.373 175.6 101.807 174.551 102.58 173.777C103.352 173.003 104.4 172.567 105.494 172.564H339.26C340.354 172.567 341.402 173.003 342.174 173.777C342.947 174.551 343.381 175.6 343.381 176.694Z" fill="white"/>
<path d="M294.998 401.688C294.76 401.986 294.457 402.227 294.113 402.391C293.769 402.556 293.392 402.641 293.01 402.639H153.934C153.554 402.638 153.179 402.553 152.835 402.389C152.492 402.225 152.19 401.987 151.95 401.692C151.711 401.396 151.54 401.051 151.45 400.681C151.361 400.312 151.355 399.927 151.433 399.555L153.592 389.3C153.681 388.882 153.874 388.493 154.152 388.168C154.431 387.843 154.786 387.593 155.185 387.441C155.475 387.327 155.783 387.269 156.093 387.27H290.86C291.171 387.269 291.479 387.327 291.768 387.441C292.168 387.593 292.523 387.843 292.801 388.168C293.079 388.493 293.272 388.882 293.362 389.3L295.52 399.555C295.597 399.927 295.59 400.311 295.5 400.68C295.409 401.049 295.238 401.393 294.998 401.688Z" fill="#F2F2F2"/>
<path d="M113.08 194.116H331.815C332.042 194.111 332.258 194.017 332.417 193.854C332.576 193.692 332.666 193.473 332.666 193.246C332.666 193.018 332.576 192.8 332.417 192.637C332.258 192.475 332.042 192.381 331.815 192.376H113.08C112.853 192.381 112.637 192.475 112.477 192.637C112.318 192.8 112.229 193.018 112.229 193.246C112.229 193.473 112.318 193.692 112.477 193.854C112.637 194.017 112.853 194.111 113.08 194.116Z" fill="#3F3D56"/>
<path d="M316.926 187.934C314.11 187.934 311.828 185.601 311.828 182.723C311.828 179.845 314.11 177.512 316.926 177.512C319.741 177.512 322.023 179.845 322.023 182.723C322.023 185.601 319.741 187.934 316.926 187.934Z" fill="#3F3D56"/>
<path d="M299.315 187.934C296.5 187.934 294.217 185.601 294.217 182.723C294.217 179.845 296.5 177.512 299.315 177.512C302.13 177.512 304.413 179.845 304.413 182.723C304.413 185.601 302.13 187.934 299.315 187.934Z" fill="#3F3D56"/>
<path d="M281.705 187.934C278.889 187.934 276.607 185.601 276.607 182.723C276.607 179.845 278.889 177.512 281.705 177.512C284.52 177.512 286.802 179.845 286.802 182.723C286.802 185.601 284.52 187.934 281.705 187.934Z" fill="#3F3D56"/>
<path d="M123.685 178.801H136.192C136.44 178.806 136.675 178.909 136.848 179.086C137.021 179.262 137.118 179.5 137.118 179.747C137.118 179.995 137.021 180.232 136.848 180.409C136.675 180.586 136.44 180.688 136.192 180.694H123.685C123.436 180.691 123.198 180.59 123.023 180.412C122.849 180.235 122.751 179.996 122.751 179.747C122.751 179.499 122.849 179.26 123.023 179.082C123.198 178.905 123.436 178.804 123.685 178.801Z" fill="#3F3D56"/>
<path d="M123.685 182.356H136.193C136.44 182.362 136.676 182.464 136.848 182.641C137.021 182.818 137.118 183.056 137.118 183.303C137.118 183.55 137.021 183.788 136.848 183.965C136.676 184.142 136.44 184.244 136.193 184.25H123.685C123.437 184.246 123.199 184.145 123.024 183.968C122.85 183.791 122.752 183.552 122.752 183.303C122.752 183.054 122.85 182.815 123.024 182.638C123.199 182.461 123.437 182.36 123.685 182.356Z" fill="#3F3D56"/>
<path d="M123.685 185.911H136.192C136.44 185.917 136.675 186.019 136.848 186.196C137.021 186.373 137.118 186.61 137.118 186.858C137.118 187.105 137.021 187.343 136.848 187.52C136.675 187.697 136.44 187.799 136.192 187.804H123.685C123.436 187.801 123.198 187.7 123.023 187.523C122.849 187.346 122.751 187.107 122.751 186.858C122.751 186.609 122.849 186.37 123.023 186.193C123.198 186.016 123.436 185.914 123.685 185.911Z" fill="#3F3D56"/>
<path d="M126.264 210H163.187C164.989 210 166.451 211.461 166.451 213.264V216.027C166.451 217.83 164.989 219.291 163.187 219.291H126.264C124.461 219.291 123 217.83 123 216.027V213.264C123 211.461 124.461 210 126.264 210Z" fill="#E6E6E6"/>
<path d="M127.13 228.583H208.187C209.989 228.583 211.451 230.044 211.451 231.847V234.61C211.451 236.413 209.989 237.874 208.187 237.874H127.13C125.327 237.874 123.865 236.413 123.865 234.61V231.847C123.865 230.044 125.327 228.583 127.13 228.583Z" fill="#E6E6E6"/>
<path d="M127.13 247.165H208.187C209.989 247.165 211.451 248.626 211.451 250.429V253.192C211.451 254.995 209.989 256.456 208.187 256.456H127.13C125.327 256.456 123.865 254.995 123.865 253.192V250.429C123.865 248.626 125.327 247.165 127.13 247.165Z" fill="#E6E6E6"/>
<path d="M366.121 408.113C355.002 408.113 345.988 405.236 345.988 401.688C345.988 398.139 355.002 395.263 366.121 395.263C377.239 395.263 386.253 398.139 386.253 401.688C386.253 405.236 377.239 408.113 366.121 408.113Z" fill="#3F3D56"/>
<path d="M366.121 403.83C355.002 403.83 345.988 400.953 345.988 397.405C345.988 393.856 355.002 390.979 366.121 390.979C377.239 390.979 386.253 393.856 386.253 397.405C386.253 400.953 377.239 403.83 366.121 403.83Z" fill="#3F3D56"/>
<path d="M364.621 401.71L367.621 401.666L366.793 345.647C366.673 336.507 368.952 327.494 373.404 319.51C377.855 311.526 384.323 304.85 392.162 300.147L449.421 265.921L447.882 263.346L390.623 297.573C382.333 302.546 375.492 309.607 370.784 318.051C366.076 326.494 363.666 336.025 363.793 345.692L364.621 401.71Z" fill="#3F3D56"/>
<path d="M440.653 238.488C440.653 234.466 443.913 231.206 447.935 231.206C451.957 231.206 455.217 234.466 455.217 238.488V283.893C455.217 287.914 451.957 291.175 447.935 291.175C443.913 291.175 440.653 287.914 440.653 283.893V238.488Z" fill="#2E44FF"/>
<path d="M453.031 303.685C458.784 303.677 464.302 301.405 468.392 297.36C472.483 293.315 474.816 287.822 474.889 282.07L475.136 259.064L472.136 259.032L471.889 282.039C471.851 285.555 470.828 288.991 468.938 291.957C467.047 294.922 464.363 297.299 461.19 298.817C458.018 300.336 454.484 300.935 450.988 300.547C447.492 300.159 444.175 298.8 441.413 296.624L420.997 280.541L419.141 282.898L439.556 298.981C443.39 302.021 448.138 303.679 453.031 303.685Z" fill="#3F3D56"/>
<path d="M470.638 277.896C465.67 277.896 461.642 268.115 461.642 256.05C461.642 243.985 465.67 234.204 470.638 234.204C475.605 234.204 479.633 243.985 479.633 256.05C479.633 268.115 475.605 277.896 470.638 277.896Z" fill="#3F3D56"/>
<path d="M534.067 373.64C534.847 368.739 535.369 363.368 535.712 357.748C536.517 344.889 536.44 330.711 536.534 317.74C536.574 311.846 537.041 305.409 537.648 299.433C538.177 293.989 539.994 288.748 542.947 284.145C545.901 279.541 549.908 275.706 554.636 272.955C557.855 271.094 560.756 268.73 563.229 265.953C564.566 264.462 564.728 261.018 564.9 257.378C565.105 252.948 565.319 248.357 567.692 245.992L567.795 245.889L567.932 245.838C577.896 242.522 594.73 244.673 599.733 245.829L599.947 245.881L600.084 246.052C602.149 248.785 602.037 253.154 601.926 257.378C601.832 261.173 601.738 264.762 603.417 265.842C604.719 266.681 605.97 267.478 607.178 268.249C621.99 277.698 629.426 282.444 634.875 297.874C635.601 300.081 635.946 302.395 635.894 304.719C635.937 307.563 635.748 310.056 636.768 311.966C638.164 314.588 639.578 319.968 640.897 327.155C647.811 364.927 651.914 452.755 635.02 454.812C633.701 454.974 636.391 457.621 637.316 458.949C638.644 460.86 639.783 462.505 639.124 463.764C638.678 464.621 637.513 465.023 635.474 465.023C627.781 465.023 548.7 453.415 546.455 449.234C546.292 449.474 546.309 448.96 546.455 449.234C509.377 444.394 529.004 405.671 534.067 373.64Z" fill="#2E44FF"/>
<path d="M444.818 411.469C446.405 409.822 448.333 408.544 450.468 407.723C452.602 406.903 454.89 406.56 457.171 406.719C459.452 406.879 461.67 407.536 463.669 408.646C465.669 409.755 467.4 411.29 468.742 413.141L521.948 397.069L513.699 424.749L464.439 435.767C461.18 437.815 457.282 438.597 453.485 437.964C449.688 437.331 446.255 435.327 443.836 432.332C441.418 429.337 440.182 425.559 440.363 421.714C440.544 417.869 442.129 414.223 444.818 411.469Z" fill="#FFB6B6"/>
<path d="M509.046 427.319L582.105 413.91C582.401 413.145 611.732 337.221 615.356 320.167C617.65 309.885 616.358 299.127 611.694 289.681L611.566 289.455L611.326 289.351C606.426 287.262 600.961 286.906 595.831 288.34C590.702 289.774 586.214 292.913 583.108 297.24C568.223 318.211 558.416 342.354 554.46 367.764L552.227 382.22L517.412 392.34L509.046 427.319Z" fill="#2E44FF"/>
<path d="M532.983 222.153C537.496 230.405 544.685 236.875 553.366 240.496C562.047 244.117 571.702 244.673 580.742 242.074C589.782 239.474 597.666 233.874 603.098 226.195C608.53 218.515 611.184 209.215 610.624 199.826C610.064 190.437 606.323 181.518 600.017 174.539C593.711 167.56 585.217 162.936 575.932 161.43C566.648 159.923 557.127 161.624 548.938 166.251C540.749 170.878 534.38 178.156 530.88 186.887C530.69 187.361 530.52 187.834 530.349 188.327C528.37 193.831 527.582 199.692 528.036 205.523C528.49 211.353 530.176 217.022 532.983 222.153Z" fill="#FFB6B6"/>
<path d="M527.033 188.327C528.814 183.343 528.037 185.94 529.837 180.975C528.662 185.371 530.52 187.835 530.349 188.327H579.638V159.675C565.198 153.952 551.08 149.082 542.553 159.675C534.954 159.675 527.666 162.694 522.293 168.067C516.92 173.441 513.901 180.728 513.901 188.327L527.033 188.327Z" fill="#2F2E41"/>
<path d="M566.779 267.117C566.817 266.586 566.873 266.036 566.949 265.506C567.612 261.613 568.685 257.802 570.152 254.136C571.573 250.137 573.013 246.12 574.453 242.122C572.599 249.38 573.164 257.045 576.064 263.952C584.383 257.471 580.384 247.715 590.011 242.652C615.847 229.064 624.788 207.105 617.561 173.379C614.991 161.385 600.02 149.392 573.869 149.392C547.699 149.392 536.034 162.403 535.522 188.554C567.737 196.134 560.696 264.464 566.779 267.117Z" fill="#2F2E41"/>
<path d="M614.959 174.626C605.513 174.626 597.856 166.969 597.856 157.523C597.856 148.078 605.513 140.421 614.959 140.421C624.404 140.421 632.061 148.078 632.061 157.523C632.061 166.969 624.404 174.626 614.959 174.626Z" fill="#2F2E41"/>
<path d="M622.959 152.553C625.876 155.949 630.442 157.269 634.562 159.036C641.832 162.225 648.215 167.14 653.156 173.354C658.098 179.568 661.449 186.894 662.919 194.695C664.058 201.05 663.909 207.629 665.708 213.824C667.496 220.019 671.925 226.097 678.279 227.172C682.58 227.907 686.891 226.246 690.936 224.607C693.161 223.713 695.385 222.815 697.61 221.914C695.29 216.091 692.973 210.269 690.659 204.446C694.377 209.941 698.701 215.001 703.55 219.529C711.523 216.315 719.503 213.1 727.49 209.885C707.84 209.96 711.193 190.885 706.797 171.746C704.38 161.229 683.804 154.107 679.77 144.101C677.59 138.674 673.901 133.985 669.139 130.589C664.377 127.193 658.742 125.232 652.901 124.939C647.06 124.646 641.257 126.032 636.178 128.933C631.1 131.835 626.96 136.131 624.247 141.312C620.213 142.92 620.096 149.2 622.959 152.553Z" fill="#2F2E41"/>
<path d="M546.378 150.039C544.762 150.578 543.426 151.738 542.664 153.262C541.903 154.786 541.778 156.551 542.317 158.167L557.444 203.497C557.711 204.297 558.133 205.037 558.686 205.674C559.239 206.312 559.912 206.834 560.667 207.211C561.422 207.588 562.243 207.813 563.085 207.872C563.927 207.932 564.772 207.825 565.572 207.558C567.189 207.018 568.525 205.859 569.286 204.335C570.048 202.81 570.173 201.046 569.633 199.429L554.507 154.1C553.968 152.483 552.808 151.147 551.284 150.386C549.759 149.624 547.995 149.499 546.378 150.039Z" fill="white"/>
<path d="M566.934 227.438C557.471 227.438 549.8 219.767 549.8 210.304C549.8 200.841 557.471 193.17 566.934 193.17C576.397 193.17 584.068 200.841 584.068 210.304C584.068 219.767 576.397 227.438 566.934 227.438Z" fill="white"/>
<path d="M566.934 214.586C564.568 214.586 562.65 212.669 562.65 210.303C562.65 207.937 564.568 206.02 566.934 206.02C569.3 206.02 571.217 207.937 571.217 210.303C571.217 212.669 569.3 214.586 566.934 214.586Z" fill="#2E44FF"/>
<path d="M319.412 624.865C318.492 627.095 317.482 629.325 316.512 631.565L316.962 631.595C317.112 631.595 317.252 631.615 317.402 631.625C324.472 632.065 331.606 632.299 338.802 632.325C339.132 632.335 339.452 632.335 339.782 632.335C339.782 632.315 339.772 632.305 339.772 632.285C339.033 632.319 338.301 632.124 337.676 631.728C337.05 631.332 336.562 630.753 336.276 630.07C335.99 629.387 335.921 628.633 336.078 627.91C336.234 627.186 336.61 626.529 337.152 626.025C337.252 625.655 337.312 625.395 337.402 625.035C337.373 624.954 337.34 624.873 337.302 624.795C336.557 623.035 335.308 621.534 333.712 620.482C332.117 619.429 330.245 618.872 328.334 618.879C326.422 618.886 324.556 619.459 322.968 620.524C321.381 621.589 320.144 623.099 319.412 624.865Z" fill="#00BFA6"/>
<path d="M253.452 592.205C253.462 592.285 253.472 592.355 253.482 592.435C254.75 592.947 255.982 593.542 257.172 594.215C257.862 594.595 258.532 595.005 259.182 595.435C260.003 595.984 260.64 596.768 261.007 597.685C261.375 598.602 261.458 599.608 261.243 600.572C261.029 601.537 260.529 602.414 259.808 603.089C259.087 603.764 258.179 604.205 257.202 604.355L257.102 604.375C257.032 604.385 256.972 604.395 256.902 604.405C260.678 613.523 267.182 621.249 275.522 626.525C275.922 626.605 276.312 626.675 276.712 626.745C278.732 627.115 280.742 627.455 282.762 627.765C289.782 628.905 296.872 629.825 304.032 630.525C302.598 623.273 301.875 615.898 301.872 608.505C301.868 604.365 302.098 600.229 302.562 596.115C302.942 592.745 303.462 589.385 304.142 586.065C304.482 584.385 304.862 582.708 305.282 581.035C307.525 572.14 310.8 563.538 315.042 555.405C318.486 548.795 322.569 542.539 327.232 536.725C332.794 533.694 337.29 529.026 340.112 523.355C341.14 521.318 341.864 519.142 342.262 516.895C341.642 516.985 341.002 517.035 340.372 517.075C340.182 517.085 339.972 517.095 339.772 517.105H339.702C339.013 517.137 338.328 516.969 337.732 516.621C337.136 516.273 336.653 515.759 336.343 515.143C336.032 514.527 335.906 513.833 335.98 513.147C336.055 512.461 336.326 511.81 336.762 511.275C337.032 510.945 337.302 510.605 337.572 510.275C337.982 509.765 338.412 509.255 338.822 508.745C338.868 508.698 338.912 508.647 338.952 508.595C339.422 508.005 339.902 507.425 340.372 506.845C339.513 505.502 338.352 504.379 336.982 503.565C332.242 500.785 325.702 502.705 322.272 506.995C318.842 511.285 318.192 517.305 319.382 522.655C320.556 527.216 322.497 531.545 325.122 535.455C324.862 535.785 324.602 536.095 324.342 536.425C319.989 542.02 316.157 548.002 312.892 554.295C312.622 554.795 312.362 555.295 312.112 555.805C312.948 548.138 311.951 540.381 309.202 533.175C306.422 526.465 301.202 520.805 296.612 515.005C291.092 508.035 279.772 511.075 278.802 519.915C278.792 519.995 278.782 520.085 278.772 520.165C279.452 520.555 280.122 520.965 280.772 521.395C281.594 521.943 282.231 522.726 282.599 523.642C282.968 524.559 283.051 525.565 282.838 526.529C282.625 527.493 282.126 528.371 281.406 529.046C280.686 529.722 279.778 530.164 278.802 530.315L278.702 530.335C279.505 538.473 282.329 546.281 286.919 553.049C291.509 559.817 297.718 565.329 304.982 569.085C305.392 569.295 305.782 569.505 306.182 569.695C304.926 573.225 303.848 576.817 302.952 580.455C302.512 582.155 302.132 583.865 301.782 585.585C300.803 590.341 300.122 595.154 299.742 599.995C299.279 606.091 299.306 612.214 299.822 618.305L299.792 618.095C298.474 611.321 294.861 605.207 289.562 600.785C281.682 594.315 270.562 591.935 262.062 586.735C261.16 586.155 260.111 585.846 259.038 585.843C257.966 585.84 256.915 586.144 256.01 586.719C255.104 587.294 254.383 588.116 253.929 589.088C253.476 590.06 253.311 591.142 253.452 592.205Z" fill="#00BFA6"/>
<path d="M284.852 259H277.146C276.208 259 275.444 258.411 275.444 257.687V224.509C275.444 223.784 276.208 223.195 277.146 223.195H284.852C285.79 223.195 286.554 223.784 286.554 224.509V257.687C286.554 258.411 285.79 259 284.852 259Z" fill="#2E44FF"/>
<path d="M259.375 239.447C258.617 239.447 258 239.923 258 240.508V257.649C258 258.234 258.617 258.71 259.375 258.71H267.081C267.839 258.71 268.456 258.234 268.456 257.649V240.508C268.456 239.923 267.839 239.447 267.081 239.447H259.375Z" fill="#2E44FF"/>
<path d="M302.623 259H294.917C293.979 259 293.215 258.411 293.215 257.686V203.313C293.215 202.589 293.979 202 294.917 202H302.623C303.561 202 304.325 202.589 304.325 203.313V257.686C304.325 258.411 303.561 259 302.623 259Z" fill="#2E44FF"/>
<path d="M147.935 294.035C149.091 293.271 149.334 291.636 148.526 290.495L144.74 285.153C143.856 283.904 142.152 283.627 140.934 284.533C140.826 284.614 140.724 284.702 140.629 284.798C134.219 288.312 130.768 293.445 134.605 299.512C134.605 300.525 134.677 301.537 134.82 302.539C134.883 302.974 135.025 303.4 135.267 303.763C135.986 304.84 137.254 305.236 138.369 304.863L144.561 302.8C145.876 302.362 146.588 300.889 146.102 299.561C145.474 297.844 145.733 295.492 147.935 294.035Z" fill="#F2F2F2"/>
<path d="M163.413 309.559C161.572 309.381 160 310.868 160 312.681V318.091C160 318.232 160.011 318.372 160.033 318.51C160.269 320.018 161.708 321.052 163.247 320.82C172.215 321.903 178.344 318.081 178.713 309.695C178.772 309.577 178.822 309.456 178.863 309.331C179.341 307.882 178.53 306.327 177.051 305.859L171.693 304.153C169.844 303.564 167.923 304.74 167.6 306.618C167.308 308.315 166.165 309.825 163.413 309.559Z" fill="#E6E6E6"/>
<path d="M130.394 315.318C132.212 326.182 141.681 330.303 151.557 330.955C151.75 330.985 151.946 331 152.141 331C154.271 331.001 155.999 329.264 156 327.119V318.034C156 315.493 153.931 313.514 151.407 313.488C148.967 313.464 147.377 312.301 146.723 310.167C145.977 307.729 143.316 306.443 140.906 307.232L132.668 309.926C131.601 310.275 130.738 311.074 130.302 312.115C129.869 313.145 129.903 314.314 130.394 315.318Z" fill="#3F3D56"/>
<path d="M181.734 277.102C180.199 275.611 177.735 275.636 176.231 277.158C176.097 277.294 175.974 277.439 175.862 277.593L168.47 287.681C167.525 288.971 168.066 290.768 169.543 291.398C173.003 292.873 172.639 296.185 171.513 298.212C170.961 299.205 171.416 300.448 172.504 300.799L184.959 304.812C187.008 305.468 189.205 304.353 189.867 302.321C189.934 302.116 189.983 301.906 190.014 301.694C190.228 300.279 190.336 298.852 190.336 297.422C192.443 289.631 189.527 282.286 181.734 277.102Z" fill="#2E44FF"/>
<path d="M160.135 288.967C161.477 289.776 163.169 289.385 164.074 288.051L166.481 284.505C166.948 283.817 167.11 282.945 166.925 282.118C166.746 281.307 166.243 280.62 165.549 280.24C159.886 274.761 153.182 274.425 147.498 280.212C146.783 280.598 146.263 281.3 146.075 282.133C145.89 282.954 146.051 283.821 146.515 284.504L149.328 288.648C150.294 290.072 152.165 290.444 153.496 289.413C155.431 287.913 158.24 287.825 160.135 288.967Z" fill="#E6E6E6"/>
<path d="M283.5 322C294.822 322 304 312.822 304 301.5C304 290.178 294.822 281 283.5 281C272.178 281 263 290.178 263 301.5C263 312.822 272.178 322 283.5 322Z" fill="#FD6584"/>
<path d="M280.749 312C280.401 312 280.057 311.915 279.745 311.752C279.434 311.588 279.163 311.351 278.954 311.059L273.449 303.369C273.272 303.122 273.143 302.841 273.07 302.542C272.997 302.242 272.981 301.931 273.023 301.625C273.064 301.32 273.163 301.026 273.313 300.76C273.463 300.494 273.662 300.262 273.898 300.077C274.134 299.891 274.402 299.757 274.688 299.68C274.973 299.603 275.27 299.586 275.562 299.63C275.854 299.674 276.134 299.777 276.388 299.935C276.642 300.092 276.863 300.3 277.04 300.547L280.642 305.578L289.892 291.041C290.223 290.524 290.736 290.166 291.319 290.045C291.901 289.924 292.506 290.05 293 290.395C293.495 290.74 293.838 291.277 293.956 291.887C294.073 292.497 293.955 293.131 293.627 293.65L282.617 310.953C282.418 311.266 282.15 311.524 281.836 311.706C281.522 311.888 281.171 311.989 280.812 311.999C280.791 312 280.77 312 280.749 312Z" fill="white"/>
</svg>
