<?xml version="1.0" encoding="UTF-8"?>
<svg id="_레이어_1" data-name="레이어_1" xmlns="http://www.w3.org/2000/svg" version="1.1" viewBox="0 0 728 633">
  <!-- Generator: Adobe Illustrator 29.2.0, SVG Export Plug-In . SVG Version: 2.1.0 Build 108)  -->
  <defs>
    <style>
      .st0 {
        opacity: .5;
      }

      .st0, .st1 {
        fill: #01bfa6;
      }

      .st2 {
        opacity: .7;
      }

      .st2, .st3 {
        fill: #fd6584;
      }

      .st4 {
        fill: #2f2e41;
      }

      .st5 {
        fill: #ebebeb;
      }

      .st6 {
        fill: #3f3d56;
      }

      .st7 {
        fill: #fff;
      }

      .st8 {
        opacity: .3;
      }

      .st9 {
        fill: #2e44ff;
      }

      .st10 {
        fill: #a0616a;
      }
    </style>
  </defs>
  <g>
    <rect class="st5" x="418.4" y="222" width="12.5" height="308.8"/>
    <rect class="st5" x="439.4" y="160.6" width="12.5" height="431.5"/>
    <rect class="st5" x="460.4" y="133.1" width="12.5" height="486.6"/>
    <rect class="st5" x="355.4" y="332.2" width="12.5" height="88.4"/>
    <rect class="st5" x="376.4" y="314.6" width="12.5" height="123.6"/>
    <rect class="st5" x="691.4" y="332.2" width="12.5" height="88.4" transform="translate(1395.2 752.8) rotate(-180)"/>
    <rect class="st5" x="670.4" y="314.6" width="12.5" height="123.6" transform="translate(1353.2 752.8) rotate(-180)"/>
    <rect class="st5" x="397.4" y="288.3" width="12.5" height="176.2"/>
    <rect class="st5" x="481.4" y="178.1" width="12.5" height="396.5"/>
    <rect class="st5" x="502.4" y="221.4" width="12.5" height="309.9"/>
    <rect class="st5" x="523.4" y="257.4" width="12.5" height="238"/>
    <rect class="st5" x="649.4" y="253.1" width="12.5" height="246.5" transform="translate(1311.2 752.8) rotate(-180)"/>
    <rect class="st5" x="628.4" y="191.7" width="12.5" height="369.3" transform="translate(1269.3 752.8) rotate(-180)"/>
    <rect class="st5" x="607.4" y="164.2" width="12.5" height="424.3" transform="translate(1227.3 752.8) rotate(-180)"/>
    <rect class="st5" x="586.4" y="209.2" width="12.5" height="334.3" transform="translate(1185.3 752.8) rotate(-180)"/>
    <rect class="st5" x="565.4" y="252.6" width="12.5" height="247.6" transform="translate(1143.3 752.8) rotate(-180)"/>
    <rect class="st5" x="544.4" y="288.5" width="12.5" height="175.8" transform="translate(1101.3 752.8) rotate(-180)"/>
  </g>
  <g class="st8">
    <rect class="st3" x="111.9" y="207.2" width="12.5" height="296.7"/>
    <rect class="st3" x="132.9" y="148.2" width="12.5" height="414.7"/>
    <rect class="st3" x="153.9" y="121.8" width="12.5" height="467.6"/>
    <rect class="st3" x="48.9" y="313.1" width="12.5" height="85"/>
    <rect class="st3" x="69.9" y="296.2" width="12.5" height="118.8"/>
    <rect class="st3" x="384.9" y="313.1" width="12.5" height="85" transform="translate(782.2 711.2) rotate(-180)"/>
    <rect class="st3" x="363.9" y="296.2" width="12.5" height="118.8" transform="translate(740.2 711.2) rotate(-180)"/>
    <rect class="st3" x="90.9" y="270.9" width="12.5" height="169.3"/>
    <rect class="st3" x="174.9" y="165.1" width="12.5" height="381.1"/>
    <rect class="st3" x="195.9" y="206.7" width="12.5" height="297.8"/>
    <rect class="st3" x="216.9" y="241.2" width="12.5" height="228.8"/>
    <rect class="st3" x="342.9" y="237.1" width="12.5" height="236.9" transform="translate(698.2 711.2) rotate(-180)"/>
    <rect class="st3" x="321.9" y="178.2" width="12.5" height="354.9" transform="translate(656.2 711.2) rotate(-180)"/>
    <rect class="st3" x="300.9" y="151.7" width="12.5" height="407.8" transform="translate(614.2 711.2) rotate(-180)"/>
    <rect class="st3" x="279.9" y="195" width="12.5" height="321.2" transform="translate(572.2 711.2) rotate(-180)"/>
    <rect class="st3" x="258.9" y="236.6" width="12.5" height="238" transform="translate(530.2 711.2) rotate(-180)"/>
    <rect class="st3" x="237.9" y="271.1" width="12.5" height="168.9" transform="translate(488.2 711.2) rotate(-180)"/>
  </g>
  <g class="st8">
    <rect class="st1" x="279.8" y="403.2" width="12.5" height="155" transform="translate(572.1 961.4) rotate(180)"/>
    <rect class="st1" x="258.8" y="372.4" width="12.5" height="216.6" transform="translate(530.1 961.4) rotate(180)"/>
    <rect class="st1" x="237.8" y="358.6" width="12.5" height="244.2" transform="translate(488.1 961.4) rotate(180)"/>
    <rect class="st1" x="342.8" y="458.5" width="12.5" height="44.4" transform="translate(698.1 961.4) rotate(180)"/>
    <rect class="st1" x="321.8" y="449.7" width="12.5" height="62" transform="translate(656.1 961.4) rotate(180)"/>
    <rect class="st1" x="6.8" y="458.5" width="12.5" height="44.4"/>
    <rect class="st1" x="27.8" y="449.7" width="12.5" height="62"/>
    <rect class="st1" x="300.8" y="436.5" width="12.5" height="88.4" transform="translate(614.1 961.4) rotate(180)"/>
    <rect class="st1" x="216.8" y="381.2" width="12.5" height="199" transform="translate(446.1 961.4) rotate(180)"/>
    <rect class="st1" x="195.8" y="402.9" width="12.5" height="155.6" transform="translate(404.1 961.4) rotate(180)"/>
    <rect class="st1" x="174.8" y="420.9" width="12.5" height="119.5" transform="translate(362.2 961.4) rotate(180)"/>
    <rect class="st1" x="48.8" y="418.8" width="12.5" height="123.7"/>
    <rect class="st1" x="69.8" y="388" width="12.5" height="185.4"/>
    <rect class="st1" x="90.8" y="374.2" width="12.5" height="213"/>
    <rect class="st1" x="111.8" y="396.8" width="12.5" height="167.8"/>
    <rect class="st1" x="132.8" y="418.5" width="12.5" height="124.3"/>
    <rect class="st1" x="153.8" y="436.6" width="12.5" height="88.2"/>
  </g>
  <g>
    <path class="st3" d="M252,470.7c-3.3,6.4,35.1,6.9,17.4,19.9s-59.3,39.1-80.4,55.9c-21.1,16.8-60.9,44.9-75.5,51.8-14.6,7-13.7,7.6.8,4.1,14.5-3.5,55.3-29.4,78-44.7,22.7-15.3,61.5-35.8,89.2-46.5,1.3,3.1-3,7.9,1.9,10.8,4.8,2.9,14.3-4.9,17.1-7.8,2.8-3,4.4-8.6,8-5.1,3.6,3.4,9.3,12.1,15.4,12.4,6.2.3,9.6-7.3,12.6-11.5,3-4.2,5.2-9.3,8.4-13.1,3.1-3.7,7.1-5.7,10.3-9-23.9-5.7-81.7-21.6-103-17.3Z"/>
    <path class="st2" d="M534.3,333.4c23-21.2,35-45.4,57.3-68.4,22.3-23,39.6-53.2,47.7-79.5,8.2-26.3,5-17.8,14.7,7.1,9.7,24.9,11.6,80.1,1.3,105-10.3,24.8-7,60.9-25.3,66.1-18.3,5.2-64.4-30.3-95.7-30.3Z"/>
    <path class="st0" d="M48.6,249.2c40.9,129.2,160.9,187.4,248.1,201,87.2,13.6,155.3-52.6,180.7-48.7,25.3,4,35.8,25.2,52.4,27.2,16.6,2,32.5.3,41,9,7.8,8,62.6,17.8,63.3,4,.7-13.8-28-25.8-38.7-29.7-10.8-3.9-68-29.9-33-34.8,35-4.9,66.7,28.4,86.2,40.7,19.5,12.3,53.7,20.9,55.4,6.6,1.7-14.3,4.7-9.1-36.1-25.1-40.7-16.1-129.8-70.8-188.1-57.9-58.3,12.9-115.3,61.4-158.7,69.8-18.8,3.6-10.8,3.9-49.7-6.5-37.7-10.1-128.3-66.1-156.9-100.2-27.7-33-77.4-91.7-65.9-55.4Z"/>
    <path class="st2" d="M60.4,233.3c40.9,129.2,160.9,187.4,248.1,201,87.2,13.6,155.3-52.6,180.7-48.7,25.3,4,35.8,25.2,52.4,27.2,16.6,2,32.5.3,41,9s62.6,17.8,63.3,4c.7-13.8-28-25.8-38.7-29.7-10.8-3.9-68-29.9-33-34.8,35-4.9,66.7,28.4,86.2,40.7,19.5,12.3,53.7,20.9,55.4,6.6,1.7-14.3,4.7-9.1-36.1-25.1-40.7-16.1-129.8-70.8-188.1-57.9-58.3,12.9-115.3,61.4-158.7,69.8-18.8,3.6-10.8,3.9-49.7-6.5-37.7-10.1-128.3-66.1-156.9-100.2-27.7-33-77.4-91.7-65.9-55.4Z"/>
    <path class="st7" d="M525.4,375.4c-4.6-1.1-6.3,4.5-6.7,7.6-.5,3.1,0,6.6,3.3,7.1,3.3.5,4.7-2.8,5.4-5.6s1.4-8.3-2-9.2Z"/>
    <g>
      <path class="st9" d="M246.9,472.2s27.7,14.8,20.8,18.8-40.9,24.7-93.6,49.1c-52.7,24.4-88.4,39.9-92.6,40.9-4.3,1-4.3,4.3.3,4s41.2-12.5,92.6-33c51.4-20.4,101.9-38.9,101.9-38.9,0,0-3,9.2.3,11.2s11.2-.3,18.5-7.9c7.3-7.6,6.3-6.9,7.9-4.9s10.5,12.9,15.5,13.2c4.9.3,9.9-6.9,13.2-11.9,3.3-4.9,8.9-13.5,8.9-13.5l10.9-9.2s-98.6-20.8-104.5-17.8Z"/>
      <path class="st9" d="M531.7,334.8s33.6-31.6,45.5-64.3c11.9-32.6,10.9-70.2,8.9-85.1-2-14.8,2-17.8,14.8,0,12.9,17.8,47.5,66.3,46.5,109.8-1,43.5-11.9,67.3-16.8,68.2s-30.7-22.7-98.9-28.7Z"/>
      <path class="st7" d="M353.1,66.1s-7.6,3.6-7.9,7.3-28.7,90.3-29.3,96.9c-.7,6.6-2.3,27-2.3,27l65.6-9.6,5.6-44.5.3-45.8-8.6-18.4-23.4-13Z"/>
      <path class="st10" d="M373.8,69.4l1.3,9.2s-2.6,8.2-6.3,8.9-17.5-12.2-17.5-15.5,2.3-10.2,2.3-10.2c0,0,1.6-5.6,7.9-3.6s12.2,11.2,12.2,11.2Z"/>
      <path class="st10" d="M374.2,74.4c11.8,0,17.5-9.4,17.5-21.2s2.2-21.9-9.6-21.9-29.3,9.9-29.3,21.7,9.6,21.4,21.4,21.4Z"/>
      <path class="st4" d="M390,36.7l6.6-6.6-6.3-17.8-1,6.6s-3-6.6-7.6-6.6c0,0,1.3,3-1.3,3.3s-19.5,3-26,.3l4.3,3s-5.3,2.3-8.9,1.3l1.1,1.7s-2.9,1.3-4.7,1.2c0,0-.4,1.8-1.4,3.4s-3.1,2.5-3.1,3.7.7,12.7,3.5,19.7c2.8,6.9,6.1,15.5,6.9,16l8.2-5.8s-6.9-2.5-5.6-11c1.3-8.6,6.8-.5,6.8-.5l4.5,4.9,2-7.9,4.5-2.1s-2.8-8.7,5.9-8.6c8.7.2,11.7,1.8,11.7,1.8Z"/>
      <path class="st6" d="M344.8,70.3s3.5,41.3-4.8,62.4c-8.4,21.1-21.1,50.1-21.1,55.8s2.2,12.3,2.2,12.3l-9.2-14.5s-2.6-4.8-8.4-.9c-5.7,4-8.8,10.5-8.4,11.9s-7.9-.4-8.8-6.2c-.9-5.7-11.4-31.2-11.4-31.2,0,0,.4-11.9,9.7-37.4,9.2-25.5,11.4-37.4,31.6-42.6,20.2-5.3,19.3-2.6,28.6-9.7Z"/>
      <path class="st6" d="M293.8,134s-33.4-14.9-45.3,19.8c-11.9,34.7-11.4,47.5,4,44.8,15.4-2.6,18.5-4.4,18.5-4.4,0,0,.4,13.2,7.9,17.6,7.5,4.4,15.8,2.2,20.7,0s17.1-11.9,17.1-11.9v-31.2l-22.9-34.7Z"/>
      <path class="st10" d="M414.7,307.4s-4.6,16.2-5.6,28.4,8.9,4.6,11.2,3.6,8.9-7.9,8.9-7.9l2.6-23.7-17.1-.3Z"/>
      <polygon class="st10" points="316.5 374.6 314.8 405.6 325 404 332.9 395.4 333.3 368.1 316.5 374.6"/>
      <path class="st6" d="M318.9,191.6l59.3-6.2s3.1.9,3.5,3.5-.4,5.7,7,9.2c7.5,3.5,23.7,8.8,40.9,16.7s27.3,12.7,29.9,18.9c2.6,6.2-2.2,16.7-5.7,27.7-3.5,11-12.7,49.2-15.4,51.4-2.6,2.2-11.9,1.3-18,0s-11.4-5.3-11.4-5.3c0,0,8.4-50.1,14.1-55.4,0,0-28.1-5.3-61.1-13.6,0,0-6.2,20.7-9.2,38.2-3.1,17.6-3.5,27.7-7.9,38.2-4.4,10.5-7,61.5-7,61.5,0,0-15.8,5.3-25.9-.9,0,0-1.3-31.6,1.3-45.7,2.6-14.1,4.8-24.6,4.4-37.4-.4-12.7-7-87-6.6-89.7s0-12.7,7.9-11.4Z"/>
      <path class="st4" d="M408.4,332.4s6.6,5.3,8.9,4.6c2.3-.7,8.2-11.2,11.5-11.2s16.2,9.6,16.2,9.6c0,0,10.5-2.6,16.5-2.3s9.6,2.6,9.9,6.6c.3,4-58.7,27.7-62,26.4s-4-8.2-3.6-11.2-4.9-19.1,2.6-22.4Z"/>
      <path class="st4" d="M314.2,399s1,4,3.3,3,5.6-11.5,13.2-11.9c7.6-.3,9.2,6.6,10.2,8.6s8.9,12.2,14.5,11.9c5.6-.3,5.9,9.6-1.3,9.6s-42.9,0-44.2-2.3,1.6-15.8,4.3-18.8Z"/>
      <path class="st10" d="M295.6,193.8s7-11,13.2-9.7l15.4,23.7-6.2,18.9-22.4-33Z"/>
      <path class="st3" d="M364.8,90.2l-4.5,7.4c-.4.6,0,1.4.6,1.5h0c.7.2,1,.9.6,1.5-1.3,2-4.4,6-9.5,5.7s-29.7-6.9-44.5-22.7c-14.8-15.8-24.4-29.3-45.5-28s-24.9,6-27.6,8-.5,1.2,0,1.6l13.7,9.9c.2.2.5.2.7.2,2.5-.4,15.7-2.3,24.7,0,9.9,2.6,19.5,12.5,35.3,24.1,15.8,11.5,45.5,27.3,60,5,0,0,0,0,0,0l3.1-5.8c.1-.3.4-.4.7-.5l.7-.2c.7-.2,1-1,.6-1.6l-4.7-6.4c-.3-.4-.9-.5-1.3-.2s-1,.4-1.9.2-.9,0-1.1.5Z"/>
      <path class="st4" d="M639.5,362.4s-141.8-174.8-196.3-169.6l-3.5,8.4s3.4-8,17.6-1.8c21.1,9.2,62.2,42.9,91.4,71.6,26.8,26.4,83.5,91.4,83.5,91.4,0,0,1.8,2.9,7.3-.1Z"/>
      <path class="st7" d="M62.9,238.8s48.7,178.7,188.9,238.3c138.3,58.8,240.7-6.5,240.7-6.5,0,0,35.3-24.9,58-41.3,3.2-2.3,13.2-6.8,15.4-6.6,26.8,2.2,66.8,6.6,77.8-.4,5.7-3.6-55.3-29.5-51.6-33.2,11.9-12.1,70.4,11.3,98.7,17.6l-14.6-19.6-74.2-35.6-46.5-1-133.5,36.6-88,30.7s-27.7-1-57.4-10.9c-29.7-9.9-89-35.6-126.6-71.2-37.6-35.6-87-96.9-87-96.9Z"/>
      <path class="st9" d="M62.9,238.8s103.7,178,241.2,197.8c137.5,19.8,154.4-54.4,184.1-49.4,29.7,4.9,43.5,25.7,53.4,25.7s27.7,1,46.5,4.9c18.8,4,58.7,12.2,57.4,0-1.3-12.2-23.7-17.8-38.6-22.7-14.8-4.9-71.2-29.7-33.6-33.6s86,29.7,102.9,39.6c16.8,9.9,34.6,7.9,39.6,1,4.9-6.9-4-14.8-28.7-20.8-24.7-5.9-119.7-63.3-193.8-46.5s-147.4,75.2-147.4,75.2c0,0-19.8,8.9-59.3-5.9-39.6-14.8-101.9-41.5-139.4-79.1-37.6-37.6-86-101.9-84.1-86Z"/>
      <path class="st7" d="M523.7,376.8c-4.1-.9-6.4,4.2-6.8,7.9s.9,6.8,3.5,7,4.6-1.5,5.5-5.7c.9-4.2.9-8.6-2.2-9.2Z"/>
      <path class="st10" d="M393.6,179.3l22.9,17.1s10.1,14.5,20.2,13.2,13.6-8.4,6.6-16.7c-7-8.4-9.7-5.7-13.2-6.2s-7.5-3.1-10.5-5.7-15.8-18-15.8-18c0,0-9.2,1.3-11.4,6.6-2.2,5.3,1.3,9.7,1.3,9.7Z"/>
      <path class="st6" d="M376.5,79s0,15.8,2.2,24.2c2.2,8.4,3.5,21.1,2.6,28.1-.9,7-3.1,54.1-3.1,54.1l5.7-11.4s7.5,12.7,11,13.2,2.6-1.8,2.6-1.8c0,0-.4-10.1,5.7-13.2s9.2.4,9.2.4c0,0,.9-5.3-3.1-10.1s-10.5-18.5-10.1-27.3,4.4-18.9,4.4-25.9-.9-16.7-10.1-20.7-17.1-9.7-17.1-9.7Z"/>
      <path class="st4" d="M511.8,416.2s-29.5-54.1-54.5-106.4c-21.2-44.3-32.4-92.7-31.4-105.9l-5.9-3.3s5.3,49.4,23.3,94.7c7.9,19.8,52.4,122.1,65.5,127,14.1,5.3,24.6,1.3,24.6,1.3l-21.5-7.5Z"/>
    </g>
  </g>
</svg>